<?xml version="1.0" standalone="no"?>
<!DOCTYPE svg PUBLIC "-//W3C//DTD SVG 20010904//EN"
 "http://www.w3.org/TR/2001/REC-SVG-20010904/DTD/svg10.dtd">
<svg version="1.0" xmlns="http://www.w3.org/2000/svg"
 width="864.000000pt" height="864.000000pt" viewBox="0 0 864.000000 864.000000"
 preserveAspectRatio="xMidYMid meet">
<metadata>
Created by potrace 1.14, written by Peter Selinger 2001-2017
</metadata>
<g transform="translate(0.000000,864.000000) scale(0.100000,-0.100000)"
fill="#000000" stroke="none">
<path d="M5185 6949 c-60 -9 -181 -43 -283 -80 -28 -10 -54 -18 -57 -18 -10 1
-103 -15 -142 -26 -88 -23 -140 -38 -148 -43 -5 -4 -12 -7 -15 -7 -3 0 -58
-27 -124 -59 l-118 -58 -67 32 c-36 18 -72 38 -80 44 -7 5 -18 11 -25 13 -6 1
-36 11 -66 22 -31 11 -67 22 -80 25 -14 3 -47 10 -75 16 -27 6 -63 13 -80 16
-16 3 -79 22 -140 41 -60 19 -120 37 -131 39 -82 16 -163 21 -254 17 -171 -8
-161 -9 -299 17 -47 8 -248 6 -291 -3 -14 -3 -43 -8 -65 -11 -62 -8 -74 -11
-170 -51 l-90 -37 -67 -116 c-50 -87 -91 -141 -158 -212 -50 -51 -114 -128
-142 -170 -29 -41 -58 -81 -65 -88 -7 -7 -13 -17 -13 -22 0 -5 -57 -58 -127
-118 -143 -122 -291 -274 -370 -378 -29 -38 -59 -78 -68 -89 -8 -11 -45 -67
-82 -125 -53 -85 -131 -189 -198 -266 -80 -92 -124 -142 -144 -163 -26 -29
-107 -123 -133 -155 -82 -98 -109 -127 -255 -262 -33 -31 -50 -59 -121 -197
-25 -49 -50 -80 -91 -113 -69 -56 -77 -62 -124 -97 l-38 -29 1 -164 c1 -91 6
-164 11 -164 5 0 9 -5 9 -10 0 -6 9 -20 19 -31 20 -22 20 -45 -1 -124 -5 -22
-12 -47 -13 -56 -2 -9 -8 -33 -14 -54 -5 -20 -6 -44 -2 -53 5 -10 16 -32 25
-49 9 -18 14 -33 10 -33 -5 0 -3 -5 3 -11 8 -8 3 -33 -18 -91 -28 -80 -29 -81
-14 -145 12 -52 13 -67 3 -78 -7 -7 -40 -43 -73 -80 -33 -37 -77 -86 -97 -109
-37 -40 -38 -43 -38 -119 0 -81 13 -120 53 -164 11 -13 17 -23 13 -23 -4 0 5
-15 19 -34 29 -38 180 -118 212 -112 39 8 200 20 253 20 55 -1 65 -2 170 -24
50 -10 108 -20 135 -22 10 -1 83 8 135 16 141 21 146 21 355 16 61 -2 139 1
175 5 36 4 73 8 83 9 9 0 17 3 17 6 0 7 84 4 135 -4 22 -4 72 -11 110 -17 77
-12 98 -15 135 -24 14 -3 42 -7 64 -10 69 -9 81 -12 211 -46 132 -34 158 -40
210 -49 45 -8 80 -15 125 -25 8 -2 25 -4 37 -4 12 -1 28 -7 35 -15 8 -8 32
-23 54 -33 21 -11 69 -36 106 -55 36 -20 92 -43 125 -53 168 -51 227 -72 317
-111 81 -36 173 -70 196 -72 8 -1 51 -10 130 -28 75 -17 75 -17 159 -106 78
-81 94 -93 200 -144 64 -31 130 -57 146 -59 17 -1 57 -6 90 -11 69 -10 139
-11 175 -2 125 30 201 53 295 88 115 43 149 61 176 92 9 10 20 18 23 18 4 0
26 15 49 34 42 34 107 71 107 61 0 -3 17 2 38 9 20 8 75 26 122 40 90 28 204
69 257 92 18 8 51 21 74 30 23 8 47 18 53 23 30 23 245 130 271 135 17 2 41 7
55 10 14 3 41 9 60 13 46 9 50 10 53 12 1 2 12 4 24 7 12 2 41 11 65 19 24 9
47 17 53 18 6 1 10 -30 10 -75 1 -43 4 -80 7 -84 4 -3 22 -1 40 4 18 6 47 13
63 15 17 3 57 12 90 20 33 9 76 18 96 21 20 3 42 8 50 10 8 3 25 8 39 10 14 3
43 10 65 15 22 5 51 12 65 15 88 17 169 40 194 56 29 18 30 18 75 -6 38 -19
124 -42 266 -69 11 -2 63 -14 115 -25 52 -12 118 -25 145 -30 28 -6 74 -16
102 -23 38 -10 55 -11 61 -3 4 6 7 68 7 139 l-1 127 75 1 c42 0 99 1 126 0
259 -1 448 0 485 2 27 2 71 17 110 37 36 19 76 40 90 47 17 9 40 43 67 101 40
83 42 91 39 165 -4 74 -13 102 -48 138 -7 8 -25 32 -41 55 -15 22 -35 49 -45
60 -56 64 -63 82 -51 127 19 67 18 78 -12 157 l-29 75 30 63 29 63 -30 82
c-16 45 -32 89 -36 97 -3 8 -7 17 -8 20 0 3 -5 16 -9 29 -5 13 -4 26 1 30 5 3
18 19 30 34 19 24 21 38 17 100 -2 40 -6 108 -8 151 l-5 79 -90 91 c-112 112
-107 104 -202 286 -13 25 -27 46 -31 48 -3 2 -17 13 -31 25 -14 12 -49 42 -78
67 -67 56 -128 118 -199 199 -30 35 -59 69 -65 75 -24 27 -75 105 -75 115 0 6
-4 11 -8 11 -5 0 -18 17 -30 38 -12 20 -42 64 -67 97 -24 33 -60 83 -79 110
-19 28 -47 64 -61 80 -58 66 -187 204 -257 276 -40 42 -85 91 -98 109 -14 17
-29 37 -35 43 -5 7 -32 41 -60 77 -27 36 -96 109 -152 164 -59 56 -103 107
-103 117 0 11 -4 19 -9 19 -4 0 -26 34 -47 75 -48 93 -59 105 -159 179 -79 58
-146 123 -215 206 -146 177 -201 201 -465 205 -99 2 -191 6 -205 10 -38 10
-347 13 -415 4z"/>
</g>
</svg>
