<svg version="1.1" viewBox="0 0 625.35 549" xmlns="http://www.w3.org/2000/svg" xmlns:xlink="http://www.w3.org/1999/xlink" id="a" overflow="hidden"><defs></defs><rect x="0" y="0" width="625.35" height="549" fill="#009BA7"/><g><g><path d=" M 295.03 166.98 L 293.66 164.32 L 291.67 160.63 L 289.79 157.03 L 287.62 153.3 L 285.15 148.79 L 281.67 146.04 L 273.73 137.09 L 266.45 149.06 L 268.12 155.11 L 268.72 158.93 L 271.07 168.62 L 272.98 171.1 L 272.5 174.63 L 273.74 179.1 L 273.98 187.96 L 283.75 189.33 L 292.38 192.64 L 296.71 184.56 L 300.04 179.23 L 299.1 170.42 L 295.03 166.98 Z" stroke="#051128" stroke-width="2.83" stroke-linecap="round" stroke-linejoin="round" fill="#051128"/><path d=" M 266.01 119.25 L 266.06 122.22 L 266.51 125.33 L 266.79 127.83 L 266.86 133.45 L 271.68 136.73 L 273.73 138.2 L 275.64 139.94 L 284.95 147.31 L 287.76 136.35 L 289 133.55 L 290.72 128.01 L 288.3 123.22 L 286.04 119.67 L 283.64 117.19 L 281.47 115.12 L 279.59 113.11 L 277.14 110.84 L 264.32 99.73 L 265.69 116.46 L 266.01 119.25 Z" stroke="#051128" stroke-width="2.83" stroke-linecap="round" stroke-linejoin="round" fill="#051128"/><path d=" M 266.3 157.34 L 266.3 153.72 L 265.7 147.55 L 262.13 143.59 L 259.84 140.88 L 257.24 138.1 L 252.54 132.67 L 250.11 129.96 L 242.51 120.93 L 236.75 131.57 L 236.39 136.44 L 236.87 140.93 L 237.19 144.97 L 238.06 154.84 L 241.57 159.26 L 243.9 162.14 L 248.24 168.32 L 258.41 181.38 L 264.35 170.97 L 266.81 166.52 L 266.61 161.18 L 266.3 157.34 Z" stroke="#051128" stroke-width="2.83" stroke-linecap="round" stroke-linejoin="round" fill="#051128"/><path d=" M 381.85 117.5 L 379.68 119.56 L 377.99 122.13 L 376.56 123.89 L 374.16 125.17 L 370.32 129.7 L 370.29 125.78 L 357.82 137.17 L 355.7 139.46 L 354.56 141.22 L 352.98 142.6 L 351.38 144.58 L 349.95 145.96 L 348.49 147.33 L 346.38 148.87 L 344.48 150.9 L 342.56 152.78 L 340.86 155.03 L 339.49 157.19 L 338.95 157.86 L 336.03 159.33 L 334.51 162.61 L 333.49 163.74 L 332.35 165.12 L 328.91 167.43 L 329.35 165.33 L 331.46 158.71 L 333.21 155.07 L 334.23 150.91 L 335.79 145.63 L 333.77 140.2 L 332.64 135.99 L 330.9 131.75 L 328.98 128.09 L 328.28 125.32 L 330.91 129.08 L 332.17 131.17 L 333.89 133.52 L 335.12 135.54 L 342.67 145.46 L 347.83 134.76 L 348.79 132.65 L 349.97 130.92 L 351.73 128.49 L 353.28 125.47 L 354.88 121.22 L 354.07 117.13 L 353.41 114.35 L 352.76 111.9 L 352.35 109.53 L 350.76 103.9 L 346.7 91.74 L 338.24 101.52 L 336.17 104.44 L 334.66 106.83 L 332.98 108.76 L 329.72 112.76 L 329.66 117.15 L 329.12 119.49 L 328.17 124.89 L 327.95 124 L 325.87 119.94 L 324.5 116.28 L 322.8 112.4 L 321.55 108.37 L 319.84 104.41 L 313.07 84.47 L 306.68 104.6 L 305.35 108.12 L 303.38 111.99 L 301.91 116.35 L 300.63 119.98 L 298.63 124.08 L 297.66 128.3 L 296.14 131.63 L 294.47 135.82 L 293.2 140.22 L 291.08 145.88 L 293.22 151.3 L 294.41 155.35 L 296.19 159.15 L 297.38 162.52 L 298.44 166.24 L 300.42 171.35 L 303.2 174.73 L 305.66 178.09 L 308.44 180.45 L 314.81 189.6 L 322.32 179.02 L 328.38 169.91 L 328.41 169.79 L 328.55 173.23 L 328.01 176.55 L 328.8 179.71 L 328.7 185.82 L 335.31 187.88 L 339.73 188.06 L 343.03 188.89 L 346.57 187.36 L 348.31 186.79 L 349.49 186.5 L 355.3 186.85 L 357.63 180.55 L 359.31 175.08 L 359.52 172.6 L 360.53 169.02 L 361.88 166.36 L 362.15 163.32 L 362.56 161.68 L 363.12 160.11 L 364.43 157.76 L 365.36 154.18 L 365.43 152.49 L 366.59 150.48 L 366.87 147.47 L 367.58 145.32 L 367.88 143.2 L 369.38 139.4 L 368.63 149.94 L 378.63 147.33 L 382.66 146.16 L 385.93 142.14 L 387.75 139.21 L 389.77 135.71 L 390.67 132.11 L 391.22 129.28 L 392.2 126.33 L 392.68 122.94 L 393.22 109.35 L 381.85 117.5 Z" stroke="#051128" stroke-width="2.83" stroke-linecap="round" stroke-linejoin="round" fill="#051128"/><path d=" M 382.99 166.47 L 370.68 161.13 L 366.87 163.8 L 365.63 168.65 L 364.92 170.89 L 362.7 174.75 L 363.62 187.84 L 373.78 182.91 L 376.08 181.46 L 378.25 180.44 L 384.69 177.09 L 383.3 170.15 L 382.99 166.47 Z" stroke="#051128" stroke-width="2.83" stroke-linecap="round" stroke-linejoin="round" fill="#051128"/></g><path d=" M 394.03 273.56 L 396.37 261.8 L 395.32 250.04 L 396.24 238.28 L 396.05 226.52 L 394.98 214.77 L 396.18 203.02 L 395.9 191.27 L 395.82 179.51 L 395.73 167.75 L 395.7 156 L 394.89 153.89 L 395.13 142.13 L 394.97 132.51 C 394.95 131.48 394.14 130.66 393.14 130.67 L 383.77 130.71 L 372.33 130.65 L 360.89 131.39 L 349.45 129.7 L 338.01 129.33 L 326.57 130.15 L 315.13 129.94 L 303.69 131.15 L 292.25 131.52 L 280.81 129.74 L 269.37 131.43 L 257.93 129.73 L 246.49 131.54 L 236.61 130.16 C 235.52 130.01 234.54 130.87 234.52 132 L 234.37 142.14 L 235.02 153.9 L 234.89 156.01 L 234.87 167.77 L 235.2 179.53 L 235.36 191.29 L 235 203.04 L 234.1 214.79 L 236.01 226.54 L 235.63 238.3 L 236.02 250.06 L 233.91 261.81 L 236.11 273.56 L 234.76 285.32 L 236.19 296.6 L 243.44 304.3 L 249.06 311.8 L 259.73 319.7 L 266.95 327.76 L 276.58 329 L 272.06 331.79 L 283.2 340.78 L 287.72 347.28 L 294.94 350.07 L 294.94 354.72 L 301.2 365.35 L 301.2 365.35 L 304.23 368.66 L 310.12 374.23 C 311.58 375.61 313.83 375.62 315.3 374.24 L 321.45 368.47 L 329.42 360.28 L 338.26 353.06 C 339.99 351.09 341.6 342.32 341.6 342.32 L 341.6 330.23 L 344.31 338.6 L 349.5 340.89 L 354.01 336.5 L 362.18 328.54 L 370.39 320.63 L 370.39 309.48 L 374.72 302.97 L 373.21 310.41 L 376.22 314.28 C 376.22 314.28 376.25 314.71 376.29 315.45 L 378.95 313.12 L 386.46 304.43 L 395.38 297.17 L 393.96 285.34 L 394 273.57 Z" fill="#051128"/><path d=" M 228.1 142.58 C 228.13 141.94 227.67 141.38 227.04 141.28 L 227.04 141.28 L 225.88 141.15 L 224.35 141.22 L 222.83 141.5 L 221.48 142.24 L 220.16 142.97 L 218.89 143.81 L 217.74 144.82 L 216.86 146.08 L 216.05 147.39 L 215.53 148.84 L 215.38 150.37 L 215.29 151.88 L 215.21 153.42 L 215.51 154.93 L 216.2 156.31 L 216.79 157.73 L 217.79 158.89 L 218.8 160.05 L 220.12 160.84 L 221.43 161.62 L 222.88 162.08 L 224.37 162.37 L 225.88 162.64 L 227.04 162.52 L 227.23 162.49 C 227.79 162.39 228.21 161.94 228.27 161.38 L 228.32 160.84 L 228.17 159.35 L 228.12 157.86 L 228.28 156.37 L 228.2 154.88 L 228.24 153.39 L 228.08 151.9 L 228.08 150.41 L 228.24 148.92 L 228.15 147.43 L 228.15 144.45 L 228.08 142.96 L 228.1 142.6 Z" fill="#051128"/><path d=" M 400.83 161.22 C 400.8 161.86 401.26 162.42 401.89 162.52 L 401.89 162.52 L 403.05 162.65 L 404.58 162.58 L 406.1 162.3 L 407.45 161.56 L 408.77 160.83 L 410.04 159.99 L 411.19 158.98 L 412.07 157.72 L 412.88 156.41 L 413.4 154.96 L 413.55 153.43 L 413.64 151.92 L 413.72 150.38 L 413.42 148.87 L 412.73 147.49 L 412.14 146.07 L 411.14 144.91 L 410.13 143.75 L 408.81 142.96 L 407.5 142.18 L 406.05 141.72 L 404.56 141.43 L 403.05 141.16 L 401.89 141.28 L 401.7 141.31 C 401.14 141.41 400.72 141.86 400.66 142.42 L 400.61 142.96 L 400.76 144.45 L 400.81 145.94 L 400.65 147.43 L 400.73 148.92 L 400.69 150.41 L 400.85 151.9 L 400.85 153.39 L 400.69 154.88 L 400.78 156.37 L 400.78 159.35 L 400.85 160.84 L 400.83 161.2 Z" fill="#051128"/><path d=" M 417.77 282.71 L 418.47 279.68 L 417 275.71 L 418.47 272.67 L 416.2 266.5 L 417.72 264.6 L 417.26 257.04 L 412.57 252.42 L 409.32 246.59 L 404.26 242.28 L 399.88 237.39 L 396.18 231.94 L 392.36 226.59 L 387.97 221.72 L 383.4 217 L 379.41 211.79 L 374.65 207.22 L 371.36 201.43 L 366.02 197.34 L 362.04 192.67 C 361.86 192.45 361.66 192.25 361.46 192.05 L 361.46 192.05 C 359.42 190.03 356.6 188.99 353.73 189.19 L 350.72 189.4 L 343.29 188.59 L 339.32 188.64 C 336.98 188.67 334.66 189.05 332.43 189.78 L 328.61 191.03 L 326.14 191.55 C 322.96 192.22 320.28 192.83 317.51 194.53 L 314.1 196.13 L 310.88 194.53 C 308.29 192.97 306.02 192.77 303.07 192.09 L 300.32 191.46 L 298.28 190.74 C 294.94 189.56 291.37 189.15 287.85 189.53 L 285.69 189.77 L 282.14 189.18 C 279.58 188.75 276.96 188.75 274.39 189.16 L 270.89 189.73 L 266.32 191.57 L 262.98 197.32 L 258.46 202.09 L 254.67 207.47 L 249.59 211.77 L 244.94 216.42 L 240.9 221.58 L 237.34 227.15 L 233.19 232.22 L 228.81 237.11 L 224.59 242.14 L 219.77 246.66 L 216.65 252.6 L 211.33 256.7 L 211.36 264.58 L 212.84 266.67 L 211.41 272.67 L 212.74 275.75 L 211.37 279.71 L 212.06 283.02 L 206.58 289.1 L 206.58 293.13 L 209.17 297.28 L 213.37 299.39 L 220.68 298.71 L 228.03 300.08 L 235.33 299.06 L 242.66 299.32 L 248.83 298.54 L 254.94 299.51 L 261 300.57 L 266.95 302.11 L 273.05 303.28 L 279.12 306.58 L 285.66 308.57 L 291.96 311.25 L 298.75 312.76 L 303.09 317.3 L 308.71 320 L 314.82 320.76 L 320.68 319.27 L 326.41 317.14 L 331.26 313.47 L 338.33 311.29 L 345.27 308.63 L 351.9 305.09 L 359.22 303.46 L 365.09 300.43 L 371.68 300.15 L 378.09 299.31 L 384.56 299.02 L 390.88 299.97 L 397.22 299.97 L 403.56 299.87 L 409.9 300.1 L 416.25 299.78 L 420.58 297.42 L 422.73 293.15 L 422.54 289.12 L 417.77 282.77 Z" fill="#051128"/><path d=" M 359.06 197.64 L 364.6 205.19 L 365.57 207.19 L 366.73 209.07 L 368.54 210.4 L 369.88 212.13 L 370.9 214.14 L 372.5 215.65 L 382.43 227.26 L 384.08 228.75 L 384.97 230.82 L 386.73 232.22 L 387.73 234.25 L 389.72 235.4 L 390.86 237.32 L 392.19 239.07 L 393.96 240.42 L 395.63 241.87 L 396.62 243.88 L 399.54 247.16 L 400.57 249.15 L 404.99 253.99 L 406.9 255.24 L 408.13 257.07 L 409.58 258.74 L 410.97 260.47 L 411.92 262.16 L 402.68 260.39 L 400.32 259.89 L 397.88 259.92 L 386.04 257.89 L 383.6 257.95 L 381.49 257.45 L 375.1 256.57 L 372.96 256.2 L 370.8 256.32 L 368.64 255.83 L 366.48 255.79 L 364.34 256.35 L 362.15 256.09 L 360.06 256.9 L 349.5 258.95 L 347.31 259.03 L 345.09 259.09 L 343.22 260.32 L 341.04 260.68 L 339.16 261.83 L 329.26 265.77 L 327.36 266.66 L 325.3 267.24 L 323.35 268.15 L 321.69 269.61 L 319.71 270.46 L 317.61 271.68 L 318.03 269.04 L 317.55 266.61 L 318.24 264.22 L 317.92 252.55 L 317.99 250.22 L 318.07 247.88 L 317.87 245.55 L 317.52 243.22 L 318.27 240.9 L 317.82 236.22 L 317.6 229.22 L 317.7 226.88 L 317.67 224.52 L 318.2 222.22 L 318.01 219.88 L 317.92 217.55 L 317.85 212.9 L 317.94 208.21 L 317.51 205.88 L 318.28 203.55 L 318.06 201.3 L 319.7 200.89 L 321.36 200.06 L 323.24 200.1 L 332.12 197.7 L 334.45 197.73 L 336.65 196.76 L 338.97 196.86 L 341.23 196.25 L 343.54 196.07 L 350.48 196.11 L 352.71 196.84 L 355.01 197.11 L 357.34 197.21 L 359.06 197.64 Z" fill="#F9B453"/><path d=" M 271.53 196.96 L 270.76 199.07 L 268.66 200.14 L 266.29 203.88 L 264.32 205.05 L 263.39 207.13 L 261.93 208.76 L 257.92 213.96 L 256.45 215.58 L 254.97 217.18 L 253.67 218.97 L 251.71 220.11 L 250.13 221.66 L 248.8 223.42 L 247.5 225.18 L 246.19 226.94 L 245.09 228.87 L 240.38 233.52 L 239.7 235.71 L 238.36 237.48 L 236.56 238.8 L 234.96 240.3 L 233.89 242.29 L 232.12 243.68 L 231.01 245.58 L 229.87 247.48 L 228.24 248.97 L 226.96 250.77 L 226.54 253.02 L 219.49 258.67 L 218.46 260.54 L 217.3 262.01 L 219.38 261.66 L 231.16 260.03 L 233.5 259.48 L 235.8 258.73 L 238.26 258.84 L 240.55 257.79 L 242.96 257.66 L 253.9 256.45 L 256.07 256.73 L 258.21 256.17 L 260.37 256.2 L 262.55 256.7 L 264.69 256.43 L 266.83 256.62 L 268.99 256.78 L 279.47 259.05 L 281.66 259.19 L 283.61 260.26 L 285.84 260.25 L 287.78 261.37 L 291.84 262.6 L 295.78 264.39 L 305.25 268.82 L 307.31 269.22 L 309.17 270.1 L 311.13 271.15 L 311.84 268.64 L 311.01 261.9 L 311.44 259.53 L 310.84 257.22 L 311.41 247.87 L 310.84 245.56 L 310.89 243.22 L 311.28 240.91 L 311.05 238.54 L 311.84 236.23 L 311.27 233.89 L 311.05 224.55 L 310.84 222.22 L 311.01 219.88 L 310.69 217.55 L 311.06 210.53 L 311.72 208.21 L 311.21 201.09 L 309.14 199.2 L 307.23 198.42 L 304.4 198.99 L 301.39 198.69 L 299.25 197.73 L 296.88 197.76 L 294.7 196.88 L 285.45 196.12 L 283.16 196.86 L 273.91 196.25 L 271.6 196.77 L 271.53 196.96 Z" fill="#F9B453"/><path d=" M 221.51 269 L 224.24 268.25 L 230.83 266.67 L 237.59 266.14 L 244.23 264.9 L 250.85 263.47 L 257.66 263.54 L 264.44 263.67 L 271.14 264.73 L 277.74 266.27 L 284.26 268.24 L 290.04 270.52 L 295.61 273.31 L 301.61 275.05 L 307.14 277.71 L 287.78 274.32 L 281.23 271.79 L 275.19 270.09 L 269.15 268.41 L 263 267.09 L 256.73 266.52 L 250.44 266.94 L 243.85 267.14 L 237.31 268.19 L 230.68 267.99 L 224.13 268.72 L 221.51 269 Z" fill="#BF5537"/><path d=" M 221.76 279.91 L 223.67 278.12 L 230.88 278.67 L 237.55 278.01 L 244.21 277.22 L 250.9 276.71 L 257.66 275.93 L 264.48 276.09 L 271.26 276.93 L 277.82 278.81 L 284.27 281.05 L 288.13 285.77 L 295.83 285.6 L 301.62 287.84 L 305.81 291.56 L 307.36 295.26 L 300.8 292.4 L 294.13 290.18 L 287.78 286.32 L 281.14 284.82 L 275.25 282.71 L 269.22 280.92 L 262.98 280.15 L 256.71 279.84 L 250.43 279.72 L 243.88 280.36 L 237.5 279.33 L 231.14 279.58 L 223.59 281.56 L 221.76 279.91 Z" fill="#9B503A"/><path d=" M 405.92 269.76 L 404.96 269.55 L 398.32 268.33 L 391.59 267.6 L 384.91 266.56 L 378.32 264.95 L 371.48 265.11 L 365.97 266.94 L 357.92 265.96 L 351.42 267.99 L 345.02 270.25 L 339.22 272.49 L 334.43 278.33 L 328.26 278.21 L 324.46 280.45 L 321.77 284.14 L 328.94 282.59 L 334.89 278.72 L 341.32 275.89 L 348.05 273.8 L 353.97 271.83 L 359.93 269.79 L 366.04 267.58 L 372.42 268.25 L 378.68 268.94 L 385.29 268.86 L 391.84 269.8 L 398.42 270.24 L 405.03 270.21 L 405.92 269.76 Z" fill="#BF5537"/><path d=" M 407.17 279.78 L 405.17 277.59 L 398.67 279.34 L 391.98 278.93 L 385.35 277.86 L 378.69 277.09 L 371.89 276.83 L 365.07 276.88 L 358.29 277.69 L 351.77 279.74 L 347.64 283.05 L 339.52 284.12 L 333.77 286.48 L 328.01 288.82 L 324.23 292.52 L 322.26 295.8 L 328.85 293.42 L 335.4 290.89 L 341.75 287.85 L 347.99 283.68 L 354.25 283.3 L 360.4 282.04 L 366.57 280.9 L 372.84 280.68 L 379.12 280.4 L 385.68 280.66 L 391.95 280.08 L 398.21 280.34 L 405.81 282.66 L 407.17 279.78 Z" fill="#9B503A"/><path d=" M 354.37 291.87 L 347.05 293.69 L 339.92 296.01 L 332.93 298.76 L 326.22 302.12 L 318.96 307.29 L 314.81 307.31 L 310.9 306.97 L 304.64 302.09 L 297.24 299.12 L 290.81 296.71 L 284.17 294.84 L 277.73 292.45 L 271.27 290.05 L 264.36 289.45 L 257.72 287.61 L 250.83 287.66 L 244 287.66 L 237.82 287.03 L 231.69 287.79 L 225.52 287.53 L 218.66 287.23 L 213.38 289.94 L 214.23 291.48 L 220.53 291.46 L 227.87 292.47 L 235.18 291.99 L 242.49 291.57 L 249.12 291.61 L 255.82 291.43 L 262.31 293.07 L 268.87 294.26 L 275.22 296.31 L 281.76 299.05 L 288.2 302.04 L 295.15 303.66 L 302.91 305.59 L 309.63 311.85 L 314.81 313.15 L 319.39 312.28 L 327.56 305.59 L 333.51 303.74 L 339.6 302.49 L 345.52 300.77 L 351.11 298.13 L 357.11 296.65 L 363.55 293.54 L 370.52 292.03 L 377.6 291.29 L 384.69 292.25 L 391.05 291.33 L 397.4 291.18 L 403.73 291.57 L 410.59 293.38 L 415.83 291.93 L 416.4 289.94 L 413.22 288.36 L 409.74 288.24 L 403.09 287.88 L 396.45 287.31 L 389.81 286.71 L 383.14 286.59 L 375.73 286.32 L 368.48 287.95 L 361.09 288.64 L 354.37 291.87 Z" fill="#005A8A"/><path d=" M 273.35 205.99 L 275.15 205.27 L 280.05 205.99 L 284.18 205.14 L 290.17 205.56 L 295.3 208.67 L 298.58 208.82 L 302.71 207.69 L 304 208.82 L 303.28 210.79 L 299.01 209.95 L 295.3 209.81 L 291.74 210.23 L 288.08 208.68 L 281.44 208.99 L 273.91 207.83 L 273.35 205.99 Z" fill="#051128"/><path d=" M 264.65 216.7 L 268.42 215.96 L 273.64 216.55 L 279.26 216.75 L 282.71 218.45 L 289.37 220.96 L 292.08 221.05 L 298.1 219.59 L 301.32 219.43 L 303.81 220.49 L 304.07 221.78 L 301.43 223.99 L 298.02 223.85 L 291.92 222.33 L 289.11 222.18 L 283.25 222.03 L 278.12 221.26 L 272.56 219.85 L 267.3 219.59 L 263.5 219.68 L 262 218.37 L 264.65 216.7 Z" fill="#051128"/><path d=" M 254.73 231.25 L 258.19 230.22 L 267.22 230.51 L 274.28 231.21 L 281.22 234.14 L 281.17 234.93 L 272.52 235.62 L 266.75 234.22 L 260.13 233.28 L 255.99 233.2 L 254.73 231.25 Z" fill="#051128"/><path d=" M 302.91 250.61 L 294.28 246.51 L 286.51 244.95 L 279.58 245.8 L 275.47 246.51 L 267.84 246.09 L 260.91 243.54 L 252.56 241.84 L 245.77 241.84 L 240.96 244.67 L 239.55 248.21 L 242.52 248.77 L 252 246.23 L 260.2 247.64 L 264.32 249.06 L 273.35 247.64 L 276.89 247.92 L 282.55 250.61 L 294.14 251.88 L 299.09 253.72 L 302.91 253.02 L 302.91 250.61 Z" fill="#051128"/><path d=" M 355.13 205.99 L 353.33 205.27 L 348.43 205.99 L 344.3 205.14 L 338.31 205.56 L 332.76 206.73 L 329.56 207.96 L 325.77 207.69 L 325.27 209.43 L 326.33 210.28 L 329.48 209.95 L 333.18 209.81 L 336.75 210.23 L 340.4 208.68 L 347.04 208.99 L 354.57 207.83 L 355.13 205.99 Z" fill="#051128"/><path d=" M 363.84 216.7 L 360.06 215.96 L 354.84 216.55 L 349.23 216.75 L 345.78 218.45 L 339.11 220.96 L 336.41 221.05 L 330.38 219.59 L 327.17 219.43 L 324.68 220.49 L 324.41 221.78 L 327.05 223.99 L 330.47 223.85 L 336.57 222.33 L 339.38 222.18 L 345.24 222.03 L 350.36 221.26 L 355.92 219.85 L 361.19 219.59 L 364.99 219.68 L 366.48 218.37 L 363.84 216.7 Z" fill="#051128"/><path d=" M 373.76 231.25 L 370.29 230.22 L 361.27 230.51 L 354.2 231.21 L 347.26 234.14 L 347.31 234.93 L 355.96 235.62 L 361.73 234.22 L 368.36 233.28 L 372.5 233.2 L 373.76 231.25 Z" fill="#051128"/><path d=" M 327.14 234.85 L 329.69 233.27 L 336.83 232.2 L 342.49 231.86 L 348.42 233.81 L 348.51 234.64 L 341.83 236.65 L 337.07 236.09 L 331.71 236.12 L 328.45 236.67 L 327.14 234.85 Z" fill="#051128"/><path d=" M 325.57 250.61 L 334.2 246.51 L 341.98 244.95 L 348.91 245.8 L 353.01 246.51 L 360.65 246.09 L 367.58 243.54 L 375.92 241.84 L 382.71 241.84 L 387.52 244.67 L 388.94 248.21 L 385.97 248.77 L 376.49 246.23 L 368.29 247.64 L 364.16 249.06 L 355.13 247.64 L 351.6 247.92 L 345.94 250.61 L 334.34 251.88 L 329.39 253.72 L 325.57 253.02 L 325.57 250.61 Z" fill="#051128"/><g><path d=" M 365.1 291.94 L 367.33 286.17 L 367.33 281.66 L 366.6 269.94 L 378.71 271.53 L 384.69 271.09 L 393.26 273.08 L 394.31 284.99 L 393.55 291.6 L 393.55 301.62 L 382.76 299.3 L 379.33 297.28 L 376.11 299.2 L 365.1 301.67 L 365.1 291.94 Z" fill="#E7344B"/><path d=" M 371.16 274.83 L 378.59 275.81 L 384.35 275.38 L 389.29 276.53 L 390.03 284.95 L 389.29 291.37 L 389.29 296.38 L 384.33 295.31 L 379.32 292.35 L 374.51 295.22 L 369.35 296.38 L 369.35 292.75 L 371.58 286.98 L 371.58 281.54 L 371.16 274.84 M 362.03 265.06 L 362.67 275.37 L 363.07 281.81 L 363.07 285.39 L 361.41 289.68 L 360.84 291.16 L 360.84 307 L 371.21 304.67 L 376.37 303.51 L 377.7 303.21 L 378.87 302.51 L 379.34 302.23 L 380.01 302.62 L 381.2 303.32 L 382.55 303.61 L 387.51 304.68 L 397.8 306.9 L 397.8 291.85 L 398.49 285.92 L 398.59 285.06 L 398.51 284.2 L 397.77 275.78 L 397.23 269.64 L 391.22 268.25 L 386.28 267.1 L 385.02 266.81 L 383.73 266.91 L 378.84 267.28 L 372.28 266.42 L 362.04 265.07 L 362.04 265.07 Z" fill="#051128"/></g><path d=" M 314.95 180.66 L 317.85 176.58 L 320.51 172.56 L 323.21 168.51 L 324.02 164.71 L 325.18 161.07 L 326.33 157.44 L 328 153.98 L 328.91 150.26 L 329.98 146.65 L 328.52 142.72 L 327.42 138.61 L 325.81 134.7 L 323.81 130.94 L 322.76 126.81 L 320.83 123.02 L 319.35 119.06 L 317.64 115.19 L 316.38 111.13 L 314.7 107.25 L 313.35 103.28 L 312.09 107.26 L 310.59 111.21 L 308.67 114.99 L 307.32 118.99 L 305.92 122.97 L 304.06 126.78 L 303.1 130.93 L 301.35 134.78 L 299.79 138.7 L 298.64 142.78 L 297.2 146.64 L 298.63 150.29 L 299.78 154.17 L 301.49 157.83 L 302.83 161.63 L 303.94 165.53 L 305.42 169.29 L 307.74 172.1 L 309.9 175.06 L 312.73 177.46 L 314.95 180.66 Z" fill="#005A8A"/><path d=" M 294.36 178.72 L 291.95 182.56 L 289.87 186.44 L 285.26 184.67 L 279.57 183.87 L 279.44 179.07 L 278.32 175.06 L 278.95 170.36 L 276.35 166.96 L 275.37 162.91 L 274.36 158.87 L 273.71 154.74 L 272.61 150.72 L 274.68 147.31 L 277.9 150.95 L 280.88 153.3 L 282.83 156.88 L 284.92 160.43 L 286.81 164.08 L 288.77 167.69 L 290.64 171.35 L 293.86 174.07 L 294.36 178.72 Z" fill="#005A8A"/><path d=" M 363.28 140.63 L 361.8 142.05 L 360.26 143.73 L 358.94 145.75 L 357.13 147.32 L 355.63 149.19 L 353.92 150.84 L 352.18 152.47 L 350.23 153.9 L 348.6 155.64 L 346.89 157.32 L 345.44 159.23 L 344.16 161.28 L 342.64 163.14 L 340.4 164.28 L 339.35 166.55 L 337.75 168.32 L 336.27 170.13 L 334.16 171.55 L 334.28 174.38 L 333.83 177.12 L 334.52 179.88 L 334.48 182.53 L 336.37 183.12 L 338.47 183.2 L 340.65 183.29 L 342.65 183.8 L 344.67 182.92 L 346.86 182.2 L 349.09 181.65 L 351.58 181.81 L 352.47 179.42 L 353.17 177.12 L 353.87 174.83 L 354.08 172.39 L 354.73 170.09 L 355.38 167.79 L 356.48 165.6 L 356.7 163.19 L 357.29 160.87 L 358.09 158.61 L 359.27 156.47 L 359.88 154.15 L 359.99 151.69 L 361.22 149.55 L 361.44 147.12 L 362.2 144.85 L 362.52 142.57 L 363.28 140.63 Z" fill="#00305D"/><path d=" M 344.6 103.68 L 345.46 106.26 L 346.19 108.79 L 346.92 111.32 L 347.38 113.92 L 348.05 116.46 L 348.66 119.03 L 349.16 121.56 L 348.24 124 L 347.03 126.36 L 345.47 128.51 L 343.98 130.71 L 342.88 133.13 L 341.68 135.62 L 340.02 133.44 L 338.65 131.2 L 337.08 129.09 L 335.72 126.83 L 334.16 124.6 L 334.69 121.57 L 335.37 118.64 L 335.41 115.6 L 337.31 113.26 L 339.28 111 L 340.88 108.46 L 342.59 106.01 L 344.6 103.68 Z" fill="#F9B453"/><path d=" M 281.29 124.36 L 282.95 126.94 L 284.35 129.69 L 283.4 132.75 L 282.1 135.68 L 281.32 138.74 L 279.08 136.97 L 276.93 135.01 L 274.56 133.31 L 272.1 131.63 L 272.06 128.67 L 271.75 125.8 L 271.33 122.95 L 271.28 120.05 L 270.94 117.18 L 270.7 114.16 L 273.01 116.16 L 275.15 118.13 L 277.15 120.26 L 279.27 122.26 L 281.29 124.36 Z" fill="#009BA7"/><path d=" M 242.36 134 L 242.13 137.16 L 242.56 141.22 L 242.89 145.3 L 243.24 149.37 L 243.61 153.48 L 246.04 156.54 L 248.48 159.57 L 250.72 162.74 L 252.95 165.93 L 255.34 168.99 L 257.79 172.14 L 259.58 169 L 261.24 165.99 L 261.1 162.21 L 260.79 158.38 L 260.79 154.53 L 260.41 150.76 L 258.01 148.1 L 255.66 145.32 L 253.17 142.67 L 250.79 139.91 L 248.4 137.16 L 245.97 134.45 L 243.63 131.67 L 242.36 134 Z" fill="#BF5537"/><path d=" M 387.66 120.18 L 386.08 122.13 L 384.12 124 L 382.62 126.27 L 380.92 128.36 L 379.11 130.36 L 377.06 132.16 L 375.53 134.37 L 375.35 137.29 L 375.1 140.24 L 374.88 143.35 L 377.32 142.72 L 379.51 142.08 L 381.45 139.69 L 383.09 137.06 L 384.62 134.4 L 385.32 131.57 L 385.88 128.68 L 386.82 125.86 L 387.23 122.93 L 387.66 120.18 Z" fill="#009BA7"/><path d=" M 368.74 179.98 L 368.52 176.88 L 370.19 173.98 L 371.13 171.01 L 371.9 168.01 L 373.87 166.62 L 376.11 165.14 L 377.57 168.64 L 377.84 171.76 L 378.46 174.88 L 375.97 176.17 L 373.48 177.34 L 371.15 178.81 L 368.74 179.98 Z" fill="#009BA7"/><path d=" M 196.07 223.23 C 196.06 223.61 196.02 224.05 195.96 224.53 C 195.9 225.02 195.8 225.5 195.68 225.98 C 195.56 226.47 195.4 226.93 195.19 227.37 C 194.99 227.81 194.73 228.16 194.42 228.43 C 194.29 228.54 194.17 228.67 194.07 228.79 C 193.97 228.91 193.85 229.05 193.73 229.19 C 193.69 229.23 193.66 229.27 193.63 229.3 C 193.6 229.34 193.56 229.37 193.51 229.4 C 193.29 229.48 193.08 229.56 192.87 229.66 C 192.66 229.76 192.45 229.84 192.24 229.92 C 192.03 230 191.81 230.06 191.59 230.1 C 191.37 230.14 191.13 230.16 190.89 230.15 C 190.52 230.14 190.16 230.09 189.81 230 C 189.46 229.91 189.11 229.8 188.77 229.67 C 188.5 229.58 188.25 229.45 188.02 229.27 C 187.79 229.09 187.6 228.87 187.45 228.62 C 187.42 228.59 187.41 228.57 187.39 228.53 C 187.37 228.49 187.36 228.47 187.33 228.44 C 186.92 227.96 186.6 227.44 186.37 226.88 C 186.14 226.33 185.97 225.73 185.87 225.09 C 185.77 224.35 185.73 223.62 185.75 222.89 C 185.77 222.16 185.85 221.44 185.99 220.71 C 186.05 220.34 186.16 219.97 186.32 219.61 C 186.47 219.25 186.65 218.9 186.84 218.57 C 187.06 218.2 187.32 217.88 187.62 217.59 C 187.93 217.31 188.26 217.07 188.63 216.88 C 188.99 216.69 189.38 216.54 189.79 216.45 C 190.2 216.36 190.61 216.31 191.03 216.31 C 191.59 216.31 192.12 216.42 192.61 216.63 C 193.1 216.84 193.55 217.12 193.95 217.48 C 194.35 217.84 194.7 218.25 194.98 218.71 C 195.27 219.18 195.49 219.67 195.64 220.19 C 195.74 220.55 195.82 220.9 195.88 221.25 C 195.94 221.6 196 221.95 196.06 222.31 C 196.09 222.46 196.09 222.62 196.09 222.77 C 196.09 222.92 196.08 223.07 196.08 223.21 Z M 189.56 223.13 C 189.56 223.59 189.59 224.05 189.65 224.5 C 189.71 224.95 189.79 225.4 189.89 225.85 C 189.92 225.95 189.96 226.07 190.01 226.19 C 190.06 226.31 190.14 226.44 190.22 226.55 C 190.3 226.66 190.4 226.76 190.51 226.84 C 190.62 226.92 190.73 226.95 190.85 226.95 C 190.97 226.95 191.07 226.91 191.18 226.84 C 191.28 226.76 191.38 226.67 191.47 226.55 C 191.56 226.43 191.63 226.31 191.69 226.19 C 191.75 226.07 191.8 225.95 191.83 225.86 C 192.01 225.41 192.11 224.96 192.15 224.5 C 192.18 224.04 192.2 223.59 192.22 223.14 C 192.22 222.92 192.21 222.66 192.18 222.34 C 192.15 222.02 192.11 221.7 192.05 221.37 C 191.99 221.04 191.9 220.74 191.8 220.45 C 191.7 220.16 191.56 219.94 191.4 219.77 C 191.25 219.59 191.09 219.5 190.94 219.5 C 190.81 219.5 190.66 219.59 190.48 219.77 C 190.38 219.87 190.3 219.98 190.23 220.1 C 190.17 220.21 190.1 220.34 190.04 220.48 C 189.89 220.9 189.77 221.33 189.69 221.77 C 189.61 222.21 189.57 222.66 189.58 223.12 Z" fill="#051128"/><path d=" M 450.24 209.62 C 450.42 209.99 450.61 210.42 450.79 210.91 C 450.98 211.4 451.14 211.9 451.27 212.42 C 451.4 212.94 451.48 213.46 451.51 213.98 C 451.54 214.5 451.48 214.96 451.33 215.37 C 451.27 215.54 451.22 215.72 451.18 215.89 C 451.14 216.06 451.1 216.25 451.07 216.44 C 451.05 216.5 451.04 216.55 451.03 216.6 C 451.02 216.65 451 216.7 450.96 216.75 C 450.79 216.93 450.64 217.12 450.49 217.32 C 450.34 217.52 450.18 217.71 450.03 217.88 C 449.87 218.06 449.7 218.23 449.51 218.38 C 449.32 218.54 449.11 218.67 448.87 218.78 C 448.51 218.96 448.15 219.09 447.77 219.18 C 447.39 219.27 447.01 219.35 446.62 219.4 C 446.32 219.45 446.02 219.45 445.71 219.4 C 445.4 219.35 445.11 219.24 444.84 219.08 C 444.8 219.07 444.77 219.05 444.74 219.03 C 444.71 219.01 444.68 218.99 444.64 218.98 C 444.01 218.73 443.44 218.4 442.94 217.99 C 442.44 217.58 441.98 217.1 441.56 216.55 C 441.09 215.9 440.68 215.23 440.32 214.54 C 439.97 213.84 439.67 213.12 439.44 212.36 C 439.31 211.98 439.23 211.58 439.19 211.16 C 439.15 210.74 439.14 210.32 439.15 209.91 C 439.17 209.45 439.25 209.01 439.39 208.59 C 439.54 208.17 439.73 207.78 439.98 207.41 C 440.23 207.04 440.52 206.71 440.85 206.42 C 441.18 206.13 441.55 205.87 441.95 205.65 C 442.48 205.36 443.03 205.2 443.6 205.15 C 444.17 205.1 444.74 205.15 445.3 205.27 C 445.86 205.4 446.4 205.62 446.9 205.91 C 447.41 206.2 447.87 206.56 448.28 206.97 C 448.56 207.26 448.81 207.55 449.05 207.85 C 449.29 208.15 449.52 208.46 449.76 208.76 C 449.86 208.89 449.95 209.03 450.02 209.18 C 450.09 209.33 450.16 209.47 450.23 209.6 Z M 444.05 212.84 C 444.28 213.27 444.54 213.69 444.83 214.09 C 445.11 214.49 445.42 214.87 445.74 215.24 C 445.82 215.32 445.91 215.41 446.03 215.5 C 446.15 215.59 446.28 215.67 446.41 215.74 C 446.54 215.81 446.69 215.85 446.83 215.87 C 446.97 215.89 447.1 215.87 447.2 215.81 C 447.3 215.75 447.39 215.66 447.45 215.54 C 447.51 215.42 447.55 215.28 447.58 215.12 C 447.61 214.96 447.61 214.81 447.6 214.67 C 447.59 214.53 447.58 214.39 447.57 214.29 C 447.51 213.78 447.38 213.3 447.18 212.85 C 446.98 212.4 446.77 211.96 446.55 211.53 C 446.44 211.33 446.29 211.08 446.11 210.79 C 445.93 210.5 445.72 210.22 445.49 209.95 C 445.26 209.68 445.03 209.43 444.79 209.21 C 444.55 208.99 444.31 208.85 444.07 208.77 C 443.83 208.68 443.64 208.67 443.5 208.75 C 443.38 208.82 443.28 208.98 443.2 209.24 C 443.16 209.39 443.13 209.53 443.13 209.67 C 443.13 209.81 443.13 209.96 443.14 210.13 C 443.21 210.61 443.32 211.07 443.46 211.53 C 443.6 211.99 443.8 212.43 444.05 212.86 Z" fill="#051128"/><path d=" M 421.49 185.49 C 421.48 185.9 421.44 186.37 421.37 186.89 C 421.3 187.41 421.2 187.93 421.07 188.45 C 420.94 188.97 420.77 189.47 420.55 189.94 C 420.33 190.41 420.06 190.79 419.73 191.08 C 419.59 191.2 419.47 191.33 419.35 191.47 C 419.23 191.61 419.11 191.75 418.99 191.9 C 418.95 191.94 418.91 191.98 418.88 192.02 C 418.85 192.06 418.8 192.1 418.75 192.12 C 418.52 192.2 418.29 192.29 418.06 192.4 C 417.83 192.5 417.61 192.59 417.38 192.68 C 417.15 192.76 416.92 192.83 416.68 192.87 C 416.44 192.92 416.19 192.94 415.93 192.92 C 415.53 192.91 415.15 192.85 414.77 192.76 C 414.39 192.66 414.02 192.55 413.65 192.41 C 413.36 192.31 413.1 192.17 412.85 191.98 C 412.6 191.79 412.4 191.56 412.23 191.28 C 412.2 191.25 412.18 191.22 412.17 191.19 C 412.16 191.16 412.14 191.12 412.11 191.1 C 411.67 190.58 411.33 190.02 411.08 189.43 C 410.83 188.84 410.66 188.2 410.55 187.51 C 410.44 186.72 410.4 185.93 410.42 185.15 C 410.44 184.37 410.53 183.59 410.68 182.81 C 410.75 182.41 410.86 182.02 411.03 181.63 C 411.19 181.24 411.38 180.87 411.58 180.51 C 411.81 180.11 412.09 179.77 412.42 179.46 C 412.75 179.16 413.11 178.91 413.5 178.7 C 413.89 178.49 414.3 178.34 414.74 178.24 C 415.18 178.14 415.62 178.09 416.07 178.09 C 416.67 178.09 417.24 178.2 417.76 178.43 C 418.28 178.66 418.77 178.96 419.2 179.34 C 419.63 179.72 420 180.16 420.31 180.66 C 420.62 181.16 420.85 181.69 421.02 182.25 C 421.13 182.63 421.21 183.01 421.28 183.39 C 421.35 183.77 421.41 184.15 421.48 184.53 C 421.51 184.69 421.52 184.86 421.51 185.02 C 421.51 185.18 421.5 185.34 421.5 185.49 Z M 414.51 185.39 C 414.51 185.88 414.54 186.37 414.6 186.86 C 414.66 187.35 414.75 187.83 414.86 188.31 C 414.89 188.42 414.93 188.54 414.99 188.68 C 415.05 188.82 415.13 188.95 415.22 189.07 C 415.31 189.19 415.41 189.3 415.53 189.38 C 415.65 189.46 415.77 189.5 415.89 189.5 C 416.01 189.5 416.13 189.46 416.24 189.38 C 416.35 189.3 416.45 189.2 416.55 189.07 C 416.65 188.94 416.72 188.82 416.79 188.68 C 416.86 188.54 416.9 188.43 416.94 188.33 C 417.13 187.85 417.24 187.37 417.28 186.87 C 417.31 186.38 417.34 185.89 417.35 185.41 C 417.35 185.18 417.34 184.89 417.31 184.55 C 417.28 184.21 417.23 183.86 417.17 183.51 C 417.1 183.16 417.01 182.83 416.9 182.52 C 416.79 182.21 416.65 181.97 416.47 181.79 C 416.31 181.6 416.14 181.5 415.98 181.5 C 415.84 181.5 415.68 181.6 415.49 181.79 C 415.38 181.9 415.29 182.02 415.22 182.14 C 415.15 182.26 415.08 182.4 415.01 182.55 C 414.85 183 414.72 183.46 414.63 183.94 C 414.54 184.41 414.5 184.89 414.52 185.39 Z" fill="#051128"/><path d=" M 201.62 192.15 C 201.47 192.09 201.39 192.04 201.38 192.01 C 201.38 191.97 201.41 191.88 201.5 191.73 C 201.71 191.38 201.89 191.02 202.07 190.65 C 202.24 190.28 202.4 189.9 202.54 189.51 C 202.79 188.85 203.04 188.21 203.29 187.58 C 203.55 186.95 203.81 186.31 204.08 185.66 C 204.25 185.27 204.39 184.87 204.52 184.48 C 204.64 184.08 204.81 183.7 205.03 183.33 C 205.06 183.26 205.06 183.2 205.03 183.15 C 205 183.1 204.94 183.09 204.86 183.12 C 204.68 183.2 204.51 183.28 204.35 183.37 C 204.19 183.46 204.03 183.57 203.89 183.7 C 203.83 183.76 203.78 183.79 203.74 183.79 C 203.7 183.79 203.67 183.75 203.64 183.66 C 203.57 183.46 203.5 183.26 203.43 183.06 C 203.36 182.86 203.29 182.67 203.21 182.48 C 203.14 182.31 203.08 182.14 203.01 181.97 C 202.94 181.81 202.88 181.64 202.82 181.47 C 202.78 181.39 202.77 181.31 202.79 181.25 C 202.8 181.18 202.87 181.14 203 181.12 C 203.01 181.12 203.03 181.12 203.07 181.11 C 203.57 181.03 204.06 180.9 204.53 180.75 C 205 180.59 205.45 180.37 205.88 180.1 C 205.97 180.04 206.07 180 206.17 179.96 C 206.27 179.93 206.38 179.94 206.49 180 C 206.81 180.15 207.13 180.26 207.47 180.33 C 207.81 180.4 208.14 180.5 208.46 180.64 C 208.7 180.75 208.93 180.87 209.15 181.01 C 209.37 181.15 209.61 181.26 209.86 181.33 C 210.02 181.38 210.04 181.47 209.93 181.62 C 209.71 182.02 209.49 182.41 209.29 182.81 C 209.09 183.21 208.9 183.62 208.74 184.04 C 208.62 184.35 208.5 184.67 208.38 184.99 C 208.26 185.31 208.12 185.61 207.94 185.89 C 207.88 185.97 207.83 186.07 207.8 186.18 C 207.76 186.29 207.74 186.39 207.73 186.49 C 207.7 186.64 207.66 186.79 207.61 186.94 C 207.56 187.09 207.51 187.24 207.45 187.39 L 206.63 189.47 C 206.36 190.16 206.07 190.85 205.77 191.54 C 205.66 191.81 205.58 192.09 205.51 192.38 C 205.44 192.67 205.37 192.95 205.29 193.23 C 205.23 193.42 205.18 193.52 205.15 193.54 C 205.12 193.56 205.02 193.53 204.86 193.46 L 203.22 192.81 C 202.96 192.69 202.69 192.58 202.43 192.48 L 201.63 192.17 Z" fill="#051128"/><path d=" M 430.92 258.25 C 430.78 258.15 430.71 258.07 430.72 258.04 C 430.72 258 430.79 257.91 430.93 257.78 C 431.24 257.47 431.54 257.16 431.82 256.82 C 432.1 256.49 432.37 256.14 432.62 255.77 C 433.06 255.16 433.5 254.56 433.94 253.98 C 434.38 253.4 434.83 252.81 435.29 252.21 C 435.57 251.85 435.83 251.48 436.07 251.11 C 436.31 250.73 436.59 250.38 436.91 250.06 C 436.96 250 436.98 249.93 436.97 249.88 C 436.95 249.82 436.89 249.79 436.8 249.8 C 436.59 249.83 436.39 249.87 436.2 249.92 C 436.01 249.97 435.81 250.04 435.63 250.13 C 435.55 250.17 435.49 250.19 435.45 250.19 C 435.41 250.19 435.39 250.13 435.38 250.03 C 435.36 249.8 435.35 249.58 435.33 249.35 C 435.31 249.13 435.29 248.91 435.27 248.69 C 435.25 248.49 435.23 248.3 435.2 248.11 C 435.17 247.92 435.15 247.73 435.14 247.54 C 435.13 247.45 435.14 247.37 435.17 247.3 C 435.2 247.23 435.29 247.21 435.43 247.23 C 435.44 247.23 435.47 247.23 435.5 247.23 C 436.05 247.28 436.58 247.29 437.11 247.26 C 437.64 247.22 438.16 247.13 438.69 246.96 C 438.8 246.93 438.91 246.9 439.03 246.9 C 439.14 246.9 439.25 246.93 439.35 247.03 C 439.64 247.28 439.94 247.48 440.27 247.64 C 440.6 247.8 440.91 248 441.21 248.24 C 441.43 248.42 441.63 248.61 441.82 248.82 C 442.01 249.03 442.22 249.2 442.47 249.35 C 442.62 249.44 442.61 249.55 442.46 249.67 C 442.12 250.02 441.79 250.37 441.46 250.72 C 441.14 251.07 440.83 251.45 440.54 251.83 C 440.32 252.12 440.11 252.42 439.91 252.71 C 439.71 253 439.47 253.28 439.21 253.52 C 439.12 253.59 439.05 253.68 438.98 253.78 C 438.91 253.88 438.86 253.98 438.82 254.08 C 438.75 254.22 438.66 254.37 438.57 254.51 C 438.48 254.65 438.38 254.79 438.28 254.93 L 436.85 256.85 C 436.38 257.49 435.89 258.12 435.39 258.75 C 435.21 259 435.04 259.26 434.89 259.54 C 434.74 259.82 434.58 260.09 434.42 260.36 C 434.3 260.54 434.22 260.63 434.19 260.64 C 434.16 260.65 434.06 260.59 433.91 260.48 L 432.39 259.35 C 432.15 259.15 431.91 258.97 431.67 258.79 L 430.93 258.24 Z" fill="#051128"/><path d=" M 415.42 231.51 C 415.25 231.51 415.15 231.49 415.13 231.46 C 415.11 231.43 415.11 231.32 415.14 231.13 C 415.21 230.7 415.25 230.27 415.28 229.83 C 415.31 229.39 415.31 228.95 415.3 228.51 C 415.29 227.76 415.28 227.02 415.3 226.29 C 415.3 225.56 415.32 224.82 415.33 224.07 C 415.34 223.61 415.33 223.16 415.3 222.72 C 415.27 222.28 415.28 221.83 415.35 221.37 C 415.35 221.29 415.33 221.23 415.29 221.19 C 415.24 221.15 415.18 221.16 415.11 221.23 C 414.96 221.38 414.82 221.53 414.7 221.68 C 414.57 221.83 414.46 222.01 414.37 222.19 C 414.33 222.27 414.29 222.32 414.26 222.34 C 414.23 222.36 414.18 222.34 414.11 222.25 C 413.96 222.08 413.81 221.9 413.67 221.74 C 413.52 221.57 413.37 221.41 413.23 221.25 C 413.1 221.1 412.96 220.96 412.83 220.83 C 412.7 220.7 412.57 220.56 412.45 220.41 C 412.38 220.34 412.34 220.27 412.33 220.2 C 412.32 220.13 412.37 220.06 412.49 219.99 C 412.5 219.99 412.52 219.98 412.55 219.95 C 413.02 219.67 413.46 219.36 413.86 219.01 C 414.26 218.67 414.62 218.27 414.95 217.83 C 415.02 217.74 415.09 217.65 415.18 217.58 C 415.27 217.51 415.38 217.48 415.51 217.49 C 415.89 217.52 416.26 217.49 416.62 217.43 C 416.98 217.36 417.35 217.34 417.73 217.35 C 418.01 217.36 418.29 217.4 418.57 217.45 C 418.84 217.5 419.12 217.52 419.41 217.49 C 419.58 217.48 419.64 217.56 419.59 217.75 C 419.52 218.23 419.47 218.71 419.42 219.19 C 419.37 219.67 419.35 220.15 419.35 220.63 C 419.35 220.99 419.35 221.35 419.37 221.72 C 419.39 222.09 419.36 222.44 419.29 222.79 C 419.26 222.9 419.25 223.01 419.26 223.13 C 419.26 223.25 419.28 223.37 419.31 223.47 C 419.34 223.63 419.36 223.8 419.37 223.96 C 419.38 224.12 419.39 224.3 419.39 224.47 L 419.39 226.87 C 419.39 227.66 419.38 228.46 419.35 229.27 C 419.35 229.58 419.37 229.89 419.42 230.21 C 419.47 230.53 419.5 230.84 419.53 231.15 C 419.54 231.36 419.53 231.49 419.51 231.51 C 419.49 231.53 419.38 231.55 419.19 231.55 L 417.3 231.55 C 416.99 231.54 416.69 231.53 416.38 231.53 L 415.46 231.53 Z" fill="#051128"/><path d=" M 217.67 223.94 C 217.51 223.94 217.42 223.92 217.4 223.89 C 217.38 223.86 217.38 223.76 217.4 223.58 C 217.46 223.18 217.51 222.78 217.53 222.37 C 217.55 221.96 217.56 221.55 217.55 221.14 C 217.54 220.44 217.53 219.75 217.55 219.06 C 217.55 218.38 217.57 217.69 217.58 216.98 C 217.59 216.55 217.58 216.13 217.55 215.72 C 217.52 215.31 217.53 214.89 217.6 214.46 C 217.6 214.38 217.58 214.33 217.54 214.29 C 217.49 214.25 217.43 214.27 217.37 214.33 C 217.23 214.47 217.1 214.61 216.98 214.75 C 216.86 214.89 216.76 215.05 216.67 215.23 C 216.63 215.31 216.6 215.35 216.57 215.37 C 216.54 215.39 216.49 215.37 216.43 215.29 C 216.29 215.13 216.15 214.97 216.02 214.81 C 215.88 214.65 215.74 214.5 215.61 214.35 C 215.48 214.21 215.36 214.08 215.23 213.95 C 215.1 213.83 214.99 213.69 214.87 213.56 C 214.81 213.5 214.77 213.43 214.76 213.36 C 214.75 213.29 214.8 213.23 214.91 213.16 C 214.92 213.16 214.94 213.15 214.97 213.12 C 215.41 212.86 215.82 212.57 216.19 212.25 C 216.57 211.93 216.9 211.56 217.2 211.15 C 217.26 211.06 217.33 210.98 217.42 210.92 C 217.5 210.85 217.6 210.82 217.73 210.84 C 218.08 210.86 218.43 210.84 218.76 210.78 C 219.1 210.72 219.44 210.69 219.79 210.7 C 220.05 210.71 220.31 210.74 220.57 210.79 C 220.83 210.84 221.09 210.85 221.35 210.83 C 221.51 210.82 221.57 210.9 221.52 211.07 C 221.46 211.52 221.4 211.97 221.36 212.41 C 221.32 212.85 221.29 213.3 221.29 213.75 C 221.29 214.09 221.29 214.43 221.31 214.76 C 221.33 215.09 221.3 215.43 221.24 215.76 C 221.21 215.86 221.21 215.97 221.21 216.08 C 221.21 216.19 221.23 216.3 221.26 216.4 C 221.28 216.55 221.3 216.7 221.32 216.86 C 221.34 217.02 221.34 217.18 221.34 217.34 L 221.34 219.58 C 221.34 220.32 221.33 221.06 221.3 221.82 C 221.3 222.11 221.32 222.4 221.37 222.69 C 221.41 222.98 221.45 223.28 221.47 223.56 C 221.48 223.76 221.47 223.87 221.45 223.9 C 221.43 223.93 221.32 223.94 221.15 223.94 L 219.38 223.94 C 219.09 223.93 218.81 223.92 218.53 223.92 L 217.68 223.92 Z" fill="#051128"/><path d=" M 200.79 259.91 C 200.65 260 200.57 260.04 200.54 260.02 C 200.51 260 200.45 259.92 200.38 259.76 C 200.21 259.39 200.03 259.03 199.82 258.68 C 199.62 258.33 199.4 257.98 199.16 257.64 C 198.76 257.06 198.38 256.49 198.01 255.91 C 197.64 255.34 197.27 254.75 196.89 254.16 C 196.67 253.8 196.43 253.45 196.17 253.12 C 195.92 252.79 195.7 252.43 195.52 252.04 C 195.48 251.98 195.43 251.94 195.38 251.93 C 195.32 251.93 195.28 251.97 195.26 252.05 C 195.22 252.24 195.19 252.43 195.17 252.61 C 195.15 252.8 195.15 252.99 195.17 253.18 C 195.18 253.26 195.17 253.32 195.17 253.35 C 195.15 253.38 195.1 253.39 195.01 253.35 C 194.81 253.29 194.6 253.23 194.4 253.18 C 194.2 253.13 194 253.07 193.8 253.02 C 193.62 252.97 193.44 252.93 193.27 252.9 C 193.1 252.87 192.92 252.82 192.75 252.77 C 192.66 252.75 192.6 252.72 192.55 252.67 C 192.5 252.62 192.51 252.54 192.57 252.42 C 192.58 252.42 192.59 252.39 192.6 252.36 C 192.82 251.9 193 251.43 193.14 250.96 C 193.28 250.49 193.36 249.99 193.38 249.48 C 193.38 249.37 193.4 249.27 193.43 249.17 C 193.46 249.07 193.53 248.99 193.64 248.93 C 193.95 248.76 194.22 248.55 194.47 248.31 C 194.72 248.07 194.99 247.86 195.29 247.68 C 195.52 247.55 195.75 247.43 195.99 247.33 C 196.23 247.23 196.46 247.1 196.66 246.93 C 196.79 246.83 196.88 246.87 196.94 247.04 C 197.14 247.45 197.34 247.85 197.55 248.25 C 197.76 248.64 197.99 249.03 198.23 249.41 C 198.42 249.69 198.61 249.97 198.8 250.25 C 198.99 250.53 199.16 250.82 199.29 251.12 C 199.32 251.22 199.37 251.31 199.44 251.4 C 199.51 251.49 199.58 251.57 199.65 251.64 C 199.75 251.75 199.85 251.87 199.95 251.99 C 200.05 252.11 200.14 252.24 200.23 252.38 L 201.46 254.25 C 201.87 254.87 202.27 255.5 202.66 256.14 C 202.82 256.38 203 256.61 203.2 256.83 C 203.4 257.05 203.59 257.28 203.77 257.5 C 203.89 257.66 203.95 257.76 203.94 257.79 C 203.93 257.82 203.86 257.89 203.71 257.99 L 202.24 258.96 C 201.99 259.11 201.75 259.26 201.52 259.41 L 200.81 259.88 Z" fill="#051128"/></g><g><g><path d=" M 245.72 398.69 L 246.56 398.13 L 247.42 396.8 L 248.17 394.99 L 248.65 393.08 L 249.46 391.66 L 250.5 391.05 L 253.29 391.2 L 253.8 391.45 L 253.99 391.94 L 254.12 395.38 L 254.08 398.82 L 254 402.27 L 254.22 405.72 L 253.74 406.34 L 253.05 406.64 L 252.19 406.92 L 251.44 406.66 L 250.58 406.6 L 250.18 406.01 L 250.01 403.69 L 250.11 403.17 L 249.85 402.53 L 249.6 401.96 L 249.12 401.63 L 248.58 402.09 L 247.98 402.77 L 247.68 403.72 L 246.8 404.09 L 245.88 404.25 L 244.82 403.86 L 244.13 403.36 L 243.43 402.83 L 243.21 402.06 L 242.67 401.67 L 242.21 401.43 L 241.95 401.74 L 241.95 401.82 L 241.69 401.82 L 241.66 402 L 241.72 406.02 L 241.47 406.52 L 240.78 406.78 L 240.03 406.74 L 239.57 406.93 L 239.06 406.66 L 238.39 406.66 L 237.82 406.37 L 237.4 405.86 L 237.67 402.35 L 237.46 398.84 L 237.53 395.32 L 237.46 391.8 L 237.77 391.31 L 238.18 391.11 L 241.13 391.13 L 242.09 391.68 L 242.75 393.12 L 243.21 395.01 L 243.89 396.85 L 244.89 398.12 L 245.78 398.69 Z" fill="#051128"/><path d=" M 259.25 405.57 L 259.5 401.86 L 259.37 401.11 L 259.3 399.99 L 259.24 397.08 L 259.21 394.17 L 259.29 393.04 L 259.29 392.29 L 259.37 391.98 L 259.61 391.66 L 259.65 391.22 L 260.04 391.09 L 263.85 391.07 L 267.67 391.31 L 271.49 391.14 L 271.96 391.41 L 272.22 391.92 L 272.22 392.5 L 272.33 392.89 L 272.31 393.53 L 271.82 394.06 L 268.25 394.02 L 264.69 393.94 L 264.18 394.25 L 263.71 394.62 L 263.44 395.22 L 263.59 395.84 L 263.37 396.38 L 263.71 396.85 L 264.11 397.14 L 264.52 397.45 L 269.16 397.51 L 269.97 397.88 L 270.29 398.79 L 270.22 399.22 L 270.02 399.69 L 270.02 400.24 L 269.48 400.28 L 264.84 400.19 L 264.31 400.59 L 263.76 400.85 L 263.69 401.48 L 263.41 402.04 L 263.79 403.33 L 264.85 403.77 L 268.33 403.87 L 271.8 404.02 L 272.28 404.37 L 272.2 404.83 L 272.18 405.37 L 272.16 405.98 L 271.99 406.57 L 271.35 406.57 L 267.59 406.75 L 263.82 406.66 L 260.05 406.83 L 259.71 406.61 L 259.44 406.31 L 259.39 405.9 L 259.27 405.59 Z" fill="#051128"/><path d=" M 276.86 405.27 L 276.98 404.57 L 277.33 403.85 L 277.64 403.08 L 278.45 403.08 L 279.6 403.14 L 280.81 403.3 L 281.98 403.74 L 283.23 403.74 L 284.32 403.86 L 284.84 403.48 L 285.08 402.93 L 284.83 402.25 L 284.35 401.59 L 281.83 400.74 L 279.29 399.61 L 277.33 397.82 L 276.65 395.17 L 277.11 392.97 L 278.8 391.89 L 280.83 391.19 L 283.09 391.06 L 284.15 390.98 L 285.11 391.04 L 286.1 391.24 L 287.3 391.21 L 287.96 391.65 L 287.98 392.4 L 288.08 393.17 L 287.81 393.93 L 287.35 394.5 L 286.65 394.65 L 285.71 394.63 L 284.72 394.48 L 283.76 394.18 L 282.76 393.94 L 282.28 394.11 L 281.71 394.11 L 281.49 394.63 L 281.33 395.06 L 281.76 396.37 L 283.42 397.12 L 285.51 397.74 L 287.49 398.81 L 289.11 400.16 L 289.58 402.34 L 289.08 404.51 L 287.56 405.86 L 285.58 406.9 L 283.23 406.83 L 282.4 407.09 L 281.11 407.04 L 279.65 406.93 L 278.32 406.52 L 277.22 406.17 L 276.86 405.28 Z" fill="#051128"/><path d=" M 292.35 393.03 L 292.97 391.51 L 294.63 391.08 L 298.29 391.03 L 301.95 391.29 L 305.61 391.27 L 306.15 391.29 L 306.56 391.73 L 306.69 392.34 L 306.82 392.87 L 306.56 393.25 L 306.74 393.72 L 306.36 393.97 L 305.92 394.14 L 302.99 394.19 L 302.63 394.29 L 302.23 394.61 L 301.74 394.89 L 301.7 395.36 L 301.88 398.92 L 301.76 402.48 L 301.73 406.04 L 301.7 406.33 L 301.38 406.56 L 300.98 406.64 L 300.81 406.75 L 298.48 406.89 L 298.12 406.76 L 297.78 406.21 L 297.83 402.71 L 297.76 399.19 L 297.64 395.67 L 297.71 395.17 L 297.16 394.81 L 296.88 394.21 L 296.33 394.17 L 293.38 394.15 L 292.75 393.73 L 292.36 393.05 Z" fill="#051128"/><path d=" M 325.04 395.82 L 325.09 397.2 L 324.43 398.2 L 323.78 399.24 L 322.77 400.28 L 322.83 400.92 L 323.05 402.3 L 324.02 403.39 L 324.58 404.7 L 325 405.87 L 324.85 406.03 L 324.85 406.3 L 324.7 406.52 L 324.54 406.52 L 321.89 406.73 L 321.52 406.57 L 320.89 405.93 L 320.71 404.99 L 320.02 403.83 L 319.38 402.64 L 319 401.83 L 318.23 401.01 L 317.25 400.47 L 316.78 400.69 L 316.4 400.98 L 316.05 401.23 L 315.93 401.68 L 315.9 405.56 L 315.94 405.87 L 315.83 406.25 L 315.5 406.46 L 315.27 406.79 L 312.48 406.62 L 312.26 406.42 L 312 406.17 L 311.65 405.89 L 311.65 405.56 L 311.81 402.24 L 311.66 398.92 L 311.74 395.59 L 311.82 392.26 L 311.77 391.96 L 311.88 391.57 L 312.26 391.4 L 312.48 391.18 L 316.26 391.18 L 320.04 391.15 L 322.04 391.4 L 323.6 392.43 L 324.83 393.8 L 325.05 395.82 Z M 315.75 395.82 L 316.45 397.12 L 317.71 397.76 L 318.74 397.59 L 319.82 397.36 L 320.61 396.69 L 321.07 395.65 L 320.56 394.88 L 319.94 394.18 L 318.94 394.01 L 318.03 393.82 L 316.39 394.31 L 315.75 395.8 Z" fill="#051128"/><path d=" M 330.04 405.57 L 330.25 401.86 L 330.34 401.11 L 330.21 399.98 L 330.09 397.07 L 330.2 394.15 L 330.1 393.03 L 329.96 392.26 L 330.15 391.96 L 330.28 391.59 L 330.64 391.42 L 330.82 391.22 L 334.63 391.2 L 338.45 391.32 L 342.27 391.23 L 342.82 391.34 L 342.93 391.92 L 343.05 392.48 L 343.17 392.87 L 343.05 393.49 L 342.6 394 L 339.03 394.06 L 335.47 394.08 L 334.98 394.26 L 334.54 394.63 L 334.34 395.22 L 334.25 395.82 L 334.22 396.35 L 334.58 396.79 L 334.91 397.11 L 335.31 397.4 L 339.95 397.52 L 340.76 397.87 L 341.1 398.78 L 341.15 399.21 L 341.02 399.73 L 340.82 400.22 L 340.28 400.38 L 335.64 400.42 L 335.06 400.5 L 334.52 400.81 L 334.39 401.43 L 334.26 402.02 L 334.53 403.34 L 335.65 403.83 L 339.13 403.76 L 342.61 403.89 L 343.18 404.29 L 343 404.81 L 343.19 405.36 L 343.01 405.97 L 342.57 406.35 L 342.15 406.63 L 338.39 406.72 L 334.62 406.67 L 330.85 406.78 L 330.63 406.45 L 330.24 406.27 L 330.28 405.83 L 330.07 405.56 Z" fill="#051128"/><path d=" M 369.22 399.23 L 368.79 401.61 L 367.98 404.03 L 366.46 405.94 L 364 406.69 L 360.22 406.51 L 356.44 406.59 L 355.92 406.4 L 355.57 405.88 L 355.74 402.37 L 355.74 398.86 L 355.68 395.34 L 355.8 391.82 L 355.66 391.61 L 355.97 391.52 L 356.04 391.18 L 356.28 391.15 L 360.23 391.31 L 364.18 391.1 L 366 391.47 L 367.32 392.58 L 368.04 394.18 L 368.77 395.85 L 369.04 397.63 L 369.23 399.26 Z M 359.93 402.77 L 360.4 403.6 L 361.37 403.74 L 362.62 403.44 L 363.76 402.77 L 364.74 401.83 L 364.99 400.47 L 364.91 397.22 L 364.51 395.97 L 363.78 394.83 L 362.6 394.14 L 361.36 393.94 L 360.05 394.3 L 359.73 395.53 L 359.55 398.15 L 359.78 400.47 L 359.91 402.78 Z" fill="#051128"/><path d=" M 373.15 398.91 L 373.51 395.64 L 375.32 393.2 L 377.77 391.49 L 380.96 390.72 L 384.2 391.35 L 386.6 393.18 L 388.15 395.68 L 388.86 398.77 L 388.25 402.03 L 386.78 404.64 L 384.33 406.31 L 381.13 406.74 L 377.81 406.34 L 375.26 404.7 L 373.78 402.12 L 373.15 398.91 Z M 377.17 398.91 L 377.62 400.49 L 378.1 402.02 L 379.26 403.02 L 380.8 403.25 L 382.47 402.9 L 383.79 402.05 L 384.57 400.61 L 384.67 398.9 L 384.5 397.18 L 383.7 395.75 L 382.55 394.73 L 380.97 394.19 L 379.34 394.76 L 378.18 395.8 L 377.34 397.23 L 377.18 398.9 Z" fill="#051128"/><path d=" M 393.26 405.27 L 393.28 404.56 L 393.62 403.81 L 394.05 403.13 L 394.83 402.85 L 395.97 403.18 L 397.16 403.43 L 398.38 403.72 L 399.62 404.03 L 400.71 403.79 L 401.29 403.55 L 401.53 402.96 L 401.24 402.28 L 400.67 401.82 L 398.16 400.97 L 395.69 399.65 L 393.64 397.92 L 392.87 395.21 L 393.61 393.08 L 395.13 391.79 L 397.22 391.21 L 399.48 391.17 L 400.54 390.92 L 401.5 391.04 L 402.5 391.12 L 403.68 391.22 L 404.2 391.75 L 404.5 392.41 L 404.24 393.15 L 404.09 393.91 L 403.82 394.62 L 403.03 394.7 L 402.11 394.58 L 401.17 394.28 L 400.14 394.22 L 399.15 394.09 L 398.63 393.94 L 398.12 394.15 L 397.65 394.46 L 397.76 395.06 L 398.27 396.21 L 399.88 396.94 L 401.82 397.97 L 403.84 398.88 L 405.6 400.08 L 406.15 402.33 L 405.49 404.51 L 404.08 406.06 L 401.94 406.73 L 399.62 407.08 L 398.79 407.04 L 397.5 407.02 L 396.04 406.98 L 394.73 406.47 L 393.67 406.1 L 393.27 405.28 Z" fill="#051128"/></g><path d=" M 230.24 421.96 C 229.97 421.87 229.74 421.73 229.56 421.55 C 229.33 421.33 229.11 421.11 228.88 420.91 C 228.65 420.71 228.45 420.49 228.27 420.27 C 227.23 418.87 226.03 417.77 224.65 416.96 C 223.27 416.15 221.87 415.38 220.43 414.66 C 218.94 413.94 217.42 413.42 215.87 413.11 C 214.32 412.8 212.75 412.64 211.17 412.64 C 209.59 412.64 208.06 412.78 206.44 413.05 C 204.82 413.32 203.24 413.73 201.71 414.27 C 200.18 414.81 198.72 415.5 197.35 416.33 C 195.97 417.16 194.75 418.14 193.67 419.27 C 191.87 421.16 190.39 423.25 189.24 425.52 C 188.09 427.8 187.4 430.24 187.18 432.85 C 186.95 434.88 186.85 436.91 186.88 438.93 C 186.9 440.96 187.16 442.99 187.66 445.01 C 187.93 446.32 188.39 447.62 189.05 448.93 C 189.7 450.24 190.48 451.49 191.38 452.68 C 192.28 453.87 193.27 454.97 194.35 455.96 C 195.43 456.95 196.53 457.78 197.66 458.46 C 199.69 459.63 201.76 460.45 203.88 460.93 C 206 461.4 208.18 461.62 210.44 461.57 C 211.93 461.61 213.39 461.56 214.83 461.4 C 216.27 461.24 217.67 460.92 219.02 460.42 C 222.89 458.84 226.32 456.55 229.29 453.53 C 229.65 453.17 229.82 452.89 229.8 452.68 C 229.78 452.48 229.59 452.24 229.23 451.97 C 228.55 451.38 227.88 450.82 227.2 450.28 C 226.52 449.74 225.89 449.15 225.31 448.52 C 225.17 448.34 224.8 447.97 224.19 447.41 C 223.58 446.85 222.92 446.25 222.2 445.62 C 221.48 444.99 220.81 444.43 220.21 443.93 C 219.6 443.44 219.21 443.19 219.03 443.19 C 218.8 443.19 218.6 443.55 218.42 444.27 C 218.19 444.99 217.79 445.65 217.2 446.23 C 216.61 446.81 215.95 447.31 215.21 447.72 C 214.47 448.13 213.69 448.44 212.88 448.67 C 212.07 448.9 211.3 449.01 210.58 449.01 C 208.69 449.01 206.91 448.46 205.24 447.35 C 203.57 446.25 202.33 444.68 201.52 442.65 C 200.3 439.45 200.19 436.21 201.18 432.92 C 201.49 431.88 201.97 430.9 202.6 429.98 C 203.23 429.06 203.96 428.26 204.8 427.58 C 205.63 426.9 206.57 426.38 207.6 425.99 C 208.64 425.61 209.72 425.42 210.84 425.42 C 211.61 425.42 212.43 425.57 213.31 425.86 C 214.19 426.15 215.02 426.55 215.81 427.04 C 216.6 427.54 217.3 428.11 217.9 428.76 C 218.51 429.41 218.92 430.12 219.15 430.89 C 219.19 430.98 219.25 431.08 219.32 431.19 C 219.39 431.3 219.47 431.4 219.56 431.49 C 219.74 431.76 219.97 431.78 220.24 431.56 C 221.82 430.21 223.39 428.87 224.97 427.54 C 226.55 426.21 228.12 424.87 229.7 423.52 C 229.88 423.34 230.06 423.18 230.24 423.05 C 230.42 422.91 230.53 422.76 230.58 422.58 C 230.62 422.27 230.51 422.06 230.24 421.97 Z" fill="#FFFFFF"/><path d=" M 268.71 437.21 C 268.35 435.69 267.86 434.18 267.25 432.66 C 267.18 432.48 267.11 432.29 267.03 432.09 C 266.96 431.89 266.85 431.7 266.71 431.52 C 265.77 430.29 264.8 429.09 263.79 427.92 C 262.78 426.75 261.53 425.78 260.05 425.02 C 258.39 424.15 256.72 423.48 255.04 422.99 C 253.36 422.5 251.64 422.26 249.87 422.26 C 248.5 422.26 247.09 422.4 245.65 422.69 C 244.21 422.98 242.81 423.41 241.45 423.99 C 240.1 424.57 238.84 425.28 237.69 426.13 C 236.53 426.98 235.54 427.98 234.71 429.14 C 233.92 430.22 233.21 431.35 232.6 432.52 C 231.99 433.69 231.52 434.93 231.19 436.23 C 230.87 437.64 230.69 439.05 230.68 440.45 C 230.66 441.86 230.68 443.28 230.76 444.73 C 230.9 447.11 231.45 449.29 232.41 451.26 C 233.37 453.23 234.61 454.93 236.15 456.38 C 237.68 457.82 239.47 458.98 241.51 459.85 C 243.55 460.72 245.72 461.24 248.04 461.42 C 248.87 461.49 249.68 461.5 250.48 461.45 C 251.27 461.4 252.09 461.33 252.92 461.26 C 254.62 461.15 256.22 460.81 257.74 460.23 C 259.26 459.65 260.65 458.82 261.91 457.74 C 263.17 456.69 264.33 455.54 265.38 454.27 C 266.43 453.01 267.18 451.51 267.65 449.78 C 267.72 449.6 267.82 449.41 267.95 449.21 C 268.08 449.01 268.17 448.82 268.25 448.64 C 268.32 448.46 268.39 448.27 268.47 448.07 C 268.54 447.87 268.6 447.66 268.63 447.45 C 268.63 446.51 268.74 445.59 268.95 444.69 C 269.17 443.79 269.18 442.92 269 442.09 C 269.18 440.36 269.09 438.73 268.73 437.22 Z M 257.85 445.39 C 257.51 446.47 257.03 447.54 256.41 448.59 C 255.72 449.75 254.78 450.65 253.57 451.3 C 252.36 451.95 251.09 452.27 249.75 452.27 C 248.63 452.27 247.56 452.04 246.53 451.57 C 245.5 451.1 244.63 450.38 243.9 449.4 C 242.96 448.06 242.28 446.67 241.84 445.2 C 241.4 443.73 241.33 442.18 241.62 440.52 C 241.69 440.34 241.73 440.14 241.73 439.92 L 241.73 439.27 C 241.8 438.26 242.09 437.34 242.6 436.51 C 242.74 436.29 242.89 436.07 243.03 435.83 C 243.17 435.6 243.3 435.35 243.41 435.1 C 243.66 434.52 244.01 434.01 244.47 433.56 C 244.92 433.11 245.44 432.72 246.01 432.4 C 246.59 432.08 247.2 431.82 247.85 431.64 C 248.5 431.46 249.13 431.37 249.75 431.37 C 251.01 431.37 252.22 431.69 253.38 432.34 C 254.53 432.99 255.47 433.89 256.2 435.05 C 256.89 436.1 257.43 437.18 257.82 438.3 C 258.22 439.42 258.31 440.61 258.09 441.87 C 258.27 443.13 258.19 444.31 257.85 445.39 Z" fill="#FFFFFF"/><path d=" M 249.14 419.21 L 250.66 419.21 C 251.06 419.21 251.44 419.01 251.79 418.61 C 252.19 418.16 252.57 417.73 252.92 417.33 C 253.27 416.93 253.64 416.51 254.05 416.05 C 254.63 415.43 255.21 414.86 255.79 414.35 C 256.37 413.84 256.95 413.3 257.53 412.73 C 257.82 412.5 258.08 412.3 258.31 412.13 C 258.54 411.96 258.77 411.76 259.01 411.53 C 259.13 411.53 259.18 411.5 259.18 411.44 C 259.18 411.38 259.21 411.35 259.27 411.35 L 259.1 411.26 L 255.49 411.26 C 254.42 411.26 253.3 411.2 252.14 411.09 C 252.08 411.09 252.02 411.13 251.97 411.22 C 251.91 411.31 251.94 411.4 252.06 411.52 C 252.12 411.69 252.15 412 252.15 412.46 C 251.98 413.26 251.68 414.02 251.28 414.76 C 250.87 415.5 250.44 416.21 249.98 416.89 C 249.86 417.12 249.73 417.35 249.59 417.57 C 249.44 417.8 249.31 418.05 249.2 418.34 C 249.08 418.45 248.95 418.57 248.81 418.68 C 248.66 418.79 248.65 418.91 248.77 419.02 C 248.89 419.13 249.02 419.19 249.16 419.19 Z" fill="#FFFFFF"/><path d=" M 302.97 429.47 C 301.94 427.7 300.56 426.23 298.83 425.06 C 297.1 423.89 294.91 423.19 292.28 422.98 C 290.69 422.87 289.08 422.85 287.43 422.93 C 285.79 423 283.9 423.02 281.77 422.98 L 277.71 422.98 C 276.16 422.98 274.53 422.96 272.84 422.93 C 272.44 422.93 272.21 422.99 272.14 423.12 C 272.07 423.25 272.07 423.51 272.14 423.91 C 272.43 425.39 272.62 426.85 272.71 428.3 C 272.8 429.74 272.86 431.22 272.9 432.74 C 272.94 434.8 272.95 436.85 272.95 438.91 L 272.95 449.17 C 272.95 450.52 272.9 451.89 272.79 453.26 C 272.68 454.38 272.64 455.5 272.65 456.62 C 272.67 457.74 272.53 458.84 272.24 459.92 C 272.13 460.35 272.14 460.64 272.27 460.79 C 272.4 460.93 272.69 461.01 273.16 461.01 C 273.59 461.08 273.95 461.06 274.24 460.96 C 275.18 460.74 276.08 460.76 276.95 461.01 C 277.13 461.05 277.31 461.07 277.49 461.09 C 277.67 461.11 277.85 461.09 278.03 461.06 C 278.97 460.77 279.92 460.7 280.9 460.84 C 281.88 460.98 282.83 461.02 283.77 460.95 C 285.25 460.88 286.72 460.86 288.18 460.9 C 289.64 460.94 291.11 460.92 292.59 460.85 C 294.11 460.78 295.52 460.51 296.84 460.04 C 298.16 459.57 299.36 458.79 300.44 457.71 C 300.84 457.31 301.23 456.97 301.6 456.68 C 301.98 456.39 302.31 455.99 302.6 455.49 C 304.87 451.3 305.99 446.84 305.96 442.11 C 305.85 439.87 305.58 437.65 305.15 435.45 C 304.72 433.25 303.99 431.26 302.96 429.49 Z M 294.74 445.34 C 294.5 446.5 294.15 447.65 293.68 448.81 C 293.14 450.07 292.39 451.01 291.43 451.63 C 290.47 452.24 289.35 452.64 288.05 452.82 C 287.44 452.89 286.84 452.9 286.26 452.85 C 285.68 452.8 285.09 452.85 284.47 453.04 C 284.18 453.11 283.94 453.04 283.74 452.85 C 283.54 452.65 283.42 452.39 283.39 452.07 C 283.39 451.85 283.41 451.64 283.44 451.42 C 283.48 451.2 283.51 451.01 283.55 450.82 C 283.66 449.92 283.7 449.03 283.69 448.17 C 283.67 447.3 283.63 446.44 283.55 445.57 C 283.48 444.63 283.42 443.69 283.39 442.75 C 283.35 441.81 283.43 440.87 283.61 439.93 L 283.61 439.77 C 283.47 438.72 283.46 437.68 283.58 436.63 C 283.71 435.58 283.68 434.54 283.5 433.49 C 283.39 432.88 283.36 432.33 283.39 431.87 C 283.43 431.04 283.91 430.66 284.85 430.73 C 284.99 430.73 285.13 430.73 285.26 430.76 C 285.39 430.78 285.52 430.79 285.67 430.79 L 287.29 430.95 C 287.65 430.95 287.92 430.97 288.1 431 C 290.48 431.11 292.23 432.3 293.35 434.57 C 293.93 435.69 294.37 436.84 294.68 438.01 C 294.99 439.18 295 440.42 294.71 441.72 C 294.96 442.98 294.97 444.19 294.74 445.35 Z" fill="#FFFFFF"/><path d=" M 321.65 458.14 C 321.61 457.47 321.61 456.81 321.65 456.16 L 321.65 451.88 C 321.65 450.47 321.63 449.05 321.6 447.6 C 321.56 445.87 321.53 444.13 321.49 442.37 C 321.45 440.62 321.44 438.88 321.44 437.14 C 321.48 435.81 321.49 434.48 321.49 433.16 C 321.49 431.84 321.53 430.52 321.6 429.18 C 321.67 428.24 321.74 427.33 321.79 426.45 C 321.84 425.57 321.96 424.67 322.14 423.77 C 322.21 423.3 322.21 423.02 322.14 422.93 C 322.07 422.84 321.78 422.79 321.27 422.79 C 320.44 422.75 319.6 422.75 318.75 422.76 C 317.9 422.78 317.04 422.79 316.18 422.79 L 311.14 422.79 C 310.67 422.79 310.39 422.83 310.3 422.9 C 310.21 422.97 310.2 423.22 310.27 423.66 C 310.41 424.71 310.56 425.76 310.7 426.83 C 310.84 427.9 310.88 428.95 310.81 430 C 310.77 430.54 310.76 431.08 310.76 431.62 L 310.76 433.24 C 310.76 436.49 310.8 439.7 310.87 442.88 C 310.94 446.06 310.94 449.25 310.87 452.46 C 310.83 453.8 310.77 455.12 310.68 456.44 C 310.59 457.76 310.36 459.07 310 460.37 C 309.93 460.62 309.94 460.78 310.03 460.83 C 310.12 460.88 310.25 460.91 310.44 460.91 C 310.62 460.87 310.82 460.85 311.04 460.83 C 311.26 460.81 311.47 460.79 311.69 460.75 C 312.59 460.68 313.49 460.62 314.4 460.59 C 315.3 460.55 316.2 460.59 317.11 460.7 C 317.83 460.81 318.56 460.86 319.3 460.86 L 321.49 460.86 C 321.78 460.9 322 460.86 322.14 460.78 C 322.28 460.69 322.27 460.45 322.09 460.05 C 321.84 459.44 321.69 458.8 321.66 458.13 Z" fill="#FFFFFF"/><path d=" M 360.7 429.47 C 360.46 429.25 360.24 429.06 360.02 428.87 L 358.67 427.57 C 358.16 427.14 357.6 426.7 356.96 426.24 C 356.33 425.79 355.67 425.36 354.98 424.94 C 354.29 424.53 353.6 424.17 352.9 423.88 C 352.2 423.59 351.52 423.39 350.87 423.28 C 350 423.1 349.14 422.92 348.27 422.74 C 347.4 422.56 346.52 422.47 345.62 422.47 C 344.72 422.47 343.92 422.6 343.13 422.85 C 341.25 422.85 339.45 423.19 337.71 423.88 C 335.98 424.57 334.41 425.49 333 426.64 C 331.59 427.8 330.37 429.16 329.34 430.73 C 328.31 432.3 327.54 433.99 327.04 435.79 C 326.64 437.16 326.37 438.58 326.23 440.04 C 326.09 441.5 326.1 442.96 326.28 444.4 C 326.5 446.31 326.88 448.16 327.44 449.95 C 328 451.74 328.96 453.37 330.34 454.85 C 330.7 455.21 331 455.61 331.23 456.04 C 331.46 456.47 331.78 456.83 332.18 457.12 C 333.26 457.81 334.26 458.43 335.18 458.99 C 336.1 459.55 337.04 460.04 338 460.45 C 338.96 460.87 339.96 461.18 341.01 461.4 C 342.06 461.62 343.23 461.72 344.53 461.72 C 345.32 461.72 346.3 461.62 347.45 461.42 C 348.6 461.22 349.77 460.92 350.94 460.53 C 352.11 460.14 353.17 459.63 354.11 459.01 C 355.05 458.4 355.7 457.68 356.06 456.84 C 356.2 456.55 356.38 456.4 356.6 456.38 C 356.82 456.36 357.05 456.44 357.3 456.62 C 357.84 457.02 358.28 457.47 358.63 457.97 C 358.97 458.48 359.25 459.04 359.47 459.65 L 359.96 460.84 C 360.1 461.16 360.32 461.31 360.61 461.27 C 360.97 461.27 361.19 461.09 361.26 460.73 C 361.3 460.55 361.28 460.32 361.21 460.03 C 361.07 459.67 360.99 459.31 360.99 458.95 L 360.99 457.05 C 360.99 456.8 361.01 456.54 361.04 456.29 L 361.04 453.04 C 361.08 452.79 361.09 452.53 361.09 452.28 L 361.09 451.47 C 361.13 450.53 361.15 449.62 361.17 448.74 C 361.19 447.86 361.2 446.94 361.2 446.01 L 361.2 444.82 C 361.16 444.31 361.15 443.83 361.17 443.36 C 361.19 442.89 361.23 442.4 361.31 441.9 C 361.38 441.21 361.31 440.76 361.07 440.55 C 360.83 440.33 360.36 440.28 359.63 440.39 C 359.02 440.46 358.38 440.53 357.73 440.58 C 357.08 440.63 356.45 440.66 355.83 440.66 C 354.57 440.66 353.3 440.55 352.04 440.34 C 351.75 440.3 351.47 440.3 351.2 440.31 C 350.93 440.33 350.67 440.36 350.42 440.39 C 349.73 440.5 349.03 440.55 348.31 440.55 C 348.06 440.55 347.81 440.55 347.58 440.52 C 347.34 440.5 347.08 440.46 346.79 440.38 C 345.92 440.16 345.47 440.49 345.44 441.35 C 345.37 442.36 345.27 443.36 345.14 444.36 C 345.01 445.35 344.81 446.32 344.52 447.26 C 344.45 447.48 344.47 447.61 344.57 447.67 C 344.67 447.73 344.82 447.72 345 447.64 C 345.18 447.57 345.35 447.5 345.51 447.45 C 345.67 447.4 345.84 447.33 346.02 447.26 C 347.14 446.79 348.28 446.48 349.43 446.34 C 350.58 446.2 351.76 446.14 352.95 446.18 C 353.24 446.18 353.55 446.18 353.9 446.21 C 354.24 446.23 354.47 446.38 354.58 446.67 C 354.69 446.99 354.65 447.31 354.47 447.62 C 354.29 447.93 354.09 448.21 353.87 448.46 L 353.55 448.78 C 353.44 448.89 353.32 448.98 353.17 449.05 C 350.57 450.96 347.66 451.78 344.45 451.49 C 342.86 451.38 341.47 450.73 340.28 449.54 C 339.12 448.42 338.35 447.2 337.95 445.88 C 337.55 444.56 337.34 443.2 337.3 441.79 L 337.3 440.44 C 337.3 440.04 337.35 439.65 337.46 439.25 C 337.75 438.35 338.15 437.5 338.65 436.7 C 339.16 435.91 339.76 435.21 340.46 434.62 C 341.16 434.02 341.95 433.56 342.82 433.21 C 343.69 432.86 344.61 432.7 345.58 432.7 C 346.23 432.7 346.9 432.83 347.58 433.08 C 348.27 433.33 348.91 433.67 349.53 434.08 C 350.14 434.49 350.69 434.97 351.18 435.51 C 351.67 436.05 352.04 436.63 352.29 437.24 C 352.47 437.64 352.64 437.82 352.8 437.78 C 352.96 437.74 353.13 437.62 353.31 437.4 C 353.85 436.82 354.44 436.29 355.07 435.8 C 355.7 435.31 356.32 434.83 356.94 434.37 C 357.73 433.79 358.49 433.18 359.21 432.53 C 359.93 431.88 360.65 431.25 361.38 430.63 C 361.6 430.41 361.6 430.22 361.38 430.03 C 361.13 429.85 360.88 429.65 360.65 429.43 Z" fill="#FFFFFF"/><path d=" M 404.22 437.21 C 403.86 435.69 403.37 434.18 402.76 432.66 C 402.69 432.48 402.62 432.29 402.54 432.09 C 402.47 431.89 402.36 431.7 402.22 431.52 C 401.28 430.29 400.31 429.09 399.3 427.92 C 398.29 426.75 397.04 425.78 395.56 425.02 C 393.9 424.15 392.23 423.48 390.55 422.99 C 388.87 422.5 387.15 422.26 385.38 422.26 C 384.01 422.26 382.6 422.4 381.16 422.69 C 379.72 422.98 378.32 423.41 376.96 423.99 C 375.61 424.57 374.35 425.28 373.2 426.13 C 372.04 426.98 371.05 427.98 370.22 429.14 C 369.43 430.22 368.72 431.35 368.11 432.52 C 367.5 433.69 367.03 434.93 366.7 436.23 C 366.38 437.64 366.2 439.05 366.19 440.45 C 366.17 441.86 366.19 443.28 366.27 444.73 C 366.41 447.11 366.96 449.29 367.92 451.26 C 368.88 453.23 370.12 454.93 371.66 456.38 C 373.19 457.82 374.98 458.98 377.02 459.85 C 379.06 460.72 381.23 461.24 383.55 461.42 C 384.38 461.49 385.19 461.5 385.99 461.45 C 386.78 461.4 387.6 461.33 388.43 461.26 C 390.13 461.15 391.73 460.81 393.25 460.23 C 394.77 459.65 396.16 458.82 397.42 457.74 C 398.68 456.69 399.84 455.54 400.89 454.27 C 401.94 453.01 402.69 451.51 403.16 449.78 C 403.23 449.6 403.33 449.41 403.46 449.21 C 403.59 449.01 403.68 448.82 403.76 448.64 C 403.83 448.46 403.9 448.27 403.98 448.07 C 404.05 447.87 404.11 447.66 404.14 447.45 C 404.14 446.51 404.25 445.59 404.46 444.69 C 404.68 443.79 404.69 442.92 404.51 442.09 C 404.69 440.36 404.6 438.73 404.24 437.22 Z M 393.41 445.39 C 393.07 446.47 392.59 447.54 391.97 448.59 C 391.28 449.75 390.34 450.65 389.13 451.3 C 387.92 451.95 386.65 452.27 385.31 452.27 C 384.19 452.27 383.12 452.04 382.09 451.57 C 381.06 451.1 380.19 450.38 379.46 449.4 C 378.52 448.06 377.84 446.67 377.4 445.2 C 376.96 443.73 376.89 442.18 377.18 440.52 C 377.25 440.34 377.29 440.14 377.29 439.92 L 377.29 439.27 C 377.36 438.26 377.65 437.34 378.16 436.51 C 378.3 436.29 378.45 436.07 378.59 435.83 C 378.73 435.6 378.86 435.35 378.97 435.1 C 379.22 434.52 379.57 434.01 380.03 433.56 C 380.48 433.11 381 432.72 381.57 432.4 C 382.15 432.08 382.76 431.82 383.41 431.64 C 384.06 431.46 384.69 431.37 385.31 431.37 C 386.57 431.37 387.78 431.69 388.94 432.34 C 390.09 432.99 391.03 433.89 391.76 435.05 C 392.45 436.1 392.99 437.18 393.38 438.3 C 393.78 439.42 393.87 440.61 393.65 441.87 C 393.83 443.13 393.75 444.31 393.41 445.39 Z" fill="#FFFFFF"/><path d=" M 449.28 441.84 C 448.65 440.53 447.77 439.35 446.64 438.29 C 445.51 437.23 444.26 436.29 442.88 435.48 C 441.5 434.67 440.09 433.96 438.65 433.35 C 437.21 432.74 435.83 432.21 434.52 431.76 C 433.39 431.35 432.26 430.96 431.14 430.58 C 430.01 430.2 428.86 429.83 427.69 429.46 C 427.01 429.24 426.38 428.95 425.79 428.61 C 425.2 428.27 424.66 427.88 424.17 427.42 C 423.54 426.88 423.24 426.34 423.29 425.8 C 423.33 425.32 423.65 424.88 424.22 424.47 C 424.28 424.61 424.4 424.65 424.59 424.59 C 424.77 424.59 424.86 424.52 424.86 424.39 C 424.9 424.25 424.89 424.16 424.83 424.12 C 424.83 424.12 424.81 424.1 424.81 424.1 C 424.88 424.07 424.95 424.03 425.03 424.01 C 425.23 423.94 425.45 423.86 425.67 423.77 C 426.44 423.54 427.22 423.42 428.01 423.4 C 428.8 423.38 429.6 423.43 430.41 423.57 C 431.36 423.75 432.32 423.93 433.29 424.11 C 434.26 424.29 435.22 424.49 436.17 424.72 C 437.21 424.99 438.24 425.32 439.28 425.7 C 440.32 426.08 441.24 426.68 442.06 427.49 C 442.33 427.81 442.56 427.91 442.74 427.79 C 442.92 427.68 443.06 427.44 443.15 427.08 C 443.51 425.77 443.87 424.44 444.23 423.09 C 444.59 421.74 444.95 420.38 445.31 419.03 C 445.49 418.35 445.69 417.68 445.92 417 C 446.15 416.32 446.35 415.62 446.53 414.9 C 446.62 414.76 446.67 414.6 446.67 414.39 C 446.67 414.18 446.49 414.11 446.13 414.15 C 444.46 414.38 442.81 414.39 441.19 414.18 C 439.57 413.98 437.92 413.76 436.25 413.54 C 434.94 413.4 433.66 413.22 432.39 413 C 431.13 412.77 429.91 412.77 428.73 413 C 427.2 413.05 425.74 413.11 424.36 413.2 C 422.98 413.29 421.65 413.5 420.37 413.84 C 419.08 414.18 417.84 414.66 416.65 415.3 C 415.45 415.93 414.27 416.83 413.1 418.01 C 411.16 420.04 410.05 422.2 409.78 424.47 C 409.51 426.75 409.73 429.11 410.46 431.54 C 410.96 433.16 411.66 434.54 412.56 435.67 C 413.46 436.8 414.5 437.78 415.67 438.61 C 416.84 439.45 418.12 440.17 419.49 440.78 C 420.87 441.39 422.28 441.99 423.72 442.57 C 425.16 443.2 426.62 443.75 428.09 444.23 C 429.56 444.7 431.01 445.19 432.46 445.69 C 433.14 445.92 433.8 446.19 434.46 446.5 C 435.11 446.82 435.71 447.22 436.25 447.72 C 436.75 448.17 436.96 448.62 436.89 449.07 C 436.82 449.52 436.49 449.91 435.91 450.22 C 435.14 450.67 434.3 450.99 433.37 451.17 C 432.44 451.35 431.55 451.44 430.7 451.44 C 429.48 451.44 428.14 451.3 426.67 451.03 C 425.2 450.76 423.73 450.39 422.24 449.91 C 420.75 449.44 419.33 448.89 417.98 448.29 C 416.63 447.69 415.5 447.04 414.6 446.36 L 414.19 446.16 C 413.69 445.8 413.38 445.93 413.24 446.57 C 412.79 448.65 412.26 450.68 411.65 452.66 C 411.04 454.65 410.37 456.65 409.65 458.68 C 409.42 459.4 409.67 459.74 410.39 459.7 C 410.8 459.7 411.2 459.68 411.61 459.63 C 412.02 459.59 412.44 459.61 412.9 459.7 C 414.7 460.02 416.51 460.32 418.32 460.61 C 420.12 460.9 421.95 461.16 423.8 461.39 C 424.88 461.48 425.98 461.56 427.08 461.63 C 428.19 461.7 429.28 461.8 430.36 461.93 C 431.08 462.02 431.82 462 432.56 461.86 C 433.3 461.72 434.06 461.61 434.83 461.52 C 436.68 461.29 438.46 460.96 440.18 460.5 C 441.89 460.05 443.54 459.3 445.12 458.27 C 446.25 457.55 447.13 456.67 447.76 455.63 C 448.39 454.59 449.07 453.56 449.79 452.52 C 450.1 450.72 450.31 448.92 450.4 447.14 C 450.49 445.36 450.13 443.59 449.32 441.83 Z" fill="#FFFFFF"/><path d=" M 397.08 441.07 L 396.46 438.93 L 395.37 436.39 L 394.23 434.36 L 393.62 432.1 L 392.38 429.85 L 391.57 427.82 L 390.56 425.67 L 389.87 423.6 L 388.8 421.25 L 387.15 417.7 L 385 414.51 L 383.82 416.96 L 381.71 421.35 L 380.92 423.3 L 379.86 425.25 L 378.12 429.87 L 376.93 432.14 L 376.36 434.48 L 375.45 436.32 L 374.46 438.64 L 373.71 441.08 L 372.45 444.23 L 373.72 447.25 L 374.36 449.27 L 375.48 451.59 L 376.19 453.46 L 376.82 455.52 L 377.99 458.35 L 379.63 460.2 L 381.08 462.05 L 382.73 463.36 L 386.18 467.97 L 390.29 462.58 L 393.87 457.55 L 394.45 455.02 L 395.7 451.35 L 396.74 449.34 L 397.34 447.03 L 398.28 444.09 L 397.08 441.07 Z" fill="#FFFFFF"/><path d=" M 386.25 460.95 L 387.66 458.91 L 388.97 456.9 L 390.29 454.88 L 390.68 452.98 L 391.25 451.16 L 391.81 449.35 L 392.63 447.62 L 393.08 445.76 L 393.6 443.95 L 392.89 441.99 L 392.35 439.94 L 391.56 437.98 L 390.58 436.1 L 390.07 434.04 L 389.12 432.14 L 388.4 430.16 L 387.56 428.23 L 386.94 426.2 L 386.12 424.26 L 385.46 422.28 L 384.84 424.27 L 384.11 426.24 L 383.17 428.13 L 382.51 430.13 L 381.82 432.12 L 380.91 434.02 L 380.44 436.1 L 379.59 438.02 L 378.82 439.98 L 378.26 442.02 L 377.55 443.95 L 378.26 445.77 L 378.82 447.71 L 379.65 449.54 L 380.31 451.44 L 380.85 453.39 L 381.58 455.27 L 382.72 456.67 L 383.77 458.15 L 385.16 459.35 L 386.25 460.95 Z" fill="#F9B453"/></g></svg>