<svg version="1.1" viewBox="0 0 276.09 384.92" xmlns="http://www.w3.org/2000/svg" xmlns:xlink="http://www.w3.org/1999/xlink" id="a" overflow="hidden"><defs></defs><g><g><path d=" M 119.6 83.92 L 118.23 81.26 L 116.24 77.58 L 114.36 73.97 L 112.19 70.25 L 109.72 65.74 L 106.24 62.99 L 98.3 54.03 L 91.02 66 L 92.69 72.06 L 93.29 75.88 L 95.64 85.56 L 97.55 88.05 L 97.07 91.58 L 98.31 96.04 L 98.55 104.9 L 108.32 106.27 L 116.95 109.58 L 121.28 101.51 L 124.61 96.18 L 123.67 87.37 L 119.6 83.92 Z" stroke="#051128" stroke-width="2.83" stroke-linecap="round" stroke-linejoin="round" fill="#051128"/><path d=" M 90.58 36.19 L 90.63 39.17 L 91.09 42.27 L 91.36 44.78 L 91.43 50.39 L 96.26 53.67 L 98.3 55.14 L 100.21 56.88 L 109.52 64.26 L 112.33 53.29 L 113.57 50.49 L 115.29 44.95 L 112.87 40.16 L 110.61 36.61 L 108.21 34.13 L 106.04 32.06 L 104.16 30.06 L 101.71 27.79 L 88.9 16.68 L 90.26 33.4 L 90.58 36.19 Z" stroke="#051128" stroke-width="2.83" stroke-linecap="round" stroke-linejoin="round" fill="#051128"/><path d=" M 90.87 74.28 L 90.87 70.66 L 90.27 64.49 L 86.7 60.53 L 84.41 57.82 L 81.81 55.04 L 77.11 49.61 L 74.68 46.9 L 67.08 37.88 L 61.32 48.52 L 60.96 53.38 L 61.44 57.88 L 61.76 61.91 L 62.63 71.78 L 66.14 76.2 L 68.47 79.08 L 72.81 85.27 L 82.98 98.33 L 88.92 87.92 L 91.38 83.46 L 91.18 78.12 L 90.87 74.28 Z" stroke="#051128" stroke-width="2.83" stroke-linecap="round" stroke-linejoin="round" fill="#051128"/><path d=" M 206.42 34.44 L 204.25 36.5 L 202.56 39.07 L 201.13 40.83 L 198.73 42.11 L 194.89 46.64 L 194.86 42.72 L 182.39 54.12 L 180.28 56.41 L 179.13 58.16 L 177.55 59.55 L 175.95 61.52 L 174.52 62.91 L 173.06 64.27 L 170.95 65.81 L 169.06 67.84 L 167.13 69.73 L 165.43 71.98 L 164.06 74.14 L 163.52 74.8 L 160.6 76.27 L 159.08 79.55 L 158.06 80.68 L 156.92 82.07 L 153.48 84.38 L 153.92 82.28 L 156.03 75.65 L 157.78 72.01 L 158.8 67.85 L 160.36 62.58 L 158.34 57.14 L 157.21 52.94 L 155.47 48.69 L 153.55 45.03 L 152.85 42.26 L 155.48 46.02 L 156.74 48.11 L 158.46 50.47 L 159.69 52.49 L 167.24 62.41 L 172.4 51.7 L 173.36 49.6 L 174.54 47.86 L 176.3 45.43 L 177.85 42.41 L 179.45 38.17 L 178.64 34.07 L 177.98 31.3 L 177.33 28.84 L 176.92 26.48 L 175.33 20.85 L 171.27 8.68 L 162.82 18.46 L 160.74 21.39 L 159.23 23.77 L 157.55 25.7 L 154.29 29.71 L 154.23 34.09 L 153.69 36.43 L 152.74 41.83 L 152.52 40.95 L 150.44 36.88 L 149.07 33.22 L 147.37 29.34 L 146.12 25.31 L 144.41 21.35 L 137.64 1.42 L 131.25 21.54 L 129.92 25.06 L 127.95 28.94 L 126.48 33.29 L 125.2 36.93 L 123.2 41.02 L 122.23 45.25 L 120.71 48.58 L 119.04 52.76 L 117.77 57.16 L 115.65 62.83 L 117.79 68.25 L 118.98 72.29 L 120.76 76.09 L 121.95 79.47 L 123.01 83.19 L 124.99 88.3 L 127.77 91.68 L 130.23 95.04 L 133.01 97.4 L 139.38 106.54 L 146.89 95.96 L 152.95 86.86 L 152.98 86.73 L 153.12 90.17 L 152.58 93.49 L 153.37 96.66 L 153.27 102.77 L 159.88 104.83 L 164.3 105 L 167.6 105.83 L 171.14 104.3 L 172.88 103.73 L 174.06 103.44 L 179.87 103.79 L 182.2 97.49 L 183.88 92.02 L 184.09 89.54 L 185.1 85.97 L 186.45 83.3 L 186.72 80.27 L 187.13 78.62 L 187.69 77.06 L 189 74.7 L 189.93 71.12 L 190 69.43 L 191.16 67.42 L 191.44 64.41 L 192.16 62.26 L 192.45 60.14 L 193.95 56.35 L 193.2 66.89 L 203.2 64.28 L 207.23 63.11 L 210.5 59.08 L 212.32 56.15 L 214.35 52.65 L 215.24 49.05 L 215.79 46.23 L 216.77 43.28 L 217.25 39.89 L 217.79 26.3 L 206.42 34.44 Z" stroke="#051128" stroke-width="2.83" stroke-linecap="round" stroke-linejoin="round" fill="#051128"/><path d=" M 207.56 83.42 L 195.25 78.07 L 191.44 80.75 L 190.2 85.59 L 189.49 87.84 L 187.27 91.7 L 188.19 104.78 L 198.35 99.85 L 200.65 98.41 L 202.82 97.39 L 209.26 94.04 L 207.87 87.1 L 207.56 83.42 Z" stroke="#051128" stroke-width="2.83" stroke-linecap="round" stroke-linejoin="round" fill="#051128"/></g><path d=" M 218.6 190.51 L 220.94 178.75 L 219.89 166.99 L 220.81 155.23 L 220.62 143.47 L 219.55 131.72 L 220.75 119.97 L 220.47 108.22 L 220.39 96.46 L 220.3 84.7 L 220.27 72.95 L 219.46 70.84 L 219.7 59.08 L 219.54 49.46 C 219.52 48.43 218.71 47.61 217.71 47.62 L 208.34 47.66 L 196.9 47.6 L 185.46 48.34 L 174.02 46.65 L 162.58 46.28 L 151.14 47.1 L 139.7 46.89 L 128.26 48.1 L 116.82 48.47 L 105.38 46.69 L 93.94 48.38 L 82.5 46.68 L 71.06 48.49 L 61.18 47.11 C 60.09 46.96 59.11 47.82 59.09 48.95 L 58.94 59.09 L 59.59 70.85 L 59.46 72.96 L 59.44 84.72 L 59.77 96.48 L 59.93 108.24 L 59.57 119.99 L 58.67 131.74 L 60.58 143.49 L 60.2 155.25 L 60.59 167.01 L 58.48 178.76 L 60.68 190.51 L 59.33 202.27 L 60.76 213.55 L 68.01 221.25 L 73.63 228.75 L 84.3 236.65 L 91.52 244.71 L 101.15 245.95 L 96.63 248.74 L 107.77 257.73 L 112.29 264.23 L 119.51 267.02 L 119.51 271.67 L 125.77 282.3 L 125.77 282.3 L 128.8 285.61 L 134.69 291.18 C 136.15 292.56 138.4 292.57 139.87 291.19 L 146.02 285.42 L 153.99 277.23 L 162.83 270.01 C 164.56 268.04 166.17 259.27 166.17 259.27 L 166.17 247.18 L 168.88 255.55 L 174.07 257.84 L 178.58 253.45 L 186.75 245.49 L 194.96 237.58 L 194.96 226.43 L 199.29 219.92 L 197.78 227.36 L 200.79 231.23 C 200.79 231.23 200.82 231.66 200.86 232.4 L 203.52 230.07 L 211.03 221.38 L 219.95 214.12 L 218.53 202.29 L 218.57 190.52 Z" fill="#051128"/><path d=" M 52.67 59.53 C 52.7 58.89 52.24 58.33 51.61 58.23 L 51.61 58.23 L 50.45 58.1 L 48.92 58.17 L 47.4 58.45 L 46.05 59.19 L 44.73 59.92 L 43.46 60.76 L 42.31 61.77 L 41.43 63.03 L 40.62 64.34 L 40.1 65.79 L 39.95 67.32 L 39.86 68.83 L 39.78 70.37 L 40.08 71.88 L 40.77 73.26 L 41.36 74.68 L 42.36 75.84 L 43.37 77 L 44.69 77.79 L 46 78.57 L 47.45 79.03 L 48.94 79.32 L 50.45 79.59 L 51.61 79.47 L 51.8 79.44 C 52.36 79.34 52.78 78.89 52.84 78.33 L 52.89 77.79 L 52.74 76.3 L 52.69 74.81 L 52.85 73.32 L 52.77 71.83 L 52.81 70.34 L 52.65 68.85 L 52.65 67.36 L 52.81 65.87 L 52.72 64.38 L 52.72 61.4 L 52.65 59.91 L 52.67 59.55 Z" fill="#051128"/><path d=" M 225.4 78.17 C 225.37 78.81 225.83 79.37 226.46 79.47 L 226.46 79.47 L 227.62 79.6 L 229.15 79.53 L 230.67 79.25 L 232.02 78.51 L 233.34 77.78 L 234.61 76.94 L 235.76 75.93 L 236.64 74.67 L 237.45 73.36 L 237.97 71.91 L 238.12 70.38 L 238.21 68.87 L 238.29 67.33 L 237.99 65.82 L 237.3 64.44 L 236.71 63.02 L 235.71 61.86 L 234.7 60.7 L 233.38 59.91 L 232.07 59.13 L 230.62 58.67 L 229.13 58.38 L 227.62 58.11 L 226.46 58.23 L 226.27 58.26 C 225.71 58.36 225.29 58.81 225.23 59.37 L 225.18 59.91 L 225.33 61.4 L 225.38 62.89 L 225.22 64.38 L 225.3 65.87 L 225.26 67.36 L 225.42 68.85 L 225.42 70.34 L 225.26 71.83 L 225.35 73.32 L 225.35 76.3 L 225.42 77.79 L 225.4 78.15 Z" fill="#051128"/><path d=" M 242.34 199.66 L 243.04 196.63 L 241.57 192.66 L 243.04 189.62 L 240.77 183.45 L 242.29 181.55 L 241.83 173.99 L 237.14 169.37 L 233.89 163.54 L 228.83 159.23 L 224.45 154.34 L 220.75 148.89 L 216.93 143.54 L 212.54 138.67 L 207.97 133.95 L 203.98 128.74 L 199.22 124.17 L 195.93 118.38 L 190.59 114.29 L 186.61 109.62 C 186.43 109.4 186.23 109.2 186.03 109 L 186.03 109 C 183.99 106.98 181.17 105.94 178.3 106.14 L 175.29 106.35 L 167.86 105.54 L 163.89 105.59 C 161.55 105.62 159.23 106 157 106.73 L 153.18 107.98 L 150.71 108.5 C 147.53 109.17 144.85 109.78 142.08 111.48 L 138.67 113.08 L 135.45 111.48 C 132.86 109.92 130.59 109.72 127.64 109.04 L 124.89 108.41 L 122.85 107.69 C 119.51 106.51 115.94 106.1 112.42 106.48 L 110.26 106.72 L 106.71 106.13 C 104.15 105.7 101.53 105.7 98.96 106.11 L 95.46 106.68 L 90.89 108.52 L 87.55 114.27 L 83.03 119.04 L 79.24 124.42 L 74.16 128.72 L 69.51 133.37 L 65.47 138.53 L 61.91 144.1 L 57.76 149.17 L 53.38 154.06 L 49.16 159.09 L 44.34 163.61 L 41.22 169.55 L 35.9 173.65 L 35.93 181.53 L 37.41 183.62 L 35.98 189.62 L 37.31 192.7 L 35.94 196.66 L 36.63 199.97 L 31.15 206.05 L 31.15 210.08 L 33.74 214.23 L 37.94 216.34 L 45.25 215.66 L 52.6 217.03 L 59.9 216.01 L 67.23 216.27 L 73.4 215.49 L 79.51 216.46 L 85.57 217.52 L 91.52 219.06 L 97.62 220.23 L 103.69 223.53 L 110.23 225.52 L 116.53 228.2 L 123.32 229.71 L 127.66 234.25 L 133.28 236.95 L 139.39 237.71 L 145.25 236.22 L 150.98 234.09 L 155.83 230.42 L 162.9 228.24 L 169.84 225.58 L 176.47 222.04 L 183.79 220.41 L 189.66 217.38 L 196.25 217.1 L 202.66 216.26 L 209.13 215.97 L 215.45 216.92 L 221.79 216.92 L 228.13 216.82 L 234.47 217.05 L 240.82 216.73 L 245.15 214.37 L 247.3 210.1 L 247.11 206.07 L 242.34 199.72 Z" fill="#051128"/><path d=" M 183.63 114.59 L 189.17 122.13 L 190.14 124.13 L 191.3 126.01 L 193.11 127.34 L 194.45 129.08 L 195.47 131.09 L 197.07 132.59 L 207 144.21 L 208.65 145.69 L 209.54 147.76 L 211.3 149.17 L 212.3 151.2 L 214.29 152.35 L 215.43 154.26 L 216.76 156.01 L 218.53 157.36 L 220.2 158.82 L 221.19 160.83 L 224.11 164.11 L 225.15 166.09 L 229.56 170.94 L 231.47 172.18 L 232.7 174.01 L 234.16 175.68 L 235.54 177.41 L 236.49 179.1 L 227.25 177.33 L 224.89 176.84 L 222.45 176.86 L 210.61 174.83 L 208.17 174.89 L 206.06 174.4 L 199.67 173.51 L 197.54 173.14 L 195.37 173.26 L 193.21 172.78 L 191.05 172.73 L 188.91 173.3 L 186.72 173.03 L 184.63 173.85 L 174.07 175.9 L 171.88 175.97 L 169.66 176.03 L 167.79 177.27 L 165.61 177.62 L 163.73 178.77 L 153.83 182.71 L 151.93 183.6 L 149.87 184.18 L 147.92 185.09 L 146.26 186.56 L 144.28 187.41 L 142.18 188.63 L 142.6 185.99 L 142.12 183.55 L 142.81 181.16 L 142.49 169.5 L 142.56 167.16 L 142.64 164.83 L 142.44 162.5 L 142.09 160.16 L 142.84 157.85 L 142.4 153.17 L 142.17 146.16 L 142.27 143.82 L 142.24 141.47 L 142.77 139.16 L 142.58 136.83 L 142.5 134.49 L 142.42 129.84 L 142.51 125.15 L 142.08 122.82 L 142.85 120.49 L 142.63 118.25 L 144.27 117.83 L 145.93 117 L 147.81 117.04 L 156.69 114.64 L 159.02 114.68 L 161.22 113.7 L 163.54 113.8 L 165.8 113.19 L 168.11 113.01 L 175.06 113.06 L 177.28 113.78 L 179.58 114.05 L 181.91 114.15 L 183.63 114.59 Z" fill="#F9B453"/><path d=" M 96.1 113.9 L 95.33 116.01 L 93.23 117.08 L 90.86 120.82 L 88.89 121.99 L 87.96 124.07 L 86.5 125.7 L 82.49 130.9 L 81.02 132.53 L 79.54 134.13 L 78.24 135.91 L 76.28 137.05 L 74.7 138.61 L 73.37 140.36 L 72.07 142.12 L 70.76 143.88 L 69.66 145.81 L 64.95 150.47 L 64.27 152.66 L 62.93 154.42 L 61.13 155.74 L 59.53 157.24 L 58.46 159.24 L 56.69 160.62 L 55.58 162.52 L 54.44 164.43 L 52.81 165.91 L 51.53 167.72 L 51.11 169.96 L 44.06 175.61 L 43.03 177.49 L 41.87 178.96 L 43.95 178.61 L 55.73 176.97 L 58.07 176.43 L 60.37 175.68 L 62.83 175.78 L 65.12 174.74 L 67.53 174.6 L 78.47 173.39 L 80.64 173.68 L 82.78 173.12 L 84.94 173.14 L 87.12 173.64 L 89.26 173.37 L 91.4 173.56 L 93.56 173.73 L 104.04 175.99 L 106.23 176.14 L 108.18 177.2 L 110.41 177.2 L 112.35 178.31 L 116.41 179.54 L 120.35 181.33 L 129.82 185.77 L 131.88 186.16 L 133.74 187.04 L 135.7 188.1 L 136.41 185.59 L 135.58 178.84 L 136.01 176.48 L 135.41 174.16 L 135.98 164.81 L 135.41 162.51 L 135.46 160.16 L 135.85 157.85 L 135.62 155.48 L 136.41 153.17 L 135.84 150.83 L 135.62 141.5 L 135.42 139.16 L 135.58 136.83 L 135.26 134.5 L 135.63 127.48 L 136.29 125.16 L 135.78 118.04 L 133.71 116.14 L 131.8 115.37 L 128.97 115.93 L 125.96 115.63 L 123.82 114.67 L 121.45 114.71 L 119.27 113.83 L 110.02 113.06 L 107.74 113.81 L 98.48 113.19 L 96.17 113.71 L 96.1 113.9 Z" fill="#F9B453"/><path d=" M 46.08 185.95 L 48.81 185.19 L 55.4 183.62 L 62.16 183.08 L 68.8 181.84 L 75.42 180.41 L 82.23 180.49 L 89.01 180.61 L 95.71 181.67 L 102.31 183.22 L 108.83 185.18 L 114.61 187.47 L 120.18 190.26 L 126.18 192 L 131.71 194.65 L 112.35 191.26 L 105.8 188.73 L 99.76 187.04 L 93.72 185.35 L 87.57 184.03 L 81.3 183.47 L 75.01 183.89 L 68.42 184.08 L 61.88 185.14 L 55.25 184.93 L 48.7 185.67 L 46.08 185.95 Z" fill="#BF5537"/><path d=" M 46.33 196.85 L 48.24 195.07 L 55.45 195.61 L 62.12 194.95 L 68.78 194.16 L 75.47 193.66 L 82.23 192.87 L 89.05 193.04 L 95.83 193.88 L 102.39 195.76 L 108.84 197.99 L 112.7 202.72 L 120.4 202.55 L 126.2 204.79 L 130.38 208.5 L 131.93 212.21 L 125.37 209.34 L 118.7 207.13 L 112.35 203.26 L 105.71 201.76 L 99.82 199.65 L 93.79 197.86 L 87.55 197.09 L 81.28 196.78 L 75.01 196.66 L 68.45 197.3 L 62.07 196.27 L 55.72 196.53 L 48.16 198.5 L 46.33 196.85 Z" fill="#9B503A"/><path d=" M 230.49 186.7 L 229.53 186.49 L 222.89 185.28 L 216.16 184.54 L 209.48 183.5 L 202.89 181.9 L 196.05 182.05 L 190.54 183.89 L 182.49 182.9 L 175.99 184.93 L 169.59 187.19 L 163.79 189.44 L 159 195.27 L 152.83 195.15 L 149.03 197.39 L 146.34 201.08 L 153.52 199.53 L 159.46 195.66 L 165.89 192.84 L 172.62 190.74 L 178.54 188.77 L 184.5 186.73 L 190.61 184.52 L 196.99 185.19 L 203.25 185.89 L 209.86 185.81 L 216.41 186.74 L 222.99 187.19 L 229.6 187.15 L 230.49 186.7 Z" fill="#BF5537"/><path d=" M 231.74 196.72 L 229.74 194.54 L 223.24 196.28 L 216.55 195.87 L 209.92 194.81 L 203.26 194.03 L 196.46 193.78 L 189.64 193.82 L 182.86 194.64 L 176.35 196.68 L 172.21 199.99 L 164.09 201.07 L 158.34 203.42 L 152.58 205.76 L 148.8 209.47 L 146.83 212.75 L 153.42 210.37 L 159.97 207.83 L 166.32 204.79 L 172.56 200.63 L 178.82 200.24 L 184.97 198.98 L 191.14 197.84 L 197.41 197.62 L 203.69 197.34 L 210.25 197.61 L 216.52 197.03 L 222.79 197.29 L 230.38 199.6 L 231.74 196.72 Z" fill="#9B503A"/><path d=" M 178.94 208.82 L 171.62 210.64 L 164.49 212.96 L 157.5 215.7 L 150.79 219.06 L 143.54 224.24 L 139.38 224.25 L 135.47 223.92 L 129.22 219.04 L 121.81 216.06 L 115.38 213.66 L 108.74 211.79 L 102.3 209.4 L 95.84 207 L 88.93 206.4 L 82.29 204.56 L 75.4 204.61 L 68.57 204.61 L 62.39 203.97 L 56.26 204.74 L 50.09 204.47 L 43.23 204.17 L 37.95 206.89 L 38.8 208.42 L 45.1 208.41 L 52.44 209.41 L 59.75 208.93 L 67.06 208.51 L 73.69 208.56 L 80.39 208.37 L 86.88 210.02 L 93.44 211.2 L 99.79 213.26 L 106.33 215.99 L 112.77 218.99 L 119.72 220.61 L 127.48 222.54 L 134.2 228.8 L 139.38 230.09 L 143.96 229.22 L 152.13 222.54 L 158.08 220.68 L 164.17 219.43 L 170.09 217.72 L 175.68 215.07 L 181.69 213.6 L 188.12 210.48 L 195.09 208.97 L 202.17 208.23 L 209.26 209.19 L 215.62 208.28 L 221.97 208.12 L 228.3 208.52 L 235.16 210.32 L 240.4 208.87 L 240.97 206.88 L 237.79 205.3 L 234.31 205.19 L 227.66 204.82 L 221.02 204.26 L 214.38 203.65 L 207.71 203.54 L 200.3 203.26 L 193.05 204.89 L 185.66 205.59 L 178.94 208.82 Z" fill="#005A8A"/><path d=" M 97.92 122.93 L 99.72 122.22 L 104.62 122.93 L 108.75 122.08 L 114.74 122.51 L 119.87 125.62 L 123.15 125.76 L 127.28 124.63 L 128.57 125.76 L 127.85 127.73 L 123.58 126.89 L 119.87 126.75 L 116.31 127.17 L 112.65 125.62 L 106.01 125.94 L 98.48 124.77 L 97.92 122.93 Z" fill="#051128"/><path d=" M 89.22 133.64 L 92.99 132.91 L 98.21 133.49 L 103.83 133.69 L 107.28 135.4 L 113.95 137.9 L 116.65 137.99 L 122.67 136.53 L 125.89 136.37 L 128.38 137.44 L 128.65 138.73 L 126 140.94 L 122.59 140.79 L 116.49 139.28 L 113.68 139.12 L 107.82 138.98 L 102.69 138.21 L 97.13 136.8 L 91.87 136.53 L 88.07 136.63 L 86.57 135.32 L 89.22 133.64 Z" fill="#051128"/><path d=" M 79.3 148.2 L 82.76 147.16 L 91.79 147.45 L 98.85 148.16 L 105.79 151.08 L 105.75 151.88 L 97.09 152.56 L 91.32 151.17 L 84.7 150.22 L 80.56 150.15 L 79.3 148.2 Z" fill="#051128"/><path d=" M 127.48 167.56 L 118.86 163.45 L 111.08 161.9 L 104.15 162.75 L 100.04 163.45 L 92.41 163.03 L 85.48 160.48 L 77.13 158.79 L 70.34 158.79 L 65.53 161.61 L 64.12 165.15 L 67.09 165.72 L 76.57 163.17 L 84.77 164.58 L 88.9 166 L 97.92 164.58 L 101.46 164.87 L 107.12 167.56 L 118.71 168.83 L 123.66 170.67 L 127.48 169.96 L 127.48 167.56 Z" fill="#051128"/><path d=" M 179.7 122.93 L 177.9 122.22 L 173 122.93 L 168.87 122.08 L 162.88 122.51 L 157.33 123.67 L 154.13 124.91 L 150.34 124.63 L 149.84 126.38 L 150.9 127.22 L 154.05 126.89 L 157.75 126.75 L 161.32 127.17 L 164.97 125.62 L 171.61 125.94 L 179.14 124.77 L 179.7 122.93 Z" fill="#051128"/><path d=" M 188.41 133.64 L 184.63 132.91 L 179.42 133.49 L 173.8 133.69 L 170.35 135.4 L 163.68 137.9 L 160.98 137.99 L 154.95 136.53 L 151.74 136.37 L 149.25 137.44 L 148.98 138.73 L 151.62 140.94 L 155.04 140.79 L 161.14 139.28 L 163.95 139.12 L 169.81 138.98 L 174.93 138.21 L 180.49 136.8 L 185.76 136.53 L 189.56 136.63 L 191.05 135.32 L 188.41 133.64 Z" fill="#051128"/><path d=" M 198.33 148.2 L 194.86 147.16 L 185.84 147.45 L 178.77 148.16 L 171.83 151.08 L 171.88 151.88 L 180.53 152.56 L 186.3 151.17 L 192.93 150.22 L 197.07 150.15 L 198.33 148.2 Z" fill="#051128"/><path d=" M 151.71 151.8 L 154.26 150.21 L 161.4 149.15 L 167.06 148.8 L 172.99 150.76 L 173.08 151.59 L 166.4 153.59 L 161.64 153.03 L 156.28 153.07 L 153.02 153.61 L 151.71 151.8 Z" fill="#051128"/><path d=" M 150.14 167.56 L 158.77 163.45 L 166.55 161.9 L 173.48 162.75 L 177.58 163.45 L 185.22 163.03 L 192.15 160.48 L 200.49 158.79 L 207.28 158.79 L 212.09 161.61 L 213.51 165.15 L 210.54 165.72 L 201.06 163.17 L 192.86 164.58 L 188.73 166 L 179.7 164.58 L 176.17 164.87 L 170.51 167.56 L 158.91 168.83 L 153.96 170.67 L 150.14 169.96 L 150.14 167.56 Z" fill="#051128"/><g><path d=" M 189.67 208.88 L 191.9 203.12 L 191.9 198.61 L 191.17 186.89 L 203.28 188.48 L 209.26 188.03 L 217.83 190.02 L 218.88 201.94 L 218.12 208.54 L 218.12 218.57 L 207.34 216.25 L 203.9 214.22 L 200.68 216.15 L 189.67 218.62 L 189.67 208.88 Z" fill="#E7344B"/><path d=" M 195.73 191.77 L 203.16 192.75 L 208.92 192.32 L 213.86 193.47 L 214.6 201.89 L 213.86 208.31 L 213.86 213.32 L 208.9 212.25 L 203.89 209.29 L 199.08 212.16 L 193.92 213.32 L 193.92 209.69 L 196.15 203.92 L 196.15 198.48 L 195.73 191.78 M 186.6 182 L 187.24 192.31 L 187.64 198.75 L 187.64 202.34 L 185.98 206.63 L 185.41 208.11 L 185.41 223.95 L 195.78 221.62 L 200.94 220.46 L 202.27 220.16 L 203.44 219.46 L 203.91 219.18 L 204.58 219.57 L 205.77 220.27 L 207.12 220.56 L 212.08 221.63 L 222.37 223.85 L 222.37 208.8 L 223.06 202.87 L 223.16 202.01 L 223.08 201.15 L 222.34 192.73 L 221.8 186.59 L 215.79 185.2 L 210.85 184.05 L 209.59 183.76 L 208.3 183.86 L 203.41 184.23 L 196.85 183.37 L 186.61 182.02 L 186.61 182.02 Z" fill="#051128"/></g><path d=" M 139.53 97.6 L 142.42 93.53 L 145.09 89.5 L 147.78 85.45 L 148.59 81.65 L 149.75 78.02 L 150.9 74.39 L 152.57 70.93 L 153.48 67.21 L 154.55 63.59 L 153.09 59.66 L 151.99 55.55 L 150.38 51.64 L 148.38 47.88 L 147.34 43.75 L 145.4 39.97 L 143.92 36 L 142.21 32.13 L 140.95 28.08 L 139.27 24.19 L 137.92 20.22 L 136.66 24.2 L 135.16 28.15 L 133.24 31.93 L 131.89 35.93 L 130.49 39.91 L 128.63 43.72 L 127.67 47.87 L 125.92 51.72 L 124.36 55.65 L 123.21 59.73 L 121.77 63.59 L 123.2 67.24 L 124.35 71.11 L 126.06 74.77 L 127.4 78.58 L 128.51 82.47 L 129.99 86.23 L 132.31 89.05 L 134.47 92 L 137.3 94.4 L 139.53 97.6 Z" fill="#005A8A"/><path d=" M 118.93 95.66 L 116.52 99.51 L 114.44 103.38 L 109.83 101.62 L 104.14 100.82 L 104.01 96.01 L 102.89 92 L 103.52 87.3 L 100.92 83.91 L 99.94 79.86 L 98.93 75.82 L 98.28 71.69 L 97.18 67.66 L 99.25 64.26 L 102.48 67.9 L 105.45 70.24 L 107.4 73.83 L 109.49 77.38 L 111.38 81.02 L 113.34 84.64 L 115.22 88.3 L 118.43 91.02 L 118.93 95.66 Z" fill="#005A8A"/><path d=" M 187.85 57.57 L 186.37 58.99 L 184.83 60.67 L 183.51 62.69 L 181.7 64.27 L 180.2 66.13 L 178.49 67.79 L 176.75 69.41 L 174.8 70.85 L 173.17 72.58 L 171.46 74.26 L 170.01 76.18 L 168.73 78.22 L 167.21 80.09 L 164.97 81.22 L 163.92 83.5 L 162.32 85.26 L 160.84 87.07 L 158.73 88.49 L 158.85 91.33 L 158.4 94.07 L 159.09 96.83 L 159.05 99.47 L 160.94 100.06 L 163.04 100.14 L 165.22 100.24 L 167.22 100.74 L 169.24 99.86 L 171.43 99.14 L 173.66 98.6 L 176.15 98.75 L 177.04 96.36 L 177.74 94.06 L 178.44 91.77 L 178.65 89.34 L 179.3 87.04 L 179.95 84.74 L 181.05 82.55 L 181.27 80.14 L 181.86 77.81 L 182.66 75.55 L 183.85 73.42 L 184.45 71.09 L 184.56 68.63 L 185.79 66.5 L 186.01 64.07 L 186.77 61.79 L 187.09 59.52 L 187.85 57.57 Z" fill="#00305D"/><path d=" M 169.17 20.63 L 170.03 23.2 L 170.76 25.73 L 171.49 28.26 L 171.95 30.86 L 172.62 33.41 L 173.23 35.97 L 173.73 38.5 L 172.81 40.95 L 171.6 43.3 L 170.04 45.46 L 168.55 47.66 L 167.45 50.08 L 166.25 52.56 L 164.59 50.39 L 163.22 48.14 L 161.65 46.03 L 160.3 43.78 L 158.73 41.54 L 159.26 38.51 L 159.94 35.58 L 159.98 32.55 L 161.88 30.2 L 163.85 27.95 L 165.45 25.41 L 167.16 22.95 L 169.17 20.63 Z" fill="#F9B453"/><path d=" M 105.86 41.3 L 107.52 43.88 L 108.92 46.64 L 107.97 49.7 L 106.67 52.63 L 105.89 55.68 L 103.65 53.91 L 101.5 51.95 L 99.14 50.25 L 96.67 48.58 L 96.63 45.62 L 96.32 42.75 L 95.9 39.89 L 95.85 37 L 95.51 34.13 L 95.27 31.1 L 97.58 33.11 L 99.72 35.07 L 101.72 37.2 L 103.84 39.21 L 105.86 41.3 Z" fill="#009BA7"/><path d=" M 66.93 50.95 L 66.7 54.1 L 67.14 58.17 L 67.46 62.24 L 67.81 66.32 L 68.18 70.42 L 70.61 73.49 L 73.05 76.51 L 75.29 79.68 L 77.52 82.87 L 79.91 85.94 L 82.36 89.08 L 84.15 85.95 L 85.81 82.93 L 85.67 79.15 L 85.36 75.32 L 85.36 71.47 L 84.98 67.7 L 82.58 65.04 L 80.23 62.27 L 77.74 59.61 L 75.36 56.85 L 72.98 54.11 L 70.54 51.4 L 68.2 48.61 L 66.93 50.95 Z" fill="#BF5537"/><path d=" M 212.23 37.12 L 210.65 39.07 L 208.69 40.94 L 207.19 43.21 L 205.49 45.3 L 203.68 47.3 L 201.63 49.1 L 200.1 51.31 L 199.93 54.24 L 199.67 57.18 L 199.45 60.3 L 201.89 59.66 L 204.08 59.02 L 206.02 56.63 L 207.66 54 L 209.19 51.35 L 209.89 48.51 L 210.45 45.62 L 211.39 42.8 L 211.8 39.87 L 212.23 37.12 Z" fill="#009BA7"/><path d=" M 193.31 96.92 L 193.09 93.83 L 194.76 90.93 L 195.7 87.95 L 196.47 84.96 L 198.44 83.57 L 200.68 82.09 L 202.14 85.58 L 202.41 88.7 L 203.03 91.82 L 200.54 93.12 L 198.05 94.28 L 195.72 95.75 L 193.31 96.92 Z" fill="#009BA7"/><path d=" M 20.64 140.17 C 20.63 140.55 20.59 140.99 20.53 141.47 C 20.47 141.96 20.37 142.44 20.25 142.92 C 20.13 143.41 19.97 143.87 19.76 144.31 C 19.56 144.75 19.3 145.1 18.99 145.37 C 18.86 145.48 18.74 145.61 18.64 145.73 C 18.54 145.85 18.42 145.99 18.3 146.13 C 18.26 146.17 18.23 146.21 18.2 146.24 C 18.17 146.28 18.13 146.31 18.08 146.34 C 17.86 146.42 17.65 146.5 17.44 146.6 C 17.23 146.7 17.02 146.78 16.81 146.86 C 16.6 146.94 16.38 147 16.16 147.04 C 15.94 147.08 15.7 147.1 15.46 147.09 C 15.09 147.08 14.73 147.03 14.38 146.94 C 14.03 146.85 13.68 146.74 13.34 146.61 C 13.07 146.52 12.82 146.39 12.59 146.21 C 12.36 146.03 12.17 145.81 12.02 145.56 C 11.99 145.53 11.98 145.51 11.96 145.47 C 11.94 145.43 11.93 145.41 11.9 145.38 C 11.49 144.9 11.17 144.38 10.94 143.82 C 10.71 143.27 10.54 142.67 10.44 142.03 C 10.34 141.29 10.3 140.56 10.32 139.83 C 10.34 139.1 10.42 138.38 10.56 137.65 C 10.62 137.28 10.73 136.91 10.89 136.55 C 11.04 136.19 11.22 135.84 11.41 135.51 C 11.63 135.14 11.89 134.82 12.19 134.53 C 12.5 134.25 12.83 134.01 13.2 133.82 C 13.56 133.63 13.95 133.48 14.36 133.39 C 14.77 133.3 15.18 133.25 15.6 133.25 C 16.16 133.25 16.69 133.36 17.18 133.57 C 17.67 133.78 18.12 134.06 18.52 134.42 C 18.92 134.78 19.27 135.19 19.55 135.65 C 19.84 136.12 20.06 136.61 20.21 137.13 C 20.31 137.49 20.39 137.84 20.45 138.19 C 20.51 138.54 20.57 138.89 20.63 139.25 C 20.66 139.4 20.66 139.56 20.66 139.71 C 20.66 139.86 20.65 140.01 20.65 140.15 Z M 14.13 140.07 C 14.13 140.53 14.16 140.99 14.22 141.44 C 14.28 141.89 14.36 142.34 14.46 142.79 C 14.49 142.89 14.53 143.01 14.58 143.13 C 14.63 143.25 14.71 143.38 14.79 143.49 C 14.87 143.6 14.97 143.7 15.08 143.78 C 15.19 143.86 15.3 143.89 15.42 143.89 C 15.54 143.89 15.64 143.85 15.75 143.78 C 15.85 143.7 15.95 143.61 16.04 143.49 C 16.13 143.37 16.2 143.25 16.26 143.13 C 16.32 143.01 16.37 142.89 16.4 142.8 C 16.58 142.35 16.68 141.9 16.72 141.44 C 16.75 140.98 16.77 140.53 16.79 140.08 C 16.79 139.86 16.78 139.6 16.75 139.28 C 16.72 138.96 16.68 138.64 16.62 138.31 C 16.56 137.98 16.47 137.68 16.37 137.39 C 16.27 137.1 16.13 136.88 15.97 136.71 C 15.82 136.53 15.66 136.44 15.51 136.44 C 15.38 136.44 15.23 136.53 15.05 136.71 C 14.95 136.81 14.87 136.92 14.8 137.04 C 14.74 137.15 14.67 137.28 14.61 137.42 C 14.46 137.84 14.34 138.27 14.26 138.71 C 14.18 139.15 14.14 139.6 14.15 140.06 Z" fill="#051128"/><path d=" M 274.81 126.56 C 274.99 126.93 275.18 127.36 275.36 127.85 C 275.55 128.34 275.71 128.84 275.84 129.36 C 275.97 129.88 276.05 130.4 276.08 130.92 C 276.11 131.44 276.05 131.9 275.9 132.31 C 275.84 132.48 275.79 132.66 275.75 132.83 C 275.71 133 275.67 133.19 275.64 133.38 C 275.62 133.44 275.61 133.49 275.6 133.54 C 275.59 133.59 275.57 133.64 275.53 133.69 C 275.36 133.87 275.21 134.06 275.06 134.26 C 274.91 134.46 274.75 134.65 274.6 134.82 C 274.44 135 274.27 135.17 274.08 135.32 C 273.89 135.48 273.68 135.61 273.44 135.72 C 273.08 135.9 272.72 136.03 272.34 136.12 C 271.96 136.21 271.58 136.29 271.19 136.34 C 270.89 136.39 270.59 136.39 270.28 136.34 C 269.97 136.29 269.68 136.18 269.41 136.02 C 269.37 136.01 269.34 135.99 269.31 135.97 C 269.28 135.95 269.25 135.93 269.21 135.92 C 268.58 135.67 268.01 135.34 267.51 134.93 C 267.01 134.52 266.55 134.04 266.13 133.49 C 265.66 132.84 265.25 132.17 264.89 131.48 C 264.54 130.78 264.24 130.06 264.01 129.3 C 263.88 128.92 263.8 128.52 263.76 128.1 C 263.72 127.68 263.71 127.26 263.72 126.85 C 263.74 126.39 263.82 125.95 263.96 125.53 C 264.11 125.11 264.3 124.72 264.55 124.35 C 264.8 123.98 265.09 123.65 265.42 123.36 C 265.75 123.07 266.12 122.81 266.52 122.59 C 267.05 122.3 267.6 122.14 268.17 122.09 C 268.74 122.04 269.31 122.09 269.87 122.21 C 270.43 122.34 270.97 122.56 271.47 122.85 C 271.98 123.14 272.44 123.5 272.85 123.91 C 273.13 124.2 273.38 124.49 273.62 124.79 C 273.86 125.09 274.09 125.4 274.33 125.7 C 274.43 125.83 274.52 125.97 274.59 126.12 C 274.66 126.27 274.73 126.41 274.8 126.54 Z M 268.62 129.78 C 268.85 130.21 269.11 130.63 269.4 131.03 C 269.68 131.43 269.99 131.81 270.31 132.18 C 270.39 132.26 270.48 132.35 270.6 132.44 C 270.72 132.53 270.85 132.61 270.98 132.68 C 271.11 132.75 271.26 132.79 271.4 132.81 C 271.54 132.83 271.67 132.81 271.77 132.75 C 271.87 132.69 271.96 132.6 272.02 132.48 C 272.08 132.36 272.12 132.22 272.15 132.06 C 272.18 131.9 272.18 131.75 272.17 131.61 C 272.16 131.47 272.15 131.33 272.14 131.23 C 272.08 130.72 271.95 130.24 271.75 129.79 C 271.55 129.34 271.34 128.9 271.12 128.47 C 271.01 128.27 270.86 128.02 270.68 127.73 C 270.5 127.44 270.29 127.16 270.06 126.89 C 269.83 126.62 269.6 126.37 269.36 126.15 C 269.12 125.93 268.88 125.79 268.64 125.71 C 268.4 125.62 268.21 125.61 268.07 125.69 C 267.95 125.76 267.85 125.92 267.77 126.18 C 267.73 126.33 267.7 126.47 267.7 126.61 C 267.7 126.75 267.7 126.9 267.71 127.07 C 267.78 127.55 267.89 128.01 268.03 128.47 C 268.17 128.93 268.37 129.37 268.62 129.8 Z" fill="#051128"/><path d=" M 246.07 102.44 C 246.06 102.85 246.02 103.32 245.95 103.84 C 245.88 104.36 245.78 104.88 245.65 105.4 C 245.52 105.92 245.35 106.42 245.13 106.89 C 244.91 107.36 244.64 107.74 244.31 108.03 C 244.17 108.15 244.05 108.28 243.93 108.42 C 243.81 108.56 243.69 108.7 243.57 108.85 C 243.53 108.89 243.49 108.93 243.46 108.97 C 243.43 109.01 243.38 109.05 243.33 109.07 C 243.1 109.15 242.87 109.24 242.64 109.35 C 242.41 109.45 242.19 109.54 241.96 109.63 C 241.73 109.71 241.5 109.78 241.26 109.82 C 241.02 109.87 240.77 109.89 240.51 109.87 C 240.11 109.86 239.73 109.8 239.35 109.71 C 238.97 109.61 238.6 109.5 238.23 109.36 C 237.94 109.26 237.68 109.12 237.43 108.93 C 237.18 108.74 236.98 108.51 236.81 108.23 C 236.78 108.2 236.76 108.17 236.75 108.14 C 236.74 108.11 236.72 108.07 236.69 108.05 C 236.25 107.53 235.91 106.97 235.66 106.38 C 235.41 105.79 235.24 105.15 235.13 104.46 C 235.02 103.67 234.98 102.88 235 102.1 C 235.02 101.32 235.11 100.54 235.26 99.76 C 235.33 99.36 235.44 98.97 235.61 98.58 C 235.77 98.19 235.96 97.82 236.16 97.46 C 236.39 97.06 236.67 96.72 237 96.41 C 237.33 96.11 237.69 95.86 238.08 95.65 C 238.47 95.44 238.88 95.29 239.32 95.19 C 239.76 95.09 240.2 95.04 240.65 95.04 C 241.25 95.04 241.82 95.15 242.34 95.38 C 242.86 95.61 243.35 95.91 243.78 96.29 C 244.21 96.67 244.58 97.11 244.89 97.61 C 245.2 98.11 245.43 98.64 245.6 99.2 C 245.71 99.58 245.79 99.96 245.86 100.34 C 245.93 100.72 245.99 101.1 246.06 101.48 C 246.09 101.64 246.1 101.81 246.09 101.97 C 246.09 102.13 246.08 102.29 246.08 102.44 Z M 239.09 102.34 C 239.09 102.83 239.12 103.32 239.18 103.81 C 239.24 104.3 239.33 104.78 239.44 105.26 C 239.47 105.37 239.51 105.49 239.57 105.63 C 239.63 105.77 239.71 105.9 239.8 106.02 C 239.89 106.14 239.99 106.25 240.11 106.33 C 240.23 106.41 240.35 106.45 240.47 106.45 C 240.59 106.45 240.71 106.41 240.82 106.33 C 240.93 106.25 241.03 106.15 241.13 106.02 C 241.23 105.89 241.3 105.77 241.37 105.63 C 241.44 105.49 241.48 105.38 241.52 105.28 C 241.71 104.8 241.82 104.32 241.86 103.82 C 241.89 103.33 241.92 102.84 241.93 102.36 C 241.93 102.13 241.92 101.84 241.89 101.5 C 241.86 101.16 241.81 100.81 241.75 100.46 C 241.68 100.11 241.59 99.78 241.48 99.47 C 241.37 99.16 241.23 98.92 241.05 98.74 C 240.89 98.55 240.72 98.45 240.56 98.45 C 240.42 98.45 240.26 98.55 240.07 98.74 C 239.96 98.85 239.87 98.97 239.8 99.09 C 239.73 99.21 239.66 99.35 239.59 99.5 C 239.43 99.95 239.3 100.41 239.21 100.89 C 239.12 101.36 239.08 101.84 239.1 102.34 Z" fill="#051128"/><path d=" M 26.19 109.09 C 26.04 109.03 25.96 108.98 25.95 108.95 C 25.95 108.91 25.98 108.82 26.07 108.67 C 26.28 108.32 26.46 107.96 26.64 107.59 C 26.81 107.22 26.97 106.84 27.11 106.45 C 27.36 105.79 27.61 105.15 27.86 104.52 C 28.12 103.89 28.38 103.25 28.65 102.6 C 28.82 102.21 28.96 101.81 29.09 101.42 C 29.21 101.02 29.38 100.64 29.6 100.27 C 29.63 100.2 29.63 100.14 29.6 100.09 C 29.57 100.04 29.51 100.03 29.43 100.06 C 29.25 100.14 29.08 100.22 28.92 100.31 C 28.76 100.4 28.6 100.51 28.46 100.64 C 28.4 100.7 28.35 100.73 28.31 100.73 C 28.27 100.73 28.24 100.69 28.21 100.6 C 28.14 100.4 28.07 100.2 28 100 C 27.93 99.8 27.86 99.61 27.78 99.42 C 27.71 99.25 27.65 99.08 27.58 98.91 C 27.51 98.75 27.45 98.58 27.39 98.41 C 27.35 98.33 27.34 98.25 27.36 98.19 C 27.37 98.12 27.44 98.08 27.57 98.06 C 27.58 98.06 27.6 98.06 27.64 98.05 C 28.14 97.97 28.63 97.84 29.1 97.69 C 29.57 97.53 30.02 97.31 30.45 97.04 C 30.54 96.98 30.64 96.94 30.74 96.9 C 30.84 96.87 30.95 96.88 31.06 96.94 C 31.38 97.09 31.7 97.2 32.04 97.27 C 32.38 97.34 32.71 97.44 33.03 97.58 C 33.27 97.69 33.5 97.81 33.72 97.95 C 33.94 98.09 34.18 98.2 34.43 98.27 C 34.59 98.32 34.61 98.41 34.5 98.56 C 34.28 98.96 34.06 99.35 33.86 99.75 C 33.66 100.15 33.47 100.56 33.31 100.98 C 33.19 101.29 33.07 101.61 32.95 101.93 C 32.83 102.25 32.69 102.55 32.51 102.83 C 32.45 102.91 32.4 103.01 32.37 103.12 C 32.33 103.23 32.31 103.33 32.3 103.43 C 32.27 103.58 32.23 103.73 32.18 103.88 C 32.13 104.03 32.08 104.18 32.02 104.33 L 31.2 106.41 C 30.93 107.1 30.64 107.79 30.34 108.48 C 30.23 108.75 30.15 109.03 30.08 109.32 C 30.01 109.61 29.94 109.89 29.86 110.17 C 29.8 110.36 29.75 110.46 29.72 110.48 C 29.69 110.5 29.59 110.47 29.43 110.4 L 27.79 109.75 C 27.53 109.63 27.26 109.52 27 109.42 L 26.2 109.11 Z" fill="#051128"/><path d=" M 255.49 175.19 C 255.35 175.09 255.28 175.01 255.29 174.98 C 255.29 174.94 255.36 174.85 255.5 174.72 C 255.81 174.41 256.11 174.1 256.39 173.76 C 256.67 173.43 256.94 173.08 257.19 172.71 C 257.63 172.1 258.07 171.5 258.51 170.92 C 258.95 170.34 259.4 169.75 259.86 169.15 C 260.14 168.79 260.4 168.42 260.64 168.05 C 260.88 167.67 261.16 167.32 261.48 167 C 261.53 166.94 261.55 166.87 261.54 166.82 C 261.52 166.76 261.46 166.73 261.37 166.74 C 261.16 166.77 260.96 166.81 260.77 166.86 C 260.58 166.91 260.38 166.98 260.2 167.07 C 260.12 167.11 260.06 167.13 260.02 167.13 C 259.98 167.13 259.96 167.07 259.95 166.97 C 259.93 166.74 259.92 166.52 259.9 166.29 C 259.88 166.07 259.86 165.85 259.84 165.63 C 259.82 165.43 259.8 165.24 259.77 165.05 C 259.74 164.86 259.72 164.67 259.71 164.48 C 259.7 164.39 259.71 164.31 259.74 164.24 C 259.77 164.17 259.86 164.15 260 164.17 C 260.01 164.17 260.04 164.17 260.07 164.17 C 260.62 164.22 261.15 164.23 261.68 164.2 C 262.21 164.16 262.73 164.07 263.26 163.9 C 263.37 163.87 263.48 163.84 263.6 163.84 C 263.71 163.84 263.82 163.87 263.92 163.97 C 264.21 164.22 264.51 164.42 264.84 164.58 C 265.17 164.74 265.48 164.94 265.78 165.18 C 266 165.36 266.2 165.55 266.39 165.76 C 266.58 165.97 266.79 166.14 267.04 166.29 C 267.19 166.38 267.18 166.49 267.03 166.61 C 266.69 166.96 266.36 167.31 266.03 167.66 C 265.71 168.01 265.4 168.39 265.11 168.77 C 264.89 169.06 264.68 169.36 264.48 169.65 C 264.28 169.94 264.04 170.22 263.78 170.46 C 263.69 170.53 263.62 170.62 263.55 170.72 C 263.48 170.82 263.43 170.92 263.39 171.02 C 263.32 171.16 263.23 171.31 263.14 171.45 C 263.05 171.59 262.95 171.73 262.85 171.87 L 261.42 173.79 C 260.95 174.43 260.46 175.06 259.96 175.69 C 259.78 175.94 259.61 176.2 259.46 176.48 C 259.31 176.76 259.15 177.03 258.99 177.3 C 258.87 177.48 258.79 177.57 258.76 177.58 C 258.73 177.59 258.63 177.53 258.48 177.42 L 256.96 176.29 C 256.72 176.09 256.48 175.91 256.24 175.73 L 255.5 175.18 Z" fill="#051128"/><path d=" M 239.99 148.46 C 239.82 148.46 239.72 148.44 239.7 148.41 C 239.68 148.38 239.68 148.27 239.71 148.08 C 239.78 147.65 239.82 147.22 239.85 146.78 C 239.88 146.34 239.88 145.9 239.87 145.46 C 239.86 144.71 239.85 143.97 239.87 143.24 C 239.87 142.51 239.89 141.77 239.9 141.02 C 239.91 140.56 239.9 140.11 239.87 139.67 C 239.84 139.23 239.85 138.78 239.92 138.32 C 239.92 138.24 239.9 138.18 239.86 138.14 C 239.81 138.1 239.75 138.11 239.68 138.18 C 239.53 138.33 239.39 138.48 239.27 138.63 C 239.14 138.78 239.03 138.96 238.94 139.14 C 238.9 139.22 238.86 139.27 238.83 139.29 C 238.8 139.31 238.75 139.29 238.68 139.2 C 238.53 139.03 238.38 138.85 238.24 138.69 C 238.09 138.52 237.94 138.36 237.8 138.2 C 237.67 138.05 237.53 137.91 237.4 137.78 C 237.27 137.65 237.14 137.51 237.02 137.36 C 236.95 137.29 236.91 137.22 236.9 137.15 C 236.89 137.08 236.94 137.01 237.06 136.94 C 237.07 136.94 237.09 136.93 237.12 136.9 C 237.59 136.62 238.03 136.31 238.43 135.96 C 238.83 135.62 239.19 135.22 239.52 134.78 C 239.59 134.69 239.66 134.6 239.75 134.53 C 239.84 134.46 239.95 134.43 240.08 134.44 C 240.46 134.47 240.83 134.44 241.19 134.38 C 241.55 134.31 241.92 134.29 242.3 134.3 C 242.58 134.31 242.86 134.35 243.14 134.4 C 243.41 134.45 243.69 134.47 243.98 134.44 C 244.15 134.43 244.21 134.51 244.16 134.7 C 244.09 135.18 244.04 135.66 243.99 136.14 C 243.94 136.62 243.92 137.1 243.92 137.58 C 243.92 137.94 243.92 138.3 243.94 138.67 C 243.96 139.04 243.93 139.39 243.86 139.74 C 243.83 139.85 243.82 139.96 243.83 140.08 C 243.83 140.2 243.85 140.32 243.88 140.42 C 243.91 140.58 243.93 140.75 243.94 140.91 C 243.95 141.07 243.96 141.25 243.96 141.42 L 243.96 143.82 C 243.96 144.61 243.95 145.41 243.92 146.22 C 243.92 146.53 243.94 146.84 243.99 147.16 C 244.04 147.48 244.07 147.79 244.1 148.1 C 244.11 148.31 244.1 148.44 244.08 148.46 C 244.06 148.48 243.95 148.5 243.76 148.5 L 241.87 148.5 C 241.56 148.49 241.26 148.48 240.95 148.48 L 240.03 148.48 Z" fill="#051128"/><path d=" M 42.24 140.88 C 42.08 140.88 41.99 140.86 41.97 140.83 C 41.95 140.8 41.95 140.7 41.97 140.52 C 42.03 140.12 42.08 139.72 42.1 139.31 C 42.12 138.9 42.13 138.49 42.12 138.08 C 42.11 137.38 42.1 136.69 42.12 136 C 42.12 135.32 42.14 134.63 42.15 133.92 C 42.16 133.49 42.15 133.07 42.12 132.66 C 42.09 132.25 42.1 131.83 42.17 131.4 C 42.17 131.32 42.15 131.27 42.11 131.23 C 42.06 131.19 42 131.21 41.94 131.27 C 41.8 131.41 41.67 131.55 41.55 131.69 C 41.43 131.83 41.33 131.99 41.24 132.17 C 41.2 132.25 41.17 132.29 41.14 132.31 C 41.11 132.33 41.06 132.31 41 132.23 C 40.86 132.07 40.72 131.91 40.59 131.75 C 40.45 131.59 40.31 131.44 40.18 131.29 C 40.05 131.15 39.93 131.02 39.8 130.89 C 39.67 130.77 39.56 130.63 39.44 130.5 C 39.38 130.44 39.34 130.37 39.33 130.3 C 39.32 130.23 39.37 130.17 39.48 130.1 C 39.49 130.1 39.51 130.09 39.54 130.06 C 39.98 129.8 40.39 129.51 40.76 129.19 C 41.14 128.87 41.47 128.5 41.77 128.09 C 41.83 128 41.9 127.92 41.99 127.86 C 42.07 127.79 42.17 127.76 42.3 127.78 C 42.65 127.8 43 127.78 43.33 127.72 C 43.67 127.66 44.01 127.63 44.36 127.64 C 44.62 127.65 44.88 127.68 45.14 127.73 C 45.4 127.78 45.66 127.79 45.92 127.77 C 46.08 127.76 46.14 127.84 46.09 128.01 C 46.03 128.46 45.97 128.91 45.93 129.35 C 45.89 129.79 45.86 130.24 45.86 130.69 C 45.86 131.03 45.86 131.37 45.88 131.7 C 45.9 132.03 45.87 132.37 45.81 132.7 C 45.78 132.8 45.78 132.91 45.78 133.02 C 45.78 133.13 45.8 133.24 45.83 133.34 C 45.85 133.49 45.87 133.64 45.89 133.8 C 45.91 133.96 45.91 134.12 45.91 134.28 L 45.91 136.52 C 45.91 137.26 45.9 138 45.87 138.76 C 45.87 139.05 45.89 139.34 45.94 139.63 C 45.98 139.92 46.02 140.22 46.04 140.5 C 46.05 140.7 46.04 140.81 46.02 140.84 C 46 140.87 45.89 140.88 45.72 140.88 L 43.95 140.88 C 43.66 140.87 43.38 140.86 43.1 140.86 L 42.25 140.86 Z" fill="#051128"/><path d=" M 25.36 176.85 C 25.22 176.94 25.14 176.98 25.11 176.96 C 25.08 176.94 25.02 176.86 24.95 176.7 C 24.78 176.33 24.6 175.97 24.39 175.62 C 24.19 175.27 23.97 174.92 23.73 174.58 C 23.33 174 22.95 173.43 22.58 172.85 C 22.21 172.28 21.84 171.69 21.46 171.1 C 21.24 170.74 21 170.39 20.74 170.06 C 20.49 169.73 20.27 169.37 20.09 168.98 C 20.05 168.92 20 168.88 19.95 168.87 C 19.89 168.87 19.85 168.91 19.83 168.99 C 19.79 169.18 19.76 169.37 19.74 169.55 C 19.72 169.74 19.72 169.93 19.74 170.12 C 19.75 170.2 19.74 170.26 19.74 170.29 C 19.72 170.32 19.67 170.33 19.58 170.29 C 19.38 170.23 19.17 170.17 18.97 170.12 C 18.77 170.07 18.57 170.01 18.37 169.96 C 18.19 169.91 18.01 169.87 17.84 169.84 C 17.67 169.81 17.49 169.76 17.32 169.71 C 17.23 169.69 17.17 169.66 17.12 169.61 C 17.07 169.56 17.08 169.48 17.14 169.36 C 17.15 169.36 17.16 169.33 17.17 169.3 C 17.39 168.84 17.57 168.37 17.71 167.9 C 17.85 167.43 17.93 166.93 17.95 166.42 C 17.95 166.31 17.97 166.21 18 166.11 C 18.03 166.01 18.1 165.93 18.21 165.87 C 18.52 165.7 18.79 165.49 19.04 165.25 C 19.29 165.01 19.56 164.8 19.86 164.62 C 20.09 164.49 20.32 164.37 20.56 164.27 C 20.8 164.17 21.03 164.04 21.23 163.87 C 21.36 163.77 21.45 163.81 21.51 163.98 C 21.71 164.39 21.91 164.79 22.12 165.19 C 22.33 165.58 22.56 165.97 22.8 166.35 C 22.99 166.63 23.18 166.91 23.37 167.19 C 23.56 167.47 23.73 167.76 23.86 168.06 C 23.89 168.16 23.94 168.25 24.01 168.34 C 24.08 168.43 24.15 168.51 24.22 168.58 C 24.32 168.69 24.42 168.81 24.52 168.93 C 24.62 169.05 24.71 169.18 24.8 169.32 L 26.03 171.19 C 26.44 171.81 26.84 172.44 27.23 173.08 C 27.39 173.32 27.57 173.55 27.77 173.77 C 27.97 173.99 28.16 174.22 28.34 174.44 C 28.46 174.6 28.52 174.7 28.51 174.73 C 28.5 174.76 28.43 174.83 28.28 174.93 L 26.81 175.9 C 26.56 176.05 26.32 176.2 26.09 176.35 L 25.38 176.82 Z" fill="#051128"/></g><g><path d=" M 58.83 315.63 L 59.67 315.07 L 60.53 313.74 L 61.28 311.93 L 61.76 310.02 L 62.57 308.6 L 63.61 307.99 L 66.4 308.14 L 66.91 308.39 L 67.1 308.88 L 67.23 312.32 L 67.19 315.76 L 67.11 319.21 L 67.33 322.66 L 66.85 323.28 L 66.16 323.58 L 65.3 323.86 L 64.55 323.6 L 63.69 323.54 L 63.29 322.95 L 63.12 320.63 L 63.22 320.11 L 62.96 319.47 L 62.71 318.9 L 62.23 318.57 L 61.69 319.03 L 61.09 319.71 L 60.79 320.66 L 59.91 321.03 L 58.99 321.19 L 57.93 320.8 L 57.24 320.3 L 56.54 319.77 L 56.32 319 L 55.78 318.61 L 55.32 318.37 L 55.06 318.68 L 55.06 318.76 L 54.8 318.76 L 54.77 318.94 L 54.83 322.96 L 54.58 323.46 L 53.89 323.72 L 53.14 323.68 L 52.68 323.87 L 52.17 323.6 L 51.5 323.6 L 50.93 323.31 L 50.51 322.8 L 50.78 319.29 L 50.57 315.78 L 50.64 312.26 L 50.57 308.74 L 50.88 308.25 L 51.29 308.05 L 54.24 308.07 L 55.2 308.62 L 55.86 310.06 L 56.32 311.95 L 57 313.79 L 58 315.06 L 58.89 315.63 Z" fill="#051128"/><path d=" M 72.37 322.51 L 72.62 318.8 L 72.49 318.05 L 72.42 316.93 L 72.36 314.02 L 72.33 311.11 L 72.41 309.98 L 72.41 309.23 L 72.49 308.92 L 72.73 308.6 L 72.77 308.16 L 73.16 308.03 L 76.97 308.01 L 80.79 308.25 L 84.61 308.08 L 85.08 308.35 L 85.34 308.86 L 85.34 309.44 L 85.45 309.83 L 85.43 310.47 L 84.94 311 L 81.37 310.96 L 77.81 310.88 L 77.3 311.19 L 76.83 311.56 L 76.56 312.16 L 76.71 312.78 L 76.49 313.32 L 76.83 313.79 L 77.23 314.08 L 77.64 314.39 L 82.28 314.45 L 83.09 314.82 L 83.41 315.73 L 83.34 316.16 L 83.14 316.63 L 83.14 317.18 L 82.6 317.22 L 77.96 317.13 L 77.43 317.53 L 76.88 317.79 L 76.81 318.42 L 76.53 318.98 L 76.91 320.27 L 77.97 320.71 L 81.45 320.81 L 84.92 320.96 L 85.4 321.31 L 85.32 321.77 L 85.3 322.31 L 85.28 322.92 L 85.11 323.51 L 84.47 323.51 L 80.71 323.69 L 76.94 323.6 L 73.17 323.77 L 72.83 323.55 L 72.56 323.25 L 72.51 322.84 L 72.39 322.53 Z" fill="#051128"/><path d=" M 89.98 322.21 L 90.1 321.51 L 90.45 320.79 L 90.76 320.02 L 91.57 320.02 L 92.72 320.08 L 93.93 320.24 L 95.1 320.68 L 96.35 320.68 L 97.44 320.8 L 97.96 320.42 L 98.2 319.87 L 97.95 319.19 L 97.47 318.53 L 94.95 317.68 L 92.41 316.55 L 90.45 314.76 L 89.77 312.11 L 90.23 309.91 L 91.92 308.83 L 93.95 308.13 L 96.21 308 L 97.27 307.92 L 98.23 307.98 L 99.22 308.18 L 100.42 308.15 L 101.08 308.59 L 101.1 309.34 L 101.2 310.11 L 100.93 310.87 L 100.47 311.44 L 99.77 311.59 L 98.83 311.57 L 97.84 311.42 L 96.88 311.12 L 95.88 310.88 L 95.4 311.05 L 94.83 311.05 L 94.61 311.57 L 94.45 312 L 94.88 313.31 L 96.54 314.06 L 98.63 314.68 L 100.61 315.75 L 102.23 317.1 L 102.7 319.28 L 102.2 321.45 L 100.68 322.8 L 98.7 323.84 L 96.35 323.77 L 95.52 324.03 L 94.23 323.98 L 92.77 323.87 L 91.44 323.46 L 90.34 323.11 L 89.98 322.22 Z" fill="#051128"/><path d=" M 105.46 309.98 L 106.08 308.46 L 107.74 308.03 L 111.4 307.98 L 115.06 308.24 L 118.72 308.22 L 119.26 308.24 L 119.67 308.68 L 119.8 309.29 L 119.93 309.82 L 119.67 310.2 L 119.85 310.67 L 119.47 310.92 L 119.03 311.09 L 116.1 311.14 L 115.74 311.24 L 115.34 311.56 L 114.85 311.84 L 114.81 312.31 L 114.99 315.87 L 114.87 319.43 L 114.84 322.99 L 114.81 323.28 L 114.49 323.51 L 114.09 323.59 L 113.92 323.7 L 111.59 323.84 L 111.23 323.71 L 110.89 323.16 L 110.94 319.66 L 110.87 316.14 L 110.75 312.62 L 110.82 312.12 L 110.27 311.76 L 109.99 311.16 L 109.44 311.12 L 106.49 311.1 L 105.86 310.68 L 105.47 310 Z" fill="#051128"/><path d=" M 138.15 312.76 L 138.2 314.14 L 137.54 315.14 L 136.89 316.18 L 135.88 317.22 L 135.94 317.86 L 136.16 319.24 L 137.13 320.33 L 137.69 321.64 L 138.11 322.81 L 137.96 322.97 L 137.96 323.24 L 137.81 323.46 L 137.65 323.46 L 135 323.67 L 134.63 323.51 L 134 322.87 L 133.82 321.93 L 133.13 320.77 L 132.49 319.58 L 132.11 318.77 L 131.34 317.95 L 130.36 317.41 L 129.89 317.63 L 129.51 317.92 L 129.16 318.17 L 129.04 318.62 L 129.01 322.5 L 129.05 322.81 L 128.94 323.19 L 128.61 323.4 L 128.38 323.73 L 125.59 323.56 L 125.37 323.36 L 125.11 323.11 L 124.76 322.83 L 124.76 322.5 L 124.92 319.18 L 124.77 315.86 L 124.85 312.53 L 124.93 309.2 L 124.88 308.9 L 124.99 308.51 L 125.37 308.34 L 125.59 308.12 L 129.37 308.12 L 133.15 308.09 L 135.15 308.34 L 136.71 309.37 L 137.94 310.74 L 138.16 312.76 Z M 128.86 312.76 L 129.56 314.06 L 130.82 314.7 L 131.85 314.53 L 132.93 314.3 L 133.72 313.63 L 134.18 312.59 L 133.67 311.82 L 133.05 311.12 L 132.05 310.95 L 131.14 310.76 L 129.5 311.25 L 128.86 312.74 Z" fill="#051128"/><path d=" M 143.16 322.51 L 143.37 318.8 L 143.46 318.05 L 143.33 316.92 L 143.21 314.01 L 143.32 311.09 L 143.22 309.97 L 143.08 309.2 L 143.27 308.9 L 143.4 308.53 L 143.76 308.36 L 143.94 308.16 L 147.75 308.14 L 151.57 308.26 L 155.39 308.17 L 155.94 308.28 L 156.05 308.86 L 156.17 309.42 L 156.29 309.81 L 156.17 310.43 L 155.72 310.94 L 152.15 311 L 148.59 311.02 L 148.1 311.2 L 147.66 311.57 L 147.46 312.16 L 147.37 312.76 L 147.34 313.29 L 147.7 313.73 L 148.03 314.05 L 148.43 314.34 L 153.07 314.46 L 153.88 314.81 L 154.22 315.72 L 154.27 316.15 L 154.14 316.67 L 153.94 317.16 L 153.4 317.32 L 148.76 317.36 L 148.18 317.44 L 147.64 317.75 L 147.51 318.37 L 147.38 318.96 L 147.65 320.28 L 148.77 320.77 L 152.25 320.7 L 155.73 320.83 L 156.3 321.23 L 156.12 321.75 L 156.31 322.3 L 156.13 322.91 L 155.69 323.29 L 155.27 323.57 L 151.51 323.66 L 147.74 323.61 L 143.97 323.72 L 143.75 323.39 L 143.36 323.21 L 143.4 322.77 L 143.19 322.5 Z" fill="#051128"/><path d=" M 182.33 316.18 L 181.9 318.56 L 181.09 320.98 L 179.57 322.89 L 177.11 323.64 L 173.33 323.46 L 169.55 323.54 L 169.03 323.35 L 168.68 322.83 L 168.85 319.32 L 168.85 315.81 L 168.79 312.29 L 168.91 308.77 L 168.77 308.56 L 169.08 308.47 L 169.15 308.13 L 169.39 308.1 L 173.34 308.26 L 177.29 308.05 L 179.11 308.42 L 180.43 309.53 L 181.15 311.13 L 181.88 312.8 L 182.15 314.58 L 182.34 316.21 Z M 173.04 319.72 L 173.51 320.55 L 174.48 320.69 L 175.73 320.39 L 176.87 319.72 L 177.85 318.78 L 178.1 317.42 L 178.02 314.17 L 177.62 312.92 L 176.89 311.78 L 175.71 311.09 L 174.47 310.89 L 173.16 311.25 L 172.84 312.48 L 172.66 315.1 L 172.89 317.42 L 173.02 319.73 Z" fill="#051128"/><path d=" M 186.27 315.85 L 186.63 312.58 L 188.44 310.14 L 190.89 308.43 L 194.08 307.66 L 197.32 308.29 L 199.72 310.12 L 201.27 312.62 L 201.98 315.71 L 201.37 318.97 L 199.9 321.58 L 197.45 323.25 L 194.25 323.68 L 190.93 323.28 L 188.38 321.64 L 186.9 319.06 L 186.27 315.85 Z M 190.29 315.85 L 190.74 317.43 L 191.22 318.96 L 192.38 319.96 L 193.92 320.19 L 195.59 319.84 L 196.91 318.99 L 197.69 317.55 L 197.79 315.84 L 197.62 314.12 L 196.82 312.69 L 195.67 311.67 L 194.09 311.13 L 192.46 311.7 L 191.3 312.74 L 190.46 314.17 L 190.3 315.84 Z" fill="#051128"/><path d=" M 206.38 322.21 L 206.4 321.5 L 206.74 320.75 L 207.17 320.07 L 207.95 319.79 L 209.09 320.12 L 210.28 320.37 L 211.5 320.66 L 212.74 320.97 L 213.83 320.73 L 214.41 320.49 L 214.65 319.9 L 214.36 319.22 L 213.79 318.76 L 211.28 317.91 L 208.81 316.59 L 206.76 314.86 L 205.99 312.15 L 206.73 310.02 L 208.25 308.73 L 210.34 308.15 L 212.6 308.11 L 213.66 307.86 L 214.62 307.98 L 215.62 308.06 L 216.8 308.16 L 217.32 308.69 L 217.62 309.35 L 217.36 310.09 L 217.21 310.85 L 216.94 311.56 L 216.15 311.64 L 215.23 311.52 L 214.29 311.22 L 213.26 311.16 L 212.27 311.03 L 211.75 310.88 L 211.24 311.09 L 210.77 311.4 L 210.88 312 L 211.39 313.15 L 213 313.88 L 214.94 314.91 L 216.96 315.82 L 218.72 317.02 L 219.27 319.27 L 218.61 321.45 L 217.2 323 L 215.06 323.67 L 212.74 324.02 L 211.91 323.98 L 210.62 323.96 L 209.16 323.92 L 207.85 323.41 L 206.79 323.04 L 206.39 322.22 Z" fill="#051128"/></g><path d=" M 43.42 338.88 C 43.15 338.79 42.92 338.65 42.74 338.47 C 42.51 338.25 42.29 338.03 42.06 337.83 C 41.83 337.63 41.63 337.41 41.45 337.19 C 40.41 335.79 39.2 334.69 37.83 333.87 C 36.45 333.06 35.04 332.29 33.6 331.57 C 32.11 330.85 30.59 330.33 29.03 330.01 C 27.47 329.7 25.9 329.54 24.33 329.54 C 22.76 329.54 21.22 329.68 19.59 329.95 C 17.96 330.22 16.38 330.63 14.85 331.17 C 13.32 331.71 11.86 332.4 10.48 333.23 C 9.1 334.07 7.87 335.05 6.79 336.17 C 4.98 338.07 3.51 340.15 2.36 342.43 C 1.21 344.71 0.52 347.16 0.3 349.77 C 0.07 351.8 -0.03 353.83 1.18239e-14 355.86 C 0.02 357.89 0.28 359.92 0.78 361.95 C 1.05 363.26 1.51 364.57 2.17 365.88 C 2.82 367.19 3.6 368.44 4.5 369.64 C 5.4 370.84 6.4 371.93 7.48 372.92 C 8.56 373.91 9.67 374.75 10.8 375.42 C 12.83 376.59 14.91 377.42 17.03 377.89 C 19.15 378.36 21.34 378.58 23.6 378.53 C 25.09 378.57 26.56 378.52 28 378.36 C 29.44 378.2 30.84 377.87 32.2 377.38 C 36.08 375.8 39.51 373.5 42.49 370.48 C 42.85 370.12 43.02 369.84 43 369.63 C 42.98 369.43 42.79 369.19 42.42 368.92 C 41.74 368.33 41.07 367.77 40.39 367.23 C 39.71 366.69 39.08 366.1 38.49 365.47 C 38.35 365.29 37.98 364.92 37.37 364.35 C 36.76 363.79 36.09 363.19 35.37 362.56 C 34.65 361.93 33.98 361.36 33.37 360.87 C 32.76 360.37 32.37 360.13 32.19 360.13 C 31.96 360.13 31.76 360.49 31.58 361.21 C 31.35 361.93 30.95 362.59 30.36 363.17 C 29.77 363.75 29.11 364.25 28.36 364.66 C 27.62 365.07 26.84 365.38 26.02 365.61 C 25.21 365.84 24.44 365.95 23.72 365.95 C 21.82 365.95 20.04 365.4 18.37 364.29 C 16.7 363.18 15.46 361.62 14.65 359.59 C 13.43 356.39 13.32 353.14 14.31 349.84 C 14.63 348.8 15.1 347.82 15.73 346.9 C 16.36 345.98 17.09 345.17 17.93 344.5 C 18.76 343.82 19.7 343.29 20.74 342.91 C 21.78 342.53 22.86 342.34 23.99 342.34 C 24.76 342.34 25.58 342.49 26.46 342.78 C 27.34 343.07 28.17 343.47 28.96 343.96 C 29.75 344.46 30.45 345.03 31.06 345.69 C 31.67 346.34 32.09 347.06 32.31 347.82 C 32.35 347.91 32.41 348.01 32.48 348.12 C 32.55 348.23 32.63 348.33 32.72 348.42 C 32.9 348.69 33.13 348.71 33.4 348.49 C 34.98 347.14 36.56 345.79 38.14 344.46 C 39.72 343.13 41.3 341.79 42.88 340.43 C 43.06 340.25 43.24 340.09 43.42 339.96 C 43.6 339.82 43.71 339.67 43.76 339.49 C 43.8 339.17 43.69 338.97 43.42 338.88 Z" fill="#009BA7"/><path d=" M 81.82 354.15 C 81.46 352.63 80.97 351.12 80.36 349.6 C 80.29 349.42 80.22 349.23 80.14 349.03 C 80.07 348.83 79.96 348.64 79.82 348.46 C 78.88 347.23 77.91 346.03 76.9 344.86 C 75.89 343.69 74.64 342.72 73.16 341.96 C 71.5 341.09 69.83 340.42 68.15 339.93 C 66.47 339.44 64.75 339.2 62.98 339.2 C 61.61 339.2 60.2 339.34 58.76 339.63 C 57.32 339.92 55.92 340.35 54.56 340.93 C 53.21 341.51 51.95 342.22 50.8 343.07 C 49.64 343.92 48.65 344.92 47.82 346.08 C 47.03 347.16 46.32 348.29 45.71 349.46 C 45.1 350.63 44.63 351.87 44.3 353.17 C 43.98 354.58 43.8 355.99 43.79 357.39 C 43.77 358.8 43.79 360.22 43.87 361.67 C 44.01 364.05 44.56 366.23 45.52 368.2 C 46.48 370.17 47.72 371.87 49.26 373.32 C 50.79 374.76 52.58 375.92 54.62 376.79 C 56.66 377.66 58.83 378.18 61.15 378.36 C 61.98 378.43 62.79 378.44 63.59 378.39 C 64.38 378.34 65.2 378.27 66.03 378.2 C 67.73 378.09 69.33 377.75 70.85 377.17 C 72.37 376.59 73.76 375.76 75.02 374.68 C 76.28 373.63 77.44 372.48 78.49 371.21 C 79.54 369.95 80.29 368.45 80.76 366.72 C 80.83 366.54 80.93 366.35 81.06 366.15 C 81.19 365.95 81.28 365.76 81.36 365.58 C 81.43 365.4 81.5 365.21 81.58 365.01 C 81.65 364.81 81.71 364.6 81.74 364.39 C 81.74 363.45 81.85 362.53 82.06 361.63 C 82.28 360.73 82.29 359.86 82.11 359.03 C 82.29 357.3 82.2 355.67 81.84 354.16 Z M 70.96 362.33 C 70.62 363.41 70.14 364.48 69.52 365.53 C 68.83 366.69 67.89 367.59 66.68 368.24 C 65.47 368.89 64.2 369.21 62.86 369.21 C 61.74 369.21 60.67 368.98 59.64 368.51 C 58.61 368.04 57.74 367.32 57.01 366.34 C 56.07 365 55.39 363.61 54.95 362.14 C 54.51 360.67 54.44 359.12 54.73 357.46 C 54.8 357.28 54.84 357.08 54.84 356.86 L 54.84 356.21 C 54.91 355.2 55.2 354.28 55.71 353.45 C 55.85 353.23 56 353.01 56.14 352.77 C 56.28 352.54 56.41 352.29 56.52 352.04 C 56.77 351.46 57.12 350.95 57.58 350.5 C 58.03 350.05 58.55 349.66 59.12 349.34 C 59.7 349.02 60.31 348.76 60.96 348.58 C 61.61 348.4 62.24 348.31 62.86 348.31 C 64.12 348.31 65.33 348.63 66.49 349.28 C 67.64 349.93 68.58 350.83 69.31 351.99 C 70 353.04 70.54 354.12 70.93 355.24 C 71.33 356.36 71.42 357.55 71.2 358.81 C 71.38 360.07 71.3 361.25 70.96 362.33 Z" fill="#009BA7"/><path d=" M 62.35 336.13 L 63.87 336.13 C 64.28 336.13 64.65 335.93 65 335.53 C 65.41 335.08 65.78 334.65 66.13 334.25 C 66.48 333.85 66.86 333.43 67.26 332.97 C 67.84 332.35 68.42 331.78 69 331.26 C 69.58 330.75 70.16 330.21 70.74 329.64 C 71.03 329.41 71.29 329.21 71.52 329.04 C 71.75 328.87 71.98 328.67 72.22 328.44 C 72.34 328.44 72.39 328.41 72.39 328.35 C 72.39 328.29 72.42 328.26 72.48 328.26 L 72.31 328.17 L 68.69 328.17 C 67.61 328.17 66.5 328.11 65.34 328 C 65.28 328 65.22 328.04 65.17 328.13 C 65.11 328.22 65.14 328.31 65.26 328.43 C 65.32 328.6 65.35 328.91 65.35 329.37 C 65.18 330.17 64.88 330.93 64.48 331.67 C 64.07 332.41 63.64 333.12 63.17 333.8 C 63.05 334.03 62.92 334.26 62.78 334.48 C 62.63 334.71 62.5 334.96 62.39 335.25 C 62.27 335.37 62.14 335.48 62 335.59 C 61.85 335.71 61.84 335.82 61.96 335.93 C 62.08 336.05 62.21 336.1 62.35 336.1 Z" fill="#009BA7"/><path d=" M 116.08 346.41 C 115.05 344.64 113.67 343.17 111.94 342 C 110.21 340.83 108.02 340.13 105.39 339.92 C 103.8 339.81 102.19 339.79 100.54 339.87 C 98.9 339.94 97.01 339.96 94.88 339.92 L 90.82 339.92 C 89.27 339.92 87.64 339.9 85.95 339.87 C 85.55 339.87 85.32 339.93 85.25 340.06 C 85.18 340.19 85.18 340.45 85.25 340.85 C 85.54 342.33 85.73 343.79 85.82 345.24 C 85.91 346.68 85.97 348.16 86.01 349.68 C 86.05 351.74 86.06 353.79 86.06 355.85 L 86.06 366.11 C 86.06 367.46 86.01 368.83 85.9 370.2 C 85.79 371.32 85.75 372.44 85.76 373.56 C 85.78 374.68 85.64 375.78 85.35 376.86 C 85.24 377.29 85.25 377.58 85.38 377.73 C 85.51 377.87 85.8 377.95 86.27 377.95 C 86.7 378.02 87.06 378 87.35 377.9 C 88.29 377.68 89.19 377.7 90.06 377.95 C 90.24 377.99 90.42 378.01 90.6 378.03 C 90.78 378.05 90.96 378.03 91.14 378 C 92.08 377.71 93.03 377.64 94.01 377.78 C 94.99 377.92 95.94 377.96 96.88 377.89 C 98.36 377.82 99.83 377.8 101.29 377.84 C 102.75 377.88 104.22 377.86 105.7 377.79 C 107.22 377.72 108.63 377.45 109.95 376.98 C 111.27 376.51 112.47 375.73 113.55 374.65 C 113.95 374.25 114.34 373.91 114.71 373.62 C 115.09 373.33 115.42 372.93 115.71 372.43 C 117.98 368.24 119.1 363.78 119.07 359.05 C 118.96 356.81 118.69 354.59 118.26 352.39 C 117.83 350.19 117.1 348.2 116.07 346.43 Z M 107.85 362.28 C 107.61 363.44 107.26 364.59 106.79 365.75 C 106.25 367.01 105.5 367.95 104.54 368.57 C 103.58 369.18 102.46 369.58 101.16 369.76 C 100.55 369.83 99.95 369.84 99.37 369.79 C 98.79 369.74 98.2 369.79 97.58 369.98 C 97.29 370.05 97.05 369.98 96.85 369.79 C 96.65 369.59 96.53 369.33 96.5 369.01 C 96.5 368.79 96.52 368.58 96.55 368.36 C 96.59 368.14 96.62 367.95 96.66 367.76 C 96.77 366.86 96.81 365.97 96.8 365.11 C 96.78 364.24 96.74 363.38 96.66 362.51 C 96.59 361.57 96.53 360.63 96.5 359.69 C 96.46 358.75 96.54 357.81 96.72 356.87 L 96.72 356.71 C 96.58 355.66 96.57 354.62 96.69 353.57 C 96.82 352.52 96.79 351.48 96.61 350.43 C 96.5 349.82 96.47 349.27 96.5 348.81 C 96.54 347.98 97.02 347.6 97.96 347.67 C 98.1 347.67 98.24 347.67 98.37 347.7 C 98.5 347.72 98.63 347.73 98.78 347.73 L 100.4 347.89 C 100.76 347.89 101.03 347.91 101.21 347.94 C 103.59 348.05 105.34 349.24 106.46 351.51 C 107.04 352.63 107.48 353.78 107.79 354.95 C 108.1 356.12 108.11 357.36 107.82 358.66 C 108.07 359.92 108.08 361.13 107.85 362.29 Z" fill="#009BA7"/><path d=" M 134.76 375.08 C 134.72 374.41 134.72 373.75 134.76 373.1 L 134.76 368.82 C 134.76 367.41 134.74 365.99 134.71 364.54 C 134.67 362.81 134.64 361.07 134.6 359.31 C 134.56 357.56 134.55 355.82 134.55 354.08 C 134.59 352.75 134.6 351.42 134.6 350.1 C 134.6 348.78 134.64 347.46 134.71 346.12 C 134.78 345.18 134.85 344.27 134.9 343.39 C 134.95 342.51 135.07 341.61 135.25 340.71 C 135.32 340.24 135.32 339.96 135.25 339.87 C 135.18 339.78 134.89 339.73 134.38 339.73 C 133.55 339.69 132.71 339.69 131.86 339.7 C 131.01 339.72 130.15 339.73 129.29 339.73 L 124.25 339.73 C 123.78 339.73 123.5 339.77 123.41 339.84 C 123.32 339.91 123.31 340.16 123.38 340.6 C 123.52 341.65 123.67 342.7 123.81 343.77 C 123.95 344.84 123.99 345.89 123.92 346.94 C 123.88 347.48 123.87 348.02 123.87 348.56 L 123.87 350.18 C 123.87 353.43 123.91 356.64 123.98 359.82 C 124.05 363 124.05 366.19 123.98 369.4 C 123.94 370.74 123.88 372.06 123.79 373.38 C 123.7 374.7 123.47 376.01 123.11 377.31 C 123.04 377.56 123.05 377.72 123.14 377.77 C 123.23 377.82 123.36 377.85 123.55 377.85 C 123.73 377.81 123.93 377.79 124.15 377.77 C 124.37 377.75 124.58 377.73 124.8 377.69 C 125.7 377.62 126.6 377.56 127.51 377.53 C 128.41 377.49 129.31 377.53 130.22 377.64 C 130.94 377.75 131.67 377.8 132.41 377.8 L 134.6 377.8 C 134.89 377.84 135.11 377.8 135.25 377.72 C 135.39 377.63 135.38 377.39 135.2 376.99 C 134.95 376.38 134.8 375.74 134.77 375.07 Z" fill="#009BA7"/><path d=" M 173.81 346.41 C 173.57 346.19 173.35 346 173.13 345.81 L 171.78 344.51 C 171.27 344.08 170.71 343.64 170.07 343.18 C 169.44 342.73 168.78 342.3 168.09 341.88 C 167.4 341.47 166.71 341.11 166.01 340.82 C 165.31 340.53 164.63 340.33 163.98 340.22 C 163.11 340.04 162.25 339.86 161.38 339.68 C 160.51 339.5 159.63 339.41 158.73 339.41 C 157.83 339.41 157.03 339.54 156.24 339.79 C 154.36 339.79 152.56 340.13 150.82 340.82 C 149.09 341.51 147.52 342.43 146.11 343.58 C 144.7 344.74 143.48 346.1 142.45 347.67 C 141.42 349.24 140.65 350.93 140.15 352.73 C 139.75 354.1 139.48 355.52 139.34 356.98 C 139.2 358.44 139.21 359.9 139.39 361.34 C 139.61 363.25 139.99 365.1 140.55 366.89 C 141.11 368.68 142.07 370.31 143.45 371.79 C 143.81 372.15 144.11 372.55 144.34 372.98 C 144.57 373.41 144.89 373.77 145.29 374.06 C 146.37 374.75 147.37 375.37 148.29 375.93 C 149.21 376.49 150.15 376.98 151.11 377.39 C 152.07 377.81 153.07 378.12 154.12 378.34 C 155.17 378.56 156.34 378.66 157.64 378.66 C 158.43 378.66 159.41 378.56 160.56 378.36 C 161.71 378.16 162.88 377.86 164.05 377.47 C 165.22 377.08 166.28 376.57 167.22 375.95 C 168.16 375.34 168.81 374.62 169.17 373.78 C 169.31 373.49 169.49 373.34 169.71 373.32 C 169.93 373.3 170.16 373.38 170.41 373.56 C 170.95 373.96 171.39 374.41 171.74 374.91 C 172.08 375.42 172.36 375.98 172.58 376.59 L 173.07 377.78 C 173.21 378.1 173.43 378.25 173.72 378.21 C 174.08 378.21 174.3 378.03 174.37 377.67 C 174.41 377.49 174.39 377.26 174.32 376.97 C 174.18 376.61 174.1 376.25 174.1 375.89 L 174.1 373.99 C 174.1 373.74 174.12 373.48 174.15 373.23 L 174.15 369.98 C 174.19 369.73 174.2 369.47 174.2 369.22 L 174.2 368.41 C 174.24 367.47 174.26 366.56 174.28 365.68 C 174.3 364.8 174.31 363.88 174.31 362.95 L 174.31 361.76 C 174.27 361.25 174.26 360.77 174.28 360.3 C 174.3 359.83 174.34 359.34 174.42 358.84 C 174.49 358.15 174.42 357.7 174.18 357.49 C 173.94 357.27 173.47 357.22 172.74 357.33 C 172.13 357.4 171.49 357.47 170.84 357.52 C 170.19 357.57 169.56 357.6 168.94 357.6 C 167.68 357.6 166.41 357.49 165.15 357.28 C 164.86 357.24 164.58 357.24 164.31 357.25 C 164.04 357.27 163.78 357.3 163.53 357.33 C 162.84 357.44 162.14 357.49 161.42 357.49 C 161.17 357.49 160.92 357.49 160.69 357.46 C 160.45 357.44 160.19 357.4 159.9 357.32 C 159.03 357.1 158.58 357.43 158.55 358.29 C 158.48 359.3 158.38 360.3 158.25 361.3 C 158.12 362.29 157.92 363.26 157.63 364.2 C 157.56 364.42 157.58 364.55 157.68 364.61 C 157.78 364.67 157.93 364.66 158.11 364.58 C 158.29 364.51 158.46 364.44 158.62 364.39 C 158.78 364.34 158.95 364.27 159.13 364.2 C 160.25 363.73 161.39 363.42 162.54 363.28 C 163.69 363.14 164.87 363.08 166.06 363.12 C 166.35 363.12 166.66 363.12 167.01 363.15 C 167.35 363.17 167.58 363.32 167.69 363.61 C 167.8 363.93 167.76 364.25 167.58 364.56 C 167.4 364.87 167.2 365.15 166.98 365.4 L 166.66 365.72 C 166.55 365.83 166.43 365.92 166.28 365.99 C 163.68 367.9 160.77 368.72 157.56 368.43 C 155.97 368.32 154.58 367.67 153.39 366.48 C 152.23 365.36 151.46 364.14 151.06 362.82 C 150.66 361.5 150.45 360.14 150.41 358.73 L 150.41 357.38 C 150.41 356.98 150.46 356.59 150.57 356.19 C 150.86 355.29 151.26 354.44 151.76 353.64 C 152.27 352.85 152.87 352.15 153.57 351.56 C 154.27 350.96 155.06 350.5 155.93 350.15 C 156.8 349.8 157.72 349.64 158.69 349.64 C 159.34 349.64 160.01 349.77 160.69 350.02 C 161.38 350.27 162.02 350.61 162.64 351.02 C 163.25 351.43 163.8 351.91 164.29 352.45 C 164.78 352.99 165.15 353.57 165.4 354.18 C 165.58 354.58 165.75 354.76 165.91 354.72 C 166.07 354.68 166.24 354.56 166.42 354.34 C 166.96 353.76 167.55 353.23 168.18 352.74 C 168.81 352.25 169.43 351.77 170.05 351.31 C 170.84 350.73 171.6 350.12 172.32 349.47 C 173.04 348.82 173.76 348.19 174.49 347.57 C 174.71 347.35 174.71 347.16 174.49 346.97 C 174.24 346.79 173.99 346.59 173.76 346.37 Z" fill="#009BA7"/><path d=" M 217.33 354.15 C 216.97 352.63 216.48 351.12 215.87 349.6 C 215.8 349.42 215.73 349.23 215.65 349.03 C 215.58 348.83 215.47 348.64 215.33 348.46 C 214.39 347.23 213.42 346.03 212.41 344.86 C 211.4 343.69 210.15 342.72 208.67 341.96 C 207.01 341.09 205.34 340.42 203.66 339.93 C 201.98 339.44 200.26 339.2 198.49 339.2 C 197.12 339.2 195.71 339.34 194.27 339.63 C 192.83 339.92 191.43 340.35 190.07 340.93 C 188.72 341.51 187.46 342.22 186.31 343.07 C 185.15 343.92 184.16 344.92 183.33 346.08 C 182.54 347.16 181.83 348.29 181.22 349.46 C 180.61 350.63 180.14 351.87 179.81 353.17 C 179.49 354.58 179.31 355.99 179.3 357.39 C 179.28 358.8 179.3 360.22 179.38 361.67 C 179.52 364.05 180.07 366.23 181.03 368.2 C 181.99 370.17 183.23 371.87 184.77 373.32 C 186.3 374.76 188.09 375.92 190.13 376.79 C 192.17 377.66 194.34 378.18 196.66 378.36 C 197.49 378.43 198.3 378.44 199.1 378.39 C 199.89 378.34 200.71 378.27 201.54 378.2 C 203.24 378.09 204.84 377.75 206.36 377.17 C 207.88 376.59 209.27 375.76 210.53 374.68 C 211.79 373.63 212.95 372.48 214 371.21 C 215.05 369.95 215.8 368.45 216.27 366.72 C 216.34 366.54 216.44 366.35 216.57 366.15 C 216.7 365.95 216.79 365.76 216.87 365.58 C 216.94 365.4 217.01 365.21 217.09 365.01 C 217.16 364.81 217.22 364.6 217.25 364.39 C 217.25 363.45 217.36 362.53 217.57 361.63 C 217.79 360.73 217.8 359.86 217.62 359.03 C 217.8 357.3 217.71 355.67 217.35 354.16 Z M 206.52 362.33 C 206.18 363.41 205.7 364.48 205.08 365.53 C 204.39 366.69 203.45 367.59 202.24 368.24 C 201.03 368.89 199.76 369.21 198.42 369.21 C 197.3 369.21 196.23 368.98 195.2 368.51 C 194.17 368.04 193.3 367.32 192.57 366.34 C 191.63 365 190.95 363.61 190.51 362.14 C 190.07 360.67 190 359.12 190.29 357.46 C 190.36 357.28 190.4 357.08 190.4 356.86 L 190.4 356.21 C 190.47 355.2 190.76 354.28 191.27 353.45 C 191.41 353.23 191.56 353.01 191.7 352.77 C 191.84 352.54 191.97 352.29 192.08 352.04 C 192.33 351.46 192.68 350.95 193.14 350.5 C 193.59 350.05 194.11 349.66 194.68 349.34 C 195.26 349.02 195.87 348.76 196.52 348.58 C 197.17 348.4 197.8 348.31 198.42 348.31 C 199.68 348.31 200.89 348.63 202.05 349.28 C 203.2 349.93 204.14 350.83 204.87 351.99 C 205.56 353.04 206.1 354.12 206.49 355.24 C 206.89 356.36 206.98 357.55 206.76 358.81 C 206.94 360.07 206.86 361.25 206.52 362.33 Z" fill="#009BA7"/><path d=" M 262.39 358.78 C 261.76 357.47 260.88 356.29 259.75 355.23 C 258.62 354.17 257.37 353.23 255.99 352.42 C 254.61 351.61 253.2 350.9 251.76 350.29 C 250.32 349.68 248.94 349.15 247.63 348.7 C 246.5 348.29 245.37 347.9 244.25 347.52 C 243.12 347.14 241.97 346.77 240.8 346.4 C 240.12 346.18 239.49 345.89 238.9 345.55 C 238.31 345.21 237.77 344.82 237.28 344.36 C 236.65 343.82 236.35 343.28 236.4 342.74 C 236.44 342.26 236.76 341.82 237.33 341.41 C 237.39 341.55 237.51 341.59 237.7 341.53 C 237.88 341.53 237.97 341.46 237.97 341.33 C 238.01 341.19 238 341.1 237.94 341.06 C 237.94 341.06 237.92 341.04 237.92 341.04 C 237.99 341.01 238.06 340.97 238.14 340.95 C 238.34 340.88 238.56 340.8 238.78 340.71 C 239.55 340.48 240.33 340.36 241.12 340.34 C 241.91 340.32 242.71 340.37 243.52 340.51 C 244.47 340.69 245.43 340.87 246.4 341.05 C 247.37 341.23 248.33 341.43 249.28 341.66 C 250.32 341.93 251.35 342.26 252.39 342.64 C 253.43 343.02 254.35 343.62 255.17 344.43 C 255.44 344.75 255.67 344.85 255.85 344.73 C 256.03 344.62 256.17 344.38 256.26 344.02 C 256.62 342.71 256.98 341.38 257.34 340.03 C 257.7 338.68 258.06 337.32 258.42 335.97 C 258.6 335.29 258.8 334.62 259.03 333.94 C 259.26 333.26 259.46 332.56 259.64 331.84 C 259.73 331.7 259.78 331.54 259.78 331.33 C 259.78 331.12 259.6 331.05 259.24 331.09 C 257.57 331.32 255.92 331.33 254.3 331.12 C 252.68 330.92 251.03 330.7 249.36 330.48 C 248.05 330.34 246.77 330.16 245.5 329.94 C 244.24 329.71 243.02 329.71 241.84 329.94 C 240.31 329.99 238.85 330.05 237.47 330.14 C 236.09 330.23 234.76 330.44 233.48 330.78 C 232.19 331.12 230.95 331.6 229.76 332.24 C 228.56 332.87 227.38 333.77 226.21 334.95 C 224.27 336.98 223.16 339.14 222.89 341.41 C 222.62 343.69 222.84 346.05 223.57 348.48 C 224.07 350.1 224.77 351.48 225.67 352.61 C 226.57 353.74 227.61 354.72 228.78 355.55 C 229.95 356.39 231.23 357.11 232.6 357.72 C 233.98 358.33 235.39 358.93 236.83 359.51 C 238.27 360.14 239.73 360.69 241.2 361.17 C 242.67 361.64 244.12 362.13 245.57 362.63 C 246.25 362.86 246.91 363.13 247.57 363.44 C 248.22 363.76 248.82 364.16 249.36 364.66 C 249.86 365.11 250.07 365.56 250 366.01 C 249.93 366.46 249.6 366.85 249.02 367.16 C 248.25 367.61 247.41 367.93 246.48 368.11 C 245.55 368.29 244.66 368.38 243.81 368.38 C 242.59 368.38 241.25 368.24 239.78 367.97 C 238.31 367.7 236.84 367.33 235.35 366.85 C 233.86 366.38 232.44 365.83 231.09 365.23 C 229.74 364.63 228.61 363.98 227.71 363.3 L 227.3 363.1 C 226.8 362.74 226.49 362.87 226.35 363.51 C 225.9 365.59 225.37 367.62 224.76 369.6 C 224.15 371.59 223.48 373.59 222.76 375.62 C 222.53 376.34 222.78 376.68 223.5 376.64 C 223.91 376.64 224.31 376.62 224.72 376.57 C 225.13 376.53 225.55 376.55 226.01 376.64 C 227.81 376.96 229.62 377.26 231.43 377.55 C 233.23 377.84 235.06 378.1 236.91 378.33 C 237.99 378.42 239.09 378.5 240.19 378.57 C 241.3 378.64 242.39 378.74 243.47 378.87 C 244.19 378.96 244.93 378.94 245.67 378.8 C 246.41 378.66 247.17 378.55 247.94 378.46 C 249.79 378.23 251.57 377.9 253.29 377.44 C 255 376.99 256.65 376.24 258.23 375.21 C 259.36 374.49 260.24 373.61 260.87 372.57 C 261.5 371.53 262.18 370.5 262.9 369.46 C 263.21 367.66 263.42 365.86 263.51 364.08 C 263.6 362.3 263.24 360.53 262.43 358.77 Z" fill="#009BA7"/><path d=" M 210.19 358.01 L 209.57 355.88 L 208.48 353.33 L 207.35 351.31 L 206.73 349.04 L 205.5 346.79 L 204.69 344.77 L 203.68 342.62 L 202.99 340.55 L 201.92 338.19 L 200.27 334.65 L 198.11 331.45 L 196.93 333.9 L 194.83 338.3 L 194.04 340.25 L 192.97 342.19 L 191.23 346.82 L 190.05 349.09 L 189.47 351.42 L 188.57 353.27 L 187.58 355.59 L 186.82 358.02 L 185.56 361.18 L 186.83 364.2 L 187.47 366.21 L 188.6 368.54 L 189.31 370.41 L 189.93 372.47 L 191.1 375.29 L 192.75 377.15 L 194.19 378.99 L 195.84 380.3 L 199.3 384.92 L 203.4 379.53 L 206.99 374.5 L 207.56 371.96 L 208.82 368.3 L 209.86 366.28 L 210.46 363.98 L 211.39 361.04 L 210.19 358.01 Z" fill="#009BA7"/><path d=" M 199.36 377.89 L 200.78 375.86 L 202.08 373.85 L 203.4 371.82 L 203.8 369.92 L 204.36 368.11 L 204.93 366.29 L 205.75 364.56 L 206.19 362.7 L 206.71 360.9 L 206 358.93 L 205.46 356.88 L 204.67 354.93 L 203.69 353.05 L 203.18 350.98 L 202.24 349.09 L 201.51 347.11 L 200.67 345.17 L 200.06 343.15 L 199.23 341.2 L 198.57 339.22 L 197.96 341.21 L 197.22 343.18 L 196.28 345.07 L 195.62 347.07 L 194.94 349.06 L 194.03 350.97 L 193.56 353.04 L 192.7 354.96 L 191.94 356.93 L 191.37 358.96 L 190.67 360.89 L 191.37 362.72 L 191.93 364.66 L 192.77 366.48 L 193.43 368.38 L 193.97 370.33 L 194.69 372.21 L 195.83 373.62 L 196.89 375.1 L 198.27 376.3 L 199.36 377.89 Z" fill="#F9B453"/></svg>